{
.appVersion = "3058";
DisplayStrings = (
"/c_b.liga/c_b.ss01.liga/c_h.liga/c_h.ss01.liga/c_k.liga/c_k.liga.ss01/c_t.liga/c_t.liga.ss01 \012/f_i.liga/f_t.liga/f_b.liga/f_b.ss01.liga/f_h.liga/f_h.ss01.liga/f_j.liga/f_k.liga/f_r.liga ee\012/s_h.liga/s_h.liga.ss01/s_k.liga/s_k.liga.ss01/s_p.liga/s_p.liga.ss01/s_t.liga/s_t.liga.ss01",

glyphs = (
{
glyphname = A;
layers = (
{
layerId = "422CF5D5-EDAF-47A9-A829-F34A9B802C97";
paths = (
{
closed = 1;
nodes = (
"158 0 LINE",
"224 132 LINE",
"588 132 LINE",
"654 0 LINE",
"873 0 LINE",
"523 700 LINE",
"342 700 LINE",
"-8 0 LINE"
);
},
{
closed = 1;
nodes = (
"406 496 LINE",
"516 276 LINE",
"296 276 LINE"
);
}
);
width = 865;
}
);
leftKerningGroup = A;
rightKerningGroup = A;
unicode = 0041;
},
{
glyphname = AE;
layers = (
{
layerId = "422CF5D5-EDAF-47A9-A829-F34A9B802C97";
paths = (
{
closed = 1;
nodes = (
"158 0 LINE",
"264 212 LINE",
"650 212 LINE",
"650 0 LINE",
"1296 0 LINE",
"1296 144 LINE",
"854 144 LINE",
"854 282 LINE",
"1223 282 LINE",
"1223 426 LINE",
"854 426 LINE",
"854 556 LINE",
"1296 556 LINE",
"1296 700 LINE",
"342 700 LINE",
"-8 0 LINE"
);
},
{
closed = 1;
nodes = (
"436 556 LINE",
"650 556 LINE",
"650 356 LINE",
"336 356 LINE"
);
}
);
width = 1327;
}
);
leftKerningGroup = A;
rightKerningGroup = E;
unicode = 00C6;
},
{
glyphname = B;
layers = (
{
layerId = "422CF5D5-EDAF-47A9-A829-F34A9B802C97";
paths = (
{
closed = 1;
nodes = (
"798 556 LINE SMOOTH",
"798 649 OFFCURVE",
"747 700 OFFCURVE",
"654 700 CURVE SMOOTH",
"50 700 LINE",
"50 0 LINE",
"654 0 LINE SMOOTH",
"747 0 OFFCURVE",
"798 51 OFFCURVE",
"798 144 CURVE SMOOTH",
"798 196 LINE SMOOTH",
"798 289 OFFCURVE",
"747 339 OFFCURVE",
"654 339 CURVE",
"654 349 LINE",
"747 349 OFFCURVE",
"798 398 OFFCURVE",
"798 491 CURVE SMOOTH"
);
},
{
closed = 1;
nodes = (
"254 282 LINE",
"564 282 LINE SMOOTH",
"583 282 OFFCURVE",
"594 271 OFFCURVE",
"594 252 CURVE SMOOTH",
"594 174 LINE SMOOTH",
"594 155 OFFCURVE",
"583 144 OFFCURVE",
"564 144 CURVE SMOOTH",
"254 144 LINE"
);
},
{
closed = 1;
nodes = (
"254 556 LINE",
"564 556 LINE SMOOTH",
"583 556 OFFCURVE",
"594 545 OFFCURVE",
"594 526 CURVE SMOOTH",
"594 456 LINE SMOOTH",
"594 437 OFFCURVE",
"583 426 OFFCURVE",
"564 426 CURVE SMOOTH",
"254 426 LINE"
);
}
);
userData = {
com.schriftgestaltung.Glyphs.lastChange = "2020-01-31 17:27:24 +0000";
};
width = 834;
}
);
leftKerningGroup = H;
unicode = 0042;
},
{
glyphname = C;
layers = (
{
layerId = "422CF5D5-EDAF-47A9-A829-F34A9B802C97";
paths = (
{
closed = 1;
nodes = (
"44 51 OFFCURVE",
"95 0 OFFCURVE",
"188 0 CURVE SMOOTH",
"648 0 LINE SMOOTH",
"741 0 OFFCURVE",
"792 51 OFFCURVE",
"792 144 CURVE SMOOTH",
"792 216 LINE",
"588 216 LINE",
"588 174 LINE SMOOTH",
"588 155 OFFCURVE",
"577 144 OFFCURVE",
"558 144 CURVE SMOOTH",
"278 144 LINE SMOOTH",
"259 144 OFFCURVE",
"248 155 OFFCURVE",
"248 174 CURVE SMOOTH",
"248 526 LINE SMOOTH",
"248 545 OFFCURVE",
"259 556 OFFCURVE",
"278 556 CURVE SMOOTH",
"558 556 LINE SMOOTH",
"577 556 OFFCURVE",
"588 545 OFFCURVE",
"588 526 CURVE SMOOTH",
"588 484 LINE",
"792 484 LINE",
"792 556 LINE SMOOTH",
"792 649 OFFCURVE",
"741 700 OFFCURVE",
"648 700 CURVE SMOOTH",
"188 700 LINE SMOOTH",
"95 700 OFFCURVE",
"44 649 OFFCURVE",
"44 556 CURVE SMOOTH",
"44 144 LINE SMOOTH"
);
}
);
width = 819;
}
);
leftKerningGroup = O;
rightKerningGroup = C;
unicode = 0043;
},
{
glyphname = D;
layers = (
{
layerId = "422CF5D5-EDAF-47A9-A829-F34A9B802C97";
paths = (
{
closed = 1;
nodes = (
"654 0 LINE SMOOTH",
"747 0 OFFCURVE",
"798 51 OFFCURVE",
"798 144 CURVE SMOOTH",
"798 556 LINE SMOOTH",
"798 649 OFFCURVE",
"747 700 OFFCURVE",
"654 700 CURVE SMOOTH",
"50 700 LINE",
"50 0 LINE"
);
},
{
closed = 1;
nodes = (
"254 556 LINE",
"564 556 LINE SMOOTH",
"583 556 OFFCURVE",
"594 545 OFFCURVE",
"594 526 CURVE SMOOTH",
"594 174 LINE SMOOTH",
"594 155 OFFCURVE",
"583 144 OFFCURVE",
"564 144 CURVE SMOOTH",
"254 144 LINE"
);
}
);
width = 842;
}
);
leftKerningGroup = H;
rightKerningGroup = O;
unicode = 0044;
},
{
glyphname = Eth;
layers = (
{
components = (
{
name = D;
transform = "{1, 0, 0, 1, 45, 0}";
}
);
layerId = "422CF5D5-EDAF-47A9-A829-F34A9B802C97";
paths = (
{
closed = 1;
nodes = (
"383 299 LINE",
"383 401 LINE",
"11 401 LINE",
"11 299 LINE"
);
}
);
width = 887;
}
);
leftKerningGroup = H;
rightKerningGroup = O;
unicode = 00D0;
},
{
glyphname = E;
layers = (
{
layerId = "422CF5D5-EDAF-47A9-A829-F34A9B802C97";
paths = (
{
closed = 1;
nodes = (
"796 0 LINE",
"796 144 LINE",
"254 144 LINE",
"254 282 LINE",
"723 282 LINE",
"723 426 LINE",
"254 426 LINE",
"254 556 LINE",
"796 556 LINE",
"796 700 LINE",
"50 700 LINE",
"50 0 LINE"
);
}
);
width = 827;
}
);
leftKerningGroup = H;
rightKerningGroup = E;
unicode = 0045;
},
{
glyphname = F;
layers = (
{
layerId = "422CF5D5-EDAF-47A9-A829-F34A9B802C97";
paths = (
{
closed = 1;
nodes = (
"254 0 LINE",
"254 282 LINE",
"723 282 LINE",
"723 426 LINE",
"254 426 LINE",
"254 556 LINE",
"796 556 LINE",
"796 700 LINE",
"50 700 LINE",
"50 0 LINE"
);
}
);
width = 814;
}
);
leftKerningGroup = H;
unicode = 0046;
},
{
glyphname = G;
layers = (
{
layerId = "422CF5D5-EDAF-47A9-A829-F34A9B802C97";
paths = (
{
closed = 1;
nodes = (
"44 51 OFFCURVE",
"95 0 OFFCURVE",
"188 0 CURVE SMOOTH",
"648 0 LINE SMOOTH",
"741 0 OFFCURVE",
"792 51 OFFCURVE",
"792 144 CURVE SMOOTH",
"792 426 LINE",
"366 426 LINE",
"366 282 LINE",
"588 282 LINE",
"588 174 LINE SMOOTH",
"588 155 OFFCURVE",
"577 144 OFFCURVE",
"558 144 CURVE SMOOTH",
"278 144 LINE SMOOTH",
"259 144 OFFCURVE",
"248 155 OFFCURVE",
"248 174 CURVE SMOOTH",
"248 526 LINE SMOOTH",
"248 545 OFFCURVE",
"259 556 OFFCURVE",
"278 556 CURVE SMOOTH",
"558 556 LINE SMOOTH",
"577 556 OFFCURVE",
"588 545 OFFCURVE",
"588 526 CURVE SMOOTH",
"588 472 LINE",
"792 472 LINE",
"792 556 LINE SMOOTH",
"792 649 OFFCURVE",
"741 700 OFFCURVE",
"648 700 CURVE SMOOTH",
"188 700 LINE SMOOTH",
"95 700 OFFCURVE",
"44 649 OFFCURVE",
"44 556 CURVE SMOOTH",
"44 144 LINE SMOOTH"
);
}
);
width = 835;
}
);
leftKerningGroup = O;
rightKerningGroup = G;
unicode = 0047;
},
{
glyphname = H;
layers = (
{
layerId = "422CF5D5-EDAF-47A9-A829-F34A9B802C97";
paths = (
{
closed = 1;
nodes = (
"50 700 LINE",
"50 0 LINE",
"254 0 LINE",
"254 282 LINE",
"592 282 LINE",
"592 0 LINE",
"796 0 LINE",
"796 700 LINE",
"592 700 LINE",
"592 426 LINE",
"254 426 LINE",
"254 700 LINE"
);
}
);
width = 846;
}
);
leftKerningGroup = H;
rightKerningGroup = H;
unicode = 0048;
},
{
glyphname = Hbar;
layers = (
{
layerId = "422CF5D5-EDAF-47A9-A829-F34A9B802C97";
paths = (
{
closed = 1;
nodes = (
"76 498 LINE",
"76 0 LINE",
"280 0 LINE",
"280 282 LINE",
"618 282 LINE",
"618 0 LINE",
"822 0 LINE",
"822 498 LINE",
"890 498 LINE",
"890 600 LINE",
"822 600 LINE",
"822 700 LINE",
"618 700 LINE",
"618 600 LINE",
"280 600 LINE",
"280 700 LINE",
"76 700 LINE",
"76 600 LINE",
"8 600 LINE",
"8 498 LINE"
);
},
{
closed = 1;
nodes = (
"280 498 LINE",
"618 498 LINE",
"618 426 LINE",
"280 426 LINE"
);
}
);
width = 898;
}
);
leftKerningGroup = H;
rightKerningGroup = H;
unicode = 0126;
},
{
glyphname = I;
layers = (
{
layerId = "422CF5D5-EDAF-47A9-A829-F34A9B802C97";
paths = (
{
closed = 1;
nodes = (
"50 700 LINE",
"50 0 LINE",
"254 0 LINE",
"254 700 LINE"
);
}
);
width = 304;
}
);
leftKerningGroup = H;
rightKerningGroup = H;
unicode = 0049;
},
{
glyphname = J;
layers = (
{
layerId = "422CF5D5-EDAF-47A9-A829-F34A9B802C97";
paths = (
{
closed = 1;
nodes = (
"16 51 OFFCURVE",
"67 0 OFFCURVE",
"160 0 CURVE SMOOTH",
"570 0 LINE SMOOTH",
"663 0 OFFCURVE",
"714 51 OFFCURVE",
"714 144 CURVE SMOOTH",
"714 700 LINE",
"510 700 LINE",
"510 174 LINE SMOOTH",
"510 155 OFFCURVE",
"499 144 OFFCURVE",
"480 144 CURVE SMOOTH",
"250 144 LINE SMOOTH",
"231 144 OFFCURVE",
"220 155 OFFCURVE",
"220 174 CURVE SMOOTH",
"220 216 LINE",
"16 216 LINE",
"16 144 LINE SMOOTH"
);
}
);
width = 762;
}
);
unicode = 004A;
},
{
glyphname = K;
layers = (
{
layerId = "422CF5D5-EDAF-47A9-A829-F34A9B802C97";
paths = (
{
closed = 1;
nodes = (
"50 700 LINE",
"50 0 LINE",
"254 0 LINE",
"254 282 LINE",
"392 282 LINE",
"592 0 LINE",
"826 0 LINE",
"576 352 LINE",
"826 700 LINE",
"602 700 LINE",
"402 426 LINE",
"254 426 LINE",
"254 700 LINE"
);
}
);
width = 820;
}
);
leftKerningGroup = H;
rightKerningGroup = K;
unicode = 004B;
},
{
glyphname = L;
layers = (
{
layerId = "422CF5D5-EDAF-47A9-A829-F34A9B802C97";
paths = (
{
closed = 1;
nodes = (
"696 0 LINE",
"696 144 LINE",
"254 144 LINE",
"254 700 LINE",
"50 700 LINE",
"50 0 LINE"
);
}
);
width = 711;
}
);
leftKerningGroup = H;
rightKerningGroup = L;
unicode = 004C;
},
{
glyphname = Lslash;
layers = (
{
layerId = "422CF5D5-EDAF-47A9-A829-F34A9B802C97";
paths = (
{
closed = 1;
nodes = (
"92 277 LINE",
"92 0 LINE",
"738 0 LINE",
"738 144 LINE",
"296 144 LINE",
"296 350 LINE",
"434 399 LINE",
"434 501 LINE",
"296 452 LINE",
"296 700 LINE",
"92 700 LINE",
"92 379 LINE",
"12 351 LINE",
"12 249 LINE"
);
}
);
width = 753;
}
);
rightKerningGroup = L;
unicode = 0141;
},
{
glyphname = M;
layers = (
{
layerId = "422CF5D5-EDAF-47A9-A829-F34A9B802C97";
paths = (
{
closed = 1;
nodes = (
"298 700 LINE",
"50 700 LINE",
"50 0 LINE",
"206 0 LINE",
"206 476 LINE",
"444 0 LINE",
"588 0 LINE",
"814 476 LINE",
"814 0 LINE",
"1018 0 LINE",
"1018 700 LINE",
"762 700 LINE",
"463 103 LINE",
"579 138 LINE"
);
}
);
width = 1068;
}
);
leftKerningGroup = H;
rightKerningGroup = H;
unicode = 004D;
},
{
glyphname = N;
layers = (
{
layerId = "422CF5D5-EDAF-47A9-A829-F34A9B802C97";
paths = (
{
closed = 1;
nodes = (
"206 0 LINE",
"206 514 LINE",
"543 0 LINE",
"821 0 LINE",
"821 700 LINE",
"665 700 LINE",
"665 186 LINE",
"328 700 LINE",
"50 700 LINE",
"50 0 LINE"
);
}
);
width = 871;
}
);
leftKerningGroup = H;
rightKerningGroup = H;
unicode = 004E;
},
{
glyphname = Eng;
layers = (
{
layerId = "422CF5D5-EDAF-47A9-A829-F34A9B802C97";
paths = (
{
closed = 1;
nodes = (
"206 0 LINE",
"206 514 LINE",
"606 -96 LINE",
"307 -96 LINE",
"307 -240 LINE",
"677 -240 LINE SMOOTH",
"770 -240 OFFCURVE",
"821 -189 OFFCURVE",
"821 -96 CURVE",
"821 700 LINE",
"665 700 LINE",
"665 186 LINE",
"328 700 LINE",
"50 700 LINE",
"50 0 LINE"
);
}
);
width = 871;
}
);
leftKerningGroup = H;
rightKerningGroup = H;
unicode = 014A;
},
{
glyphname = O;
layers = (
{
layerId = "422CF5D5-EDAF-47A9-A829-F34A9B802C97";
paths = (
{
closed = 1;
nodes = (
"44 51 OFFCURVE",
"95 0 OFFCURVE",
"188 0 CURVE SMOOTH",
"648 0 LINE SMOOTH",
"741 0 OFFCURVE",
"792 51 OFFCURVE",
"792 144 CURVE SMOOTH",
"792 556 LINE SMOOTH",
"792 649 OFFCURVE",
"741 700 OFFCURVE",
"648 700 CURVE SMOOTH",
"188 700 LINE SMOOTH",
"95 700 OFFCURVE",
"44 649 OFFCURVE",
"44 556 CURVE SMOOTH",
"44 144 LINE SMOOTH"
);
},
{
closed = 1;
nodes = (
"248 526 LINE SMOOTH",
"248 545 OFFCURVE",
"259 556 OFFCURVE",
"278 556 CURVE SMOOTH",
"558 556 LINE SMOOTH",
"577 556 OFFCURVE",
"588 545 OFFCURVE",
"588 526 CURVE SMOOTH",
"588 174 LINE SMOOTH",
"588 155 OFFCURVE",
"577 144 OFFCURVE",
"558 144 CURVE SMOOTH",
"278 144 LINE SMOOTH",
"259 144 OFFCURVE",
"248 155 OFFCURVE",
"248 174 CURVE SMOOTH"
);
}
);
width = 836;
}
);
leftKerningGroup = O;
rightKerningGroup = O;
unicode = 004F;
},
{
glyphname = Oslash;
layers = (
{
layerId = "422CF5D5-EDAF-47A9-A829-F34A9B802C97";
paths = (
{
closed = 1;
nodes = (
"51 51 OFFCURVE",
"102 0 OFFCURVE",
"195 0 CURVE SMOOTH",
"656 0 LINE SMOOTH",
"749 0 OFFCURVE",
"800 51 OFFCURVE",
"800 144 CURVE SMOOTH",
"800 556 LINE SMOOTH",
"800 649 OFFCURVE",
"749 700 OFFCURVE",
"656 700 CURVE SMOOTH",
"195 700 LINE SMOOTH",
"102 700 OFFCURVE",
"51 649 OFFCURVE",
"51 556 CURVE SMOOTH",
"51 144 LINE SMOOTH"
);
},
{
closed = 1;
nodes = (
"255 526 LINE SMOOTH",
"255 545 OFFCURVE",
"266 556 OFFCURVE",
"285 556 CURVE SMOOTH",
"566 556 LINE SMOOTH",
"585 556 OFFCURVE",
"596 545 OFFCURVE",
"596 526 CURVE SMOOTH",
"596 174 LINE SMOOTH",
"596 155 OFFCURVE",
"585 144 OFFCURVE",
"566 144 CURVE SMOOTH",
"285 144 LINE SMOOTH",
"266 144 OFFCURVE",
"255 155 OFFCURVE",
"255 174 CURVE SMOOTH"
);
},
{
closed = 1;
nodes = (
"759 785 LINE",
"-9 17 LINE",
"92 -85 LINE",
"860 683 LINE"
);
}
);
width = 851;
}
);
leftKerningGroup = O;
rightKerningGroup = O;
unicode = 00D8;
},
{
glyphname = P;
layers = (
{
layerId = "422CF5D5-EDAF-47A9-A829-F34A9B802C97";
paths = (
{
closed = 1;
nodes = (
"254 556 LINE",
"564 556 LINE SMOOTH",
"583 556 OFFCURVE",
"594 545 OFFCURVE",
"594 526 CURVE SMOOTH",
"594 456 LINE SMOOTH",
"594 437 OFFCURVE",
"583 426 OFFCURVE",
"564 426 CURVE SMOOTH",
"254 426 LINE"
);
},
{
closed = 1;
nodes = (
"254 0 LINE",
"254 282 LINE",
"654 282 LINE SMOOTH",
"747 282 OFFCURVE",
"798 333 OFFCURVE",
"798 426 CURVE SMOOTH",
"798 556 LINE SMOOTH",
"798 649 OFFCURVE",
"747 700 OFFCURVE",
"654 700 CURVE SMOOTH",
"50 700 LINE",
"50 0 LINE"
);
}
);
width = 826;
}
);
leftKerningGroup = H;
unicode = 0050;
},
{
glyphname = Thorn;
layers = (
{
layerId = "422CF5D5-EDAF-47A9-A829-F34A9B802C97";
paths = (
{
closed = 1;
nodes = (
"254 0 LINE",
"254 141 LINE",
"654 141 LINE SMOOTH",
"747 141 OFFCURVE",
"798 192 OFFCURVE",
"798 285 CURVE SMOOTH",
"798 415 LINE SMOOTH",
"798 508 OFFCURVE",
"747 559 OFFCURVE",
"654 559 CURVE SMOOTH",
"254 559 LINE",
"254 700 LINE",
"50 700 LINE",
"50 0 LINE"
);
},
{
closed = 1;
nodes = (
"254 415 LINE",
"564 415 LINE SMOOTH",
"583 415 OFFCURVE",
"594 404 OFFCURVE",
"594 385 CURVE SMOOTH",
"594 315 LINE SMOOTH",
"594 296 OFFCURVE",
"583 285 OFFCURVE",
"564 285 CURVE SMOOTH",
"254 285 LINE"
);
}
);
width = 830;
}
);
leftKerningGroup = H;
unicode = 00DE;
},
{
glyphname = Q;
layers = (
{
layerId = "422CF5D5-EDAF-47A9-A829-F34A9B802C97";
paths = (
{
closed = 1;
nodes = (
"44 51 OFFCURVE",
"95 0 OFFCURVE",
"188 0 CURVE SMOOTH",
"316 0 LINE",
"316 -96 LINE SMOOTH",
"316 -189 OFFCURVE",
"367 -240 OFFCURVE",
"460 -240 CURVE SMOOTH",
"748 -240 LINE",
"748 -96 LINE",
"550 -96 LINE SMOOTH",
"531 -96 OFFCURVE",
"520 -85 OFFCURVE",
"520 -66 CURVE SMOOTH",
"520 0 LINE",
"648 0 LINE SMOOTH",
"741 0 OFFCURVE",
"792 51 OFFCURVE",
"792 144 CURVE SMOOTH",
"792 556 LINE SMOOTH",
"792 649 OFFCURVE",
"741 700 OFFCURVE",
"648 700 CURVE SMOOTH",
"188 700 LINE SMOOTH",
"95 700 OFFCURVE",
"44 649 OFFCURVE",
"44 556 CURVE SMOOTH",
"44 144 LINE SMOOTH"
);
},
{
closed = 1;
nodes = (
"248 526 LINE SMOOTH",
"248 545 OFFCURVE",
"259 556 OFFCURVE",
"278 556 CURVE SMOOTH",
"558 556 LINE SMOOTH",
"577 556 OFFCURVE",
"588 545 OFFCURVE",
"588 526 CURVE SMOOTH",
"588 174 LINE SMOOTH",
"588 155 OFFCURVE",
"577 144 OFFCURVE",
"558 144 CURVE SMOOTH",
"278 144 LINE SMOOTH",
"259 144 OFFCURVE",
"248 155 OFFCURVE",
"248 174 CURVE SMOOTH"
);
}
);
width = 836;
}
);
leftKerningGroup = O;
rightKerningGroup = O;
unicode = 0051;
},
{
glyphname = R;
layers = (
{
layerId = "422CF5D5-EDAF-47A9-A829-F34A9B802C97";
paths = (
{
closed = 1;
nodes = (
"254 556 LINE",
"564 556 LINE SMOOTH",
"583 556 OFFCURVE",
"594 545 OFFCURVE",
"594 526 CURVE SMOOTH",
"594 456 LINE SMOOTH",
"594 437 OFFCURVE",
"583 426 OFFCURVE",
"564 426 CURVE SMOOTH",
"254 426 LINE"
);
},
{
closed = 1;
nodes = (
"254 0 LINE",
"254 282 LINE",
"564 282 LINE SMOOTH",
"583 282 OFFCURVE",
"594 271 OFFCURVE",
"594 252 CURVE SMOOTH",
"594 0 LINE",
"798 0 LINE",
"798 196 LINE SMOOTH",
"798 289 OFFCURVE",
"747 339 OFFCURVE",
"654 339 CURVE",
"654 349 LINE",
"747 349 OFFCURVE",
"798 398 OFFCURVE",
"798 491 CURVE SMOOTH",
"798 556 LINE SMOOTH",
"798 649 OFFCURVE",
"747 700 OFFCURVE",
"654 700 CURVE SMOOTH",
"50 700 LINE",
"50 0 LINE"
);
}
);
userData = {
com.schriftgestaltung.Glyphs.lastChange = "2020-02-02 16:58:32 +0000";
};
width = 837;
}
);
leftKerningGroup = H;
rightKerningGroup = R;
unicode = 0052;
},
{
glyphname = S;
layers = (
{
layerId = "422CF5D5-EDAF-47A9-A829-F34A9B802C97";
paths = (
{
closed = 1;
nodes = (
"38 51 OFFCURVE",
"89 0 OFFCURVE",
"182 0 CURVE SMOOTH",
"642 0 LINE SMOOTH",
"735 0 OFFCURVE",
"786 51 OFFCURVE",
"786 144 CURVE SMOOTH",
"786 282 LINE SMOOTH",
"786 375 OFFCURVE",
"735 426 OFFCURVE",
"642 426 CURVE SMOOTH",
"272 426 LINE SMOOTH",
"253 426 OFFCURVE",
"242 437 OFFCURVE",
"242 456 CURVE SMOOTH",
"242 526 LINE SMOOTH",
"242 545 OFFCURVE",
"253 556 OFFCURVE",
"272 556 CURVE SMOOTH",
"552 556 LINE SMOOTH",
"571 556 OFFCURVE",
"582 545 OFFCURVE",
"582 526 CURVE SMOOTH",
"582 484 LINE",
"786 484 LINE",
"786 556 LINE SMOOTH",
"786 649 OFFCURVE",
"735 700 OFFCURVE",
"642 700 CURVE SMOOTH",
"182 700 LINE SMOOTH",
"89 700 OFFCURVE",
"38 649 OFFCURVE",
"38 556 CURVE SMOOTH",
"38 426 LINE SMOOTH",
"38 333 OFFCURVE",
"89 282 OFFCURVE",
"182 282 CURVE SMOOTH",
"552 282 LINE SMOOTH",
"571 282 OFFCURVE",
"582 271 OFFCURVE",
"582 252 CURVE SMOOTH",
"582 174 LINE SMOOTH",
"582 155 OFFCURVE",
"571 144 OFFCURVE",
"552 144 CURVE SMOOTH",
"272 144 LINE SMOOTH",
"253 144 OFFCURVE",
"242 155 OFFCURVE",
"242 174 CURVE SMOOTH",
"242 216 LINE",
"38 216 LINE",
"38 144 LINE SMOOTH"
);
}
);
width = 824;
}
);
leftKerningGroup = S;
rightKerningGroup = S;
unicode = 0053;
},
{
glyphname = uni1E9E;
layers = (
{
layerId = "422CF5D5-EDAF-47A9-A829-F34A9B802C97";
paths = (
{
closed = 1;
nodes = (
"38 51 OFFCURVE",
"89 0 OFFCURVE",
"182 0 CURVE SMOOTH",
"1474 0 LINE SMOOTH",
"1567 0 OFFCURVE",
"1618 51 OFFCURVE",
"1618 144 CURVE SMOOTH",
"1618 282 LINE SMOOTH",
"1618 375 OFFCURVE",
"1567 426 OFFCURVE",
"1474 426 CURVE SMOOTH",
"1104 426 LINE SMOOTH",
"1085 426 OFFCURVE",
"1074 437 OFFCURVE",
"1074 456 CURVE SMOOTH",
"1074 526 LINE SMOOTH",
"1074 545 OFFCURVE",
"1085 556 OFFCURVE",
"1104 556 CURVE SMOOTH",
"1384 556 LINE SMOOTH",
"1403 556 OFFCURVE",
"1414 545 OFFCURVE",
"1414 526 CURVE SMOOTH",
"1414 484 LINE",
"1618 484 LINE",
"1618 556 LINE SMOOTH",
"1618 649 OFFCURVE",
"1567 700 OFFCURVE",
"1474 700 CURVE SMOOTH",
"182 700 LINE SMOOTH",
"89 700 OFFCURVE",
"38 649 OFFCURVE",
"38 556 CURVE SMOOTH",
"38 426 LINE SMOOTH",
"38 333 OFFCURVE",
"89 282 OFFCURVE",
"182 282 CURVE SMOOTH",
"552 282 LINE SMOOTH",
"571 282 OFFCURVE",
"582 271 OFFCURVE",
"582 252 CURVE SMOOTH",
"582 174 LINE SMOOTH",
"582 155 OFFCURVE",
"571 144 OFFCURVE",
"552 144 CURVE SMOOTH",
"272 144 LINE SMOOTH",
"253 144 OFFCURVE",
"242 155 OFFCURVE",
"242 174 CURVE SMOOTH",
"242 216 LINE",
"38 216 LINE",
"38 144 LINE SMOOTH"
);
},
{
closed = 1;
nodes = (
"242 526 LINE SMOOTH",
"242 545 OFFCURVE",
"253 556 OFFCURVE",
"272 556 CURVE SMOOTH",
"870 556 LINE",
"870 426 LINE SMOOTH",
"870 333 OFFCURVE",
"921 282 OFFCURVE",
"1014 282 CURVE SMOOTH",
"1384 282 LINE SMOOTH",
"1403 282 OFFCURVE",
"1414 271 OFFCURVE",
"1414 252 CURVE SMOOTH",
"1414 174 LINE SMOOTH",
"1414 155 OFFCURVE",
"1403 144 OFFCURVE",
"1384 144 CURVE SMOOTH",
"786 144 LINE",
"786 282 LINE SMOOTH",
"786 375 OFFCURVE",
"735 426 OFFCURVE",
"642 426 CURVE SMOOTH",
"272 426 LINE SMOOTH",
"253 426 OFFCURVE",
"242 437 OFFCURVE",
"242 456 CURVE SMOOTH"
);
}
);
width = 1656;
}
);
leftKerningGroup = S;
rightKerningGroup = S;
unicode = 1E9E;
},
{
glyphname = T;
layers = (
{
layerId = "422CF5D5-EDAF-47A9-A829-F34A9B802C97";
paths = (
{
closed = 1;
nodes = (
"286 556 LINE",
"286 0 LINE",
"490 0 LINE",
"490 556 LINE",
"761 556 LINE",
"761 700 LINE",
"15 700 LINE",
"15 556 LINE"
);
}
);
width = 776;
}
);
leftKerningGroup = T;
rightKerningGroup = T;
unicode = 0054;
},
{
glyphname = Tbar;
layers = (
{
layerId = "422CF5D5-EDAF-47A9-A829-F34A9B802C97";
paths = (
{
closed = 1;
nodes = (
"286 556 LINE",
"286 372 LINE",
"152 372 LINE",
"152 270 LINE",
"286 270 LINE",
"286 0 LINE",
"490 0 LINE",
"490 270 LINE",
"624 270 LINE",
"624 372 LINE",
"490 372 LINE",
"490 556 LINE",
"761 556 LINE",
"761 700 LINE",
"15 700 LINE",
"15 556 LINE"
);
}
);
width = 776;
}
);
leftKerningGroup = T;
rightKerningGroup = T;
unicode = 0166;
},
{
glyphname = U;
layers = (
{
layerId = "422CF5D5-EDAF-47A9-A829-F34A9B802C97";
paths = (
{
closed = 1;
nodes = (
"592 700 LINE",
"592 174 LINE SMOOTH",
"592 155 OFFCURVE",
"581 144 OFFCURVE",
"562 144 CURVE SMOOTH",
"282 144 LINE SMOOTH",
"263 144 OFFCURVE",
"252 155 OFFCURVE",
"252 174 CURVE SMOOTH",
"252 700 LINE",
"48 700 LINE",
"48 144 LINE SMOOTH",
"48 51 OFFCURVE",
"99 0 OFFCURVE",
"192 0 CURVE SMOOTH",
"652 0 LINE SMOOTH",
"745 0 OFFCURVE",
"796 51 OFFCURVE",
"796 144 CURVE SMOOTH",
"796 700 LINE"
);
}
);
width = 844;
}
);
leftKerningGroup = U;
rightKerningGroup = U;
unicode = 0055;
},
{
glyphname = V;
layers = (
{
layerId = "422CF5D5-EDAF-47A9-A829-F34A9B802C97";
paths = (
{
closed = 1;
nodes = (
"211 700 LINE",
"-8 700 LINE",
"342 0 LINE",
"523 0 LINE",
"873 700 LINE",
"707 700 LINE",
"459 204 LINE"
);
}
);
width = 865;
}
);
unicode = 0056;
},
{
glyphname = W;
layers = (
{
layerId = "422CF5D5-EDAF-47A9-A829-F34A9B802C97";
paths = (
{
closed = 1;
nodes = (
"202 700 LINE",
"-7 700 LINE",
"243 0 LINE",
"424 0 LINE",
"674 700 LINE",
"513 700 LINE",
"298 70 LINE",
"403 97 LINE"
);
},
{
closed = 1;
nodes = (
"722 700 LINE",
"513 700 LINE",
"763 0 LINE",
"944 0 LINE",
"1194 700 LINE",
"1033 700 LINE",
"818 70 LINE",
"923 97 LINE"
);
}
);
width = 1187;
}
);
leftKerningGroup = W;
rightKerningGroup = W;
unicode = 0057;
},
{
glyphname = X;
layers = (
{
layerId = "422CF5D5-EDAF-47A9-A829-F34A9B802C97";
paths = (
{
closed = 1;
nodes = (
"251 700 LINE",
"-8 700 LINE",
"389 273 LINE",
"389 403 LINE",
"-8 0 LINE",
"201 0 LINE",
"581 385 LINE",
"591 333 LINE"
);
},
{
closed = 1;
nodes = (
"657 0 LINE",
"916 0 LINE",
"519 427 LINE",
"519 297 LINE",
"916 700 LINE",
"707 700 LINE",
"327 315 LINE",
"317 367 LINE"
);
}
);
width = 908;
}
);
unicode = 0058;
},
{
glyphname = Y;
layers = (
{
layerId = "422CF5D5-EDAF-47A9-A829-F34A9B802C97";
paths = (
{
closed = 1;
nodes = (
"340 340 LINE",
"340 0 LINE",
"544 0 LINE",
"544 340 LINE",
"918 700 LINE",
"709 700 LINE",
"474 462 LINE",
"253 700 LINE",
"-6 700 LINE"
);
}
);
width = 901;
}
);
leftKerningGroup = Y;
rightKerningGroup = Y;
unicode = 0059;
},
{
glyphname = Z;
layers = (
{
layerId = "422CF5D5-EDAF-47A9-A829-F34A9B802C97";
paths = (
{
closed = 1;
nodes = (
"773 144 LINE",
"319 144 LINE",
"773 556 LINE",
"773 700 LINE",
"25 700 LINE",
"25 556 LINE",
"479 556 LINE",
"25 144 LINE",
"25 0 LINE",
"773 0 LINE"
);
}
);
width = 798;
}
);
leftKerningGroup = Z;
rightKerningGroup = Z;
unicode = 005A;
},
{
glyphname = Y.ss02;
layers = (
{
layerId = "422CF5D5-EDAF-47A9-A829-F34A9B802C97";
paths = (
{
closed = 1;
nodes = (
"33 333 OFFCURVE",
"84 282 OFFCURVE",
"177 282 CURVE SMOOTH",
"305 282 LINE",
"305 0 LINE",
"509 0 LINE",
"509 282 LINE",
"637 282 LINE SMOOTH",
"730 282 OFFCURVE",
"781 333 OFFCURVE",
"781 426 CURVE SMOOTH",
"781 700 LINE",
"577 700 LINE",
"577 456 LINE SMOOTH",
"577 437 OFFCURVE",
"566 426 OFFCURVE",
"547 426 CURVE SMOOTH",
"267 426 LINE SMOOTH",
"248 426 OFFCURVE",
"237 437 OFFCURVE",
"237 456 CURVE SMOOTH",
"237 700 LINE",
"33 700 LINE",
"33 426 LINE SMOOTH"
);
}
);
width = 814;
}
);
leftKerningGroup = Y.ss02;
rightKerningGroup = Y.ss02;
},
{
glyphname = a;
layers = (
{
layerId = "422CF5D5-EDAF-47A9-A829-F34A9B802C97";
paths = (
{
closed = 1;
nodes = (
"34 45 OFFCURVE",
"79 0 OFFCURVE",
"161 0 CURVE SMOOTH",
"682 0 LINE",
"682 473 LINE SMOOTH",
"682 555 OFFCURVE",
"637 600 OFFCURVE",
"555 600 CURVE SMOOTH",
"161 600 LINE SMOOTH",
"79 600 OFFCURVE",
"34 555 OFFCURVE",
"34 473 CURVE SMOOTH",
"34 414 LINE",
"226 414 LINE",
"226 444 LINE SMOOTH",
"226 463 OFFCURVE",
"237 474 OFFCURVE",
"256 474 CURVE SMOOTH",
"460 474 LINE SMOOTH",
"479 474 OFFCURVE",
"490 463 OFFCURVE",
"490 444 CURVE SMOOTH",
"490 364 LINE",
"161 364 LINE SMOOTH",
"79 364 OFFCURVE",
"34 319 OFFCURVE",
"34 238 CURVE SMOOTH",
"34 127 LINE SMOOTH"
);
},
{
closed = 1;
nodes = (
"226 208 LINE SMOOTH",
"226 227 OFFCURVE",
"237 238 OFFCURVE",
"256 238 CURVE SMOOTH",
"490 238 LINE",
"490 126 LINE",
"256 126 LINE SMOOTH",
"237 126 OFFCURVE",
"226 137 OFFCURVE",
"226 156 CURVE SMOOTH"
);
}
);
width = 726;
}
);
leftKerningGroup = a;
rightKerningGroup = a;
unicode = 0061;
},
{
glyphname = ae;
layers = (
{
layerId = "422CF5D5-EDAF-47A9-A829-F34A9B802C97";
paths = (
{
closed = 1;
nodes = (
"34 45 OFFCURVE",
"79 0 OFFCURVE",
"161 0 CURVE SMOOTH",
"1011 0 LINE SMOOTH",
"1093 0 OFFCURVE",
"1138 45 OFFCURVE",
"1138 127 CURVE SMOOTH",
"1138 186 LINE",
"946 186 LINE",
"946 156 LINE SMOOTH",
"946 137 OFFCURVE",
"935 126 OFFCURVE",
"916 126 CURVE SMOOTH",
"712 126 LINE SMOOTH",
"693 126 OFFCURVE",
"682 137 OFFCURVE",
"682 156 CURVE SMOOTH",
"682 236 LINE",
"1138 236 LINE",
"1138 473 LINE SMOOTH",
"1138 555 OFFCURVE",
"1093 600 OFFCURVE",
"1011 600 CURVE SMOOTH",
"161 600 LINE SMOOTH",
"79 600 OFFCURVE",
"34 555 OFFCURVE",
"34 473 CURVE SMOOTH",
"34 414 LINE",
"226 414 LINE",
"226 444 LINE SMOOTH",
"226 463 OFFCURVE",
"237 474 OFFCURVE",
"256 474 CURVE SMOOTH",
"460 474 LINE SMOOTH",
"479 474 OFFCURVE",
"490 463 OFFCURVE",
"490 444 CURVE SMOOTH",
"490 364 LINE",
"161 364 LINE SMOOTH",
"79 364 OFFCURVE",
"34 319 OFFCURVE",
"34 238 CURVE SMOOTH",
"34 127 LINE SMOOTH"
);
},
{
closed = 1;
nodes = (
"226 208 LINE SMOOTH",
"226 227 OFFCURVE",
"237 238 OFFCURVE",
"256 238 CURVE SMOOTH",
"490 238 LINE",
"490 126 LINE",
"256 126 LINE SMOOTH",
"237 126 OFFCURVE",
"226 137 OFFCURVE",
"226 156 CURVE SMOOTH"
);
},
{
closed = 1;
nodes = (
"682 444 LINE SMOOTH",
"682 463 OFFCURVE",
"693 474 OFFCURVE",
"712 474 CURVE SMOOTH",
"916 474 LINE SMOOTH",
"935 474 OFFCURVE",
"946 463 OFFCURVE",
"946 444 CURVE SMOOTH",
"946 362 LINE",
"682 362 LINE"
);
}
);
width = 1176;
}
);
leftKerningGroup = a;
rightKerningGroup = e;
unicode = 00E6;
},
{
glyphname = b;
layers = (
{
layerId = "422CF5D5-EDAF-47A9-A829-F34A9B802C97";
paths = (
{
closed = 1;
nodes = (
"538 0 LINE SMOOTH",
"631 0 OFFCURVE",
"682 51 OFFCURVE",
"682 144 CURVE SMOOTH",
"682 456 LINE SMOOTH",
"682 549 OFFCURVE",
"631 600 OFFCURVE",
"538 600 CURVE SMOOTH",
"238 600 LINE",
"238 800 LINE",
"46 800 LINE",
"46 0 LINE"
);
},
{
closed = 1;
nodes = (
"238 474 LINE",
"459 474 LINE SMOOTH",
"478 474 OFFCURVE",
"489 463 OFFCURVE",
"489 444 CURVE SMOOTH",
"489 156 LINE SMOOTH",
"489 137 OFFCURVE",
"478 126 OFFCURVE",
"459 126 CURVE SMOOTH",
"238 126 LINE"
);
}
);
width = 721;
}
);
leftKerningGroup = h;
rightKerningGroup = o;
unicode = 0062;
},
{
glyphname = c;
layers = (
{
layerId = "422CF5D5-EDAF-47A9-A829-F34A9B802C97";
paths = (
{
closed = 1;
nodes = (
"40 45 OFFCURVE",
"85 0 OFFCURVE",
"167 0 CURVE SMOOTH",
"561 0 LINE SMOOTH",
"643 0 OFFCURVE",
"688 45 OFFCURVE",
"688 127 CURVE SMOOTH",
"688 186 LINE",
"496 186 LINE",
"496 156 LINE SMOOTH",
"496 137 OFFCURVE",
"485 126 OFFCURVE",
"466 126 CURVE SMOOTH",
"262 126 LINE SMOOTH",
"243 126 OFFCURVE",
"232 137 OFFCURVE",
"232 156 CURVE SMOOTH",
"232 444 LINE SMOOTH",
"232 463 OFFCURVE",
"243 474 OFFCURVE",
"262 474 CURVE SMOOTH",
"466 474 LINE SMOOTH",
"485 474 OFFCURVE",
"496 463 OFFCURVE",
"496 444 CURVE SMOOTH",
"496 414 LINE",
"688 414 LINE",
"688 473 LINE SMOOTH",
"688 555 OFFCURVE",
"643 600 OFFCURVE",
"561 600 CURVE SMOOTH",
"167 600 LINE SMOOTH",
"85 600 OFFCURVE",
"40 555 OFFCURVE",
"40 473 CURVE SMOOTH",
"40 127 LINE SMOOTH"
);
}
);
userData = {
com.schriftgestaltung.Glyphs.lastChange = "2019-11-25 02:56:02 +0000";
};
width = 712;
}
);
leftKerningGroup = o;
rightKerningGroup = c;
unicode = 0063;
},
{
glyphname = d;
layers = (
{
layerId = "422CF5D5-EDAF-47A9-A829-F34A9B802C97";
paths = (
{
closed = 1;
nodes = (
"675 800 LINE",
"483 800 LINE",
"483 600 LINE",
"183 600 LINE SMOOTH",
"90 600 OFFCURVE",
"39 549 OFFCURVE",
"39 456 CURVE SMOOTH",
"39 144 LINE SMOOTH",
"39 51 OFFCURVE",
"90 0 OFFCURVE",
"183 0 CURVE SMOOTH",
"675 0 LINE"
);
},
{
closed = 1;
nodes = (
"262 126 LINE SMOOTH",
"243 126 OFFCURVE",
"232 137 OFFCURVE",
"232 156 CURVE SMOOTH",
"232 444 LINE SMOOTH",
"232 463 OFFCURVE",
"243 474 OFFCURVE",
"262 474 CURVE SMOOTH",
"483 474 LINE",
"483 126 LINE"
);
}
);
width = 721;
}
);
leftKerningGroup = o;
rightKerningGroup = d;
unicode = 0064;
},
{
glyphname = eth;
layers = (
{
layerId = "422CF5D5-EDAF-47A9-A829-F34A9B802C97";
paths = (
{
closed = 1;
nodes = (
"675 800 LINE",
"483 800 LINE",
"483 600 LINE",
"183 600 LINE SMOOTH",
"90 600 OFFCURVE",
"39 549 OFFCURVE",
"39 456 CURVE SMOOTH",
"39 144 LINE SMOOTH",
"39 51 OFFCURVE",
"90 0 OFFCURVE",
"183 0 CURVE SMOOTH",
"531 0 LINE SMOOTH",
"624 0 OFFCURVE",
"675 51 OFFCURVE",
"675 144 CURVE SMOOTH"
);
},
{
closed = 1;
nodes = (
"262 126 LINE SMOOTH",
"243 126 OFFCURVE",
"232 137 OFFCURVE",
"232 156 CURVE SMOOTH",
"232 444 LINE SMOOTH",
"232 463 OFFCURVE",
"243 474 OFFCURVE",
"262 474 CURVE SMOOTH",
"483 474 LINE",
"483 156 LINE SMOOTH",
"483 137 OFFCURVE",
"472 126 OFFCURVE",
"453 126 CURVE SMOOTH"
);
},
{
closed = 1;
nodes = (
"747 679 LINE",
"747 781 LINE",
"375 731 LINE",
"375 629 LINE"
);
}
);
width = 719;
}
);
leftKerningGroup = o;
unicode = 00F0;
},
{
glyphname = dcroat;
layers = (
{
layerId = "422CF5D5-EDAF-47A9-A829-F34A9B802C97";
paths = (
{
closed = 1;
nodes = (
"39 51 OFFCURVE",
"90 0 OFFCURVE",
"183 0 CURVE SMOOTH",
"675 0 LINE",
"675 649 LINE",
"747 649 LINE",
"747 751 LINE",
"675 751 LINE",
"675 800 LINE",
"483 800 LINE",
"483 751 LINE",
"375 751 LINE",
"375 649 LINE",
"483 649 LINE",
"483 600 LINE",
"183 600 LINE SMOOTH",
"90 600 OFFCURVE",
"39 549 OFFCURVE",
"39 456 CURVE SMOOTH",
"39 144 LINE SMOOTH"
);
},
{
closed = 1;
nodes = (
"232 444 LINE SMOOTH",
"232 463 OFFCURVE",
"243 474 OFFCURVE",
"262 474 CURVE SMOOTH",
"483 474 LINE",
"483 126 LINE",
"262 126 LINE SMOOTH",
"243 126 OFFCURVE",
"232 137 OFFCURVE",
"232 156 CURVE SMOOTH"
);
}
);
userData = {
com.schriftgestaltung.Glyphs.lastChange = "2019-12-04 15:10:17 +0000";
};
width = 721;
}
);
leftKerningGroup = o;
rightKerningGroup = d;
unicode = 0111;
},
{
glyphname = e;
layers = (
{
layerId = "422CF5D5-EDAF-47A9-A829-F34A9B802C97";
paths = (
{
closed = 1;
nodes = (
"688 555 OFFCURVE",
"643 600 OFFCURVE",
"561 600 CURVE SMOOTH",
"184 600 LINE SMOOTH",
"91 600 OFFCURVE",
"40 549 OFFCURVE",
"40 456 CURVE SMOOTH",
"40 127 LINE SMOOTH",
"40 45 OFFCURVE",
"85 0 OFFCURVE",
"167 0 CURVE SMOOTH",
"561 0 LINE SMOOTH",
"643 0 OFFCURVE",
"688 45 OFFCURVE",
"688 127 CURVE SMOOTH",
"688 186 LINE",
"496 186 LINE",
"496 156 LINE SMOOTH",
"496 137 OFFCURVE",
"485 126 OFFCURVE",
"466 126 CURVE SMOOTH",
"262 126 LINE SMOOTH",
"243 126 OFFCURVE",
"232 137 OFFCURVE",
"232 156 CURVE SMOOTH",
"232 236 LINE",
"688 236 LINE",
"688 473 LINE SMOOTH"
);
},
{
closed = 1;
nodes = (
"496 362 LINE",
"232 362 LINE",
"232 444 LINE SMOOTH",
"232 463 OFFCURVE",
"243 474 OFFCURVE",
"262 474 CURVE SMOOTH",
"466 474 LINE SMOOTH",
"485 474 OFFCURVE",
"496 463 OFFCURVE",
"496 444 CURVE SMOOTH"
);
}
);
width = 726;
}
);
leftKerningGroup = o;
rightKerningGroup = e;
unicode = 0065;
},
{
glyphname = f;
layers = (
{
layerId = "422CF5D5-EDAF-47A9-A829-F34A9B802C97";
paths = (
{
closed = 1;
nodes = (
"156 474 LINE",
"156 0 LINE",
"348 0 LINE",
"348 474 LINE",
"617 474 LINE",
"617 600 LINE",
"348 600 LINE",
"348 644 LINE SMOOTH",
"348 663 OFFCURVE",
"359 674 OFFCURVE",
"378 674 CURVE SMOOTH",
"582 674 LINE SMOOTH",
"601 674 OFFCURVE",
"612 663 OFFCURVE",
"612 644 CURVE SMOOTH",
"612 614 LINE",
"804 614 LINE",
"804 673 LINE SMOOTH",
"804 755 OFFCURVE",
"759 800 OFFCURVE",
"677 800 CURVE SMOOTH",
"283 800 LINE SMOOTH",
"201 800 OFFCURVE",
"156 755 OFFCURVE",
"156 673 CURVE SMOOTH",
"156 600 LINE",
"12 600 LINE",
"12 474 LINE"
);
}
);
userData = {
com.schriftgestaltung.Glyphs.lastChange = "2019-11-25 09:29:05 +0000";
};
width = 693;
}
);
unicode = 0066;
},
{
glyphname = g;
layers = (
{
layerId = "422CF5D5-EDAF-47A9-A829-F34A9B802C97";
paths = (
{
closed = 1;
nodes = (
"40 126 LINE SMOOTH",
"40 45 OFFCURVE",
"85 0 OFFCURVE",
"167 0 CURVE SMOOTH",
"496 0 LINE",
"496 -84 LINE SMOOTH",
"496 -103 OFFCURVE",
"485 -114 OFFCURVE",
"466 -114 CURVE SMOOTH",
"262 -114 LINE SMOOTH",
"243 -114 OFFCURVE",
"232 -103 OFFCURVE",
"232 -84 CURVE SMOOTH",
"232 -54 LINE",
"40 -54 LINE",
"40 -113 LINE SMOOTH",
"40 -195 OFFCURVE",
"85 -240 OFFCURVE",
"167 -240 CURVE SMOOTH",
"561 -240 LINE SMOOTH",
"643 -240 OFFCURVE",
"688 -195 OFFCURVE",
"688 -113 CURVE SMOOTH",
"688 600 LINE",
"167 600 LINE SMOOTH",
"85 600 OFFCURVE",
"40 555 OFFCURVE",
"40 473 CURVE SMOOTH"
);
},
{
closed = 1;
nodes = (
"496 474 LINE",
"496 126 LINE",
"262 126 LINE SMOOTH",
"243 126 OFFCURVE",
"232 137 OFFCURVE",
"232 156 CURVE SMOOTH",
"232 444 LINE SMOOTH",
"232 463 OFFCURVE",
"243 474 OFFCURVE",
"262 474 CURVE SMOOTH"
);
}
);
width = 734;
}
);
leftKerningGroup = o;
rightKerningGroup = u;
unicode = 0067;
},
{
glyphname = h;
layers = (
{
layerId = "422CF5D5-EDAF-47A9-A829-F34A9B802C97";
paths = (
{
closed = 1;
nodes = (
"682 0 LINE",
"682 456 LINE SMOOTH",
"682 549 OFFCURVE",
"631 600 OFFCURVE",
"538 600 CURVE SMOOTH",
"238 600 LINE",
"238 800 LINE",
"46 800 LINE",
"46 0 LINE",
"238 0 LINE",
"238 474 LINE",
"459 474 LINE SMOOTH",
"478 474 OFFCURVE",
"489 463 OFFCURVE",
"489 444 CURVE SMOOTH",
"489 0 LINE"
);
}
);
width = 725;
}
);
leftKerningGroup = h;
rightKerningGroup = n;
unicode = 0068;
},
{
glyphname = hbar;
layers = (
{
layerId = "422CF5D5-EDAF-47A9-A829-F34A9B802C97";
paths = (
{
closed = 1;
nodes = (
"46 649 LINE",
"46 0 LINE",
"238 0 LINE",
"238 474 LINE",
"459 474 LINE SMOOTH",
"478 474 OFFCURVE",
"489 463 OFFCURVE",
"489 444 CURVE SMOOTH",
"489 0 LINE",
"682 0 LINE",
"682 456 LINE SMOOTH",
"682 549 OFFCURVE",
"631 600 OFFCURVE",
"538 600 CURVE SMOOTH",
"238 600 LINE",
"238 649 LINE",
"346 649 LINE",
"346 751 LINE",
"238 751 LINE",
"238 800 LINE",
"46 800 LINE",
"46 751 LINE",
"-26 751 LINE",
"-26 649 LINE"
);
}
);
userData = {
com.schriftgestaltung.Glyphs.lastChange = "2019-12-04 15:13:37 +0000";
};
width = 725;
}
);
leftKerningGroup = h;
rightKerningGroup = n;
unicode = 0127;
},
{
glyphname = i;
layers = (
{
layerId = "422CF5D5-EDAF-47A9-A829-F34A9B802C97";
paths = (
{
closed = 1;
nodes = (
"46 600 LINE",
"46 0 LINE",
"238 0 LINE",
"238 600 LINE"
);
},
{
closed = 1;
nodes = (
"238 662 LINE",
"238 800 LINE",
"46 800 LINE",
"46 662 LINE"
);
}
);
width = 284;
}
);
leftKerningGroup = i;
rightKerningGroup = i;
unicode = 0069;
},
{
glyphname = dotlessi;
layers = (
{
layerId = "422CF5D5-EDAF-47A9-A829-F34A9B802C97";
paths = (
{
closed = 1;
nodes = (
"46 600 LINE",
"46 0 LINE",
"238 0 LINE",
"238 600 LINE"
);
}
);
width = 284;
}
);
leftKerningGroup = i;
rightKerningGroup = i;
unicode = 0131;
},
{
glyphname = j;
layers = (
{
layerId = "422CF5D5-EDAF-47A9-A829-F34A9B802C97";
paths = (
{
closed = 1;
nodes = (
"-188 -114 LINE SMOOTH",
"-207 -114 OFFCURVE",
"-218 -103 OFFCURVE",
"-218 -84 CURVE SMOOTH",
"-218 -54 LINE",
"-410 -54 LINE",
"-410 -113 LINE SMOOTH",
"-410 -195 OFFCURVE",
"-365 -240 OFFCURVE",
"-283 -240 CURVE SMOOTH",
"111 -240 LINE SMOOTH",
"193 -240 OFFCURVE",
"238 -195 OFFCURVE",
"238 -113 CURVE SMOOTH",
"238 600 LINE",
"46 600 LINE",
"46 -84 LINE SMOOTH",
"46 -103 OFFCURVE",
"35 -114 OFFCURVE",
"16 -114 CURVE SMOOTH"
);
},
{
closed = 1;
nodes = (
"238 662 LINE",
"238 800 LINE",
"46 800 LINE",
"46 662 LINE"
);
}
);
width = 284;
}
);
leftKerningGroup = i;
rightKerningGroup = i;
unicode = 006A;
},
{
glyphname = k;
layers = (
{
layerId = "422CF5D5-EDAF-47A9-A829-F34A9B802C97";
paths = (
{
closed = 1;
nodes = (
"238 0 LINE",
"238 237 LINE",
"393 237 LINE",
"529 0 LINE",
"742 0 LINE",
"557 300 LINE",
"742 600 LINE",
"529 600 LINE",
"392 363 LINE",
"238 363 LINE",
"238 800 LINE",
"46 800 LINE",
"46 0 LINE"
);
}
);
width = 734;
}
);
leftKerningGroup = h;
rightKerningGroup = k;
unicode = 006B;
},
{
glyphname = l;
layers = (
{
layerId = "422CF5D5-EDAF-47A9-A829-F34A9B802C97";
paths = (
{
closed = 1;
nodes = (
"238 800 LINE",
"46 800 LINE",
"46 0 LINE",
"238 0 LINE"
);
}
);
width = 284;
}
);
leftKerningGroup = l;
rightKerningGroup = l;
unicode = 006C;
},
{
glyphname = lslash;
layers = (
{
layerId = "422CF5D5-EDAF-47A9-A829-F34A9B802C97";
paths = (
{
closed = 1;
nodes = (
"85 315 LINE",
"85 0 LINE",
"277 0 LINE",
"277 383 LINE",
"350 409 LINE",
"350 511 LINE",
"277 485 LINE",
"277 800 LINE",
"85 800 LINE",
"85 417 LINE",
"12 391 LINE",
"12 289 LINE"
);
}
);
width = 367;
}
);
unicode = 0142;
},
{
glyphname = m;
layers = (
{
layerId = "422CF5D5-EDAF-47A9-A829-F34A9B802C97";
paths = (
{
closed = 1;
nodes = (
"238 0 LINE",
"238 474 LINE",
"442 474 LINE",
"442 0 LINE",
"635 0 LINE",
"635 474 LINE",
"808 474 LINE SMOOTH",
"827 474 OFFCURVE",
"838 463 OFFCURVE",
"838 444 CURVE SMOOTH",
"838 0 LINE",
"1031 0 LINE",
"1031 456 LINE SMOOTH",
"1031 549 OFFCURVE",
"980 600 OFFCURVE",
"887 600 CURVE SMOOTH",
"46 600 LINE",
"46 0 LINE"
);
}
);
width = 1074;
}
);
leftKerningGroup = n;
rightKerningGroup = n;
unicode = 006D;
},
{
glyphname = n;
layers = (
{
layerId = "422CF5D5-EDAF-47A9-A829-F34A9B802C97";
paths = (
{
closed = 1;
nodes = (
"682 0 LINE",
"682 456 LINE SMOOTH",
"682 549 OFFCURVE",
"631 600 OFFCURVE",
"538 600 CURVE SMOOTH",
"46 600 LINE",
"46 0 LINE",
"238 0 LINE",
"238 474 LINE",
"459 474 LINE SMOOTH",
"478 474 OFFCURVE",
"489 463 OFFCURVE",
"489 444 CURVE SMOOTH",
"489 0 LINE"
);
}
);
width = 725;
}
);
leftKerningGroup = n;
rightKerningGroup = n;
unicode = 006E;
},
{
glyphname = eng;
layers = (
{
layerId = "422CF5D5-EDAF-47A9-A829-F34A9B802C97";
paths = (
{
closed = 1;
nodes = (
"238 0 LINE",
"238 474 LINE",
"459 474 LINE SMOOTH",
"478 474 OFFCURVE",
"489 463 OFFCURVE",
"489 444 CURVE",
"489 -84 LINE SMOOTH",
"489 -103 OFFCURVE",
"478 -114 OFFCURVE",
"459 -114 CURVE SMOOTH",
"339 -114 LINE",
"339 -240 LINE",
"555 -240 LINE SMOOTH",
"637 -240 OFFCURVE",
"682 -195 OFFCURVE",
"682 -113 CURVE SMOOTH",
"682 456 LINE SMOOTH",
"682 549 OFFCURVE",
"631 600 OFFCURVE",
"538 600 CURVE SMOOTH",
"46 600 LINE",
"46 0 LINE"
);
}
);
width = 725;
}
);
leftKerningGroup = n;
rightKerningGroup = n;
unicode = 014B;
},
{
glyphname = o;
layers = (
{
layerId = "422CF5D5-EDAF-47A9-A829-F34A9B802C97";
paths = (
{
closed = 1;
nodes = (
"40 45 OFFCURVE",
"85 0 OFFCURVE",
"167 0 CURVE SMOOTH",
"561 0 LINE SMOOTH",
"643 0 OFFCURVE",
"688 45 OFFCURVE",
"688 127 CURVE SMOOTH",
"688 473 LINE SMOOTH",
"688 555 OFFCURVE",
"643 600 OFFCURVE",
"561 600 CURVE SMOOTH",
"167 600 LINE SMOOTH",
"85 600 OFFCURVE",
"40 555 OFFCURVE",
"40 473 CURVE SMOOTH",
"40 127 LINE SMOOTH"
);
},
{
closed = 1;
nodes = (
"232 444 LINE SMOOTH",
"232 463 OFFCURVE",
"243 474 OFFCURVE",
"262 474 CURVE SMOOTH",
"466 474 LINE SMOOTH",
"485 474 OFFCURVE",
"496 463 OFFCURVE",
"496 444 CURVE SMOOTH",
"496 156 LINE SMOOTH",
"496 137 OFFCURVE",
"485 126 OFFCURVE",
"466 126 CURVE SMOOTH",
"262 126 LINE SMOOTH",
"243 126 OFFCURVE",
"232 137 OFFCURVE",
"232 156 CURVE SMOOTH"
);
}
);
width = 728;
}
);
leftKerningGroup = o;
rightKerningGroup = o;
unicode = 006F;
},
{
glyphname = oslash;
layers = (
{
layerId = "422CF5D5-EDAF-47A9-A829-F34A9B802C97";
paths = (
{
closed = 1;
nodes = (
"76 -84 LINE",
"160 0 LINE",
"568 0 LINE SMOOTH",
"650 0 OFFCURVE",
"695 45 OFFCURVE",
"695 127 CURVE SMOOTH",
"695 473 LINE SMOOTH",
"695 493 OFFCURVE",
"692 511 OFFCURVE",
"687 527 CURVE",
"755 595 LINE",
"666 684 LINE",
"582 600 LINE",
"174 600 LINE SMOOTH",
"92 600 OFFCURVE",
"47 555 OFFCURVE",
"47 473 CURVE SMOOTH",
"47 127 LINE SMOOTH",
"47 107 OFFCURVE",
"50 89 OFFCURVE",
"55 73 CURVE",
"-13 5 LINE"
);
},
{
closed = 1;
nodes = (
"239 463 OFFCURVE",
"250 474 OFFCURVE",
"269 474 CURVE SMOOTH",
"456 474 LINE",
"239 257 LINE",
"239 444 LINE SMOOTH"
);
},
{
closed = 1;
nodes = (
"503 343 LINE",
"503 156 LINE SMOOTH",
"503 137 OFFCURVE",
"492 126 OFFCURVE",
"473 126 CURVE SMOOTH",
"286 126 LINE"
);
}
);
width = 742;
}
);
leftKerningGroup = o;
rightKerningGroup = o;
unicode = 00F8;
},
{
glyphname = oe;
layers = (
{
layerId = "422CF5D5-EDAF-47A9-A829-F34A9B802C97";
paths = (
{
closed = 1;
nodes = (
"40 45 OFFCURVE",
"85 0 OFFCURVE",
"167 0 CURVE SMOOTH",
"1017 0 LINE SMOOTH",
"1099 0 OFFCURVE",
"1144 45 OFFCURVE",
"1144 127 CURVE SMOOTH",
"1144 186 LINE",
"952 186 LINE",
"952 156 LINE SMOOTH",
"952 137 OFFCURVE",
"941 126 OFFCURVE",
"922 126 CURVE SMOOTH",
"718 126 LINE SMOOTH",
"699 126 OFFCURVE",
"688 137 OFFCURVE",
"688 156 CURVE SMOOTH",
"688 236 LINE",
"1144 236 LINE",
"1144 473 LINE SMOOTH",
"1144 555 OFFCURVE",
"1099 600 OFFCURVE",
"1017 600 CURVE SMOOTH",
"167 600 LINE SMOOTH",
"85 600 OFFCURVE",
"40 555 OFFCURVE",
"40 473 CURVE SMOOTH",
"40 127 LINE SMOOTH"
);
},
{
closed = 1;
nodes = (
"232 444 LINE SMOOTH",
"232 463 OFFCURVE",
"243 474 OFFCURVE",
"262 474 CURVE SMOOTH",
"466 474 LINE SMOOTH",
"485 474 OFFCURVE",
"496 463 OFFCURVE",
"496 444 CURVE SMOOTH",
"496 156 LINE SMOOTH",
"496 137 OFFCURVE",
"485 126 OFFCURVE",
"466 126 CURVE SMOOTH",
"262 126 LINE SMOOTH",
"243 126 OFFCURVE",
"232 137 OFFCURVE",
"232 156 CURVE SMOOTH"
);
},
{
closed = 1;
nodes = (
"688 444 LINE SMOOTH",
"688 463 OFFCURVE",
"699 474 OFFCURVE",
"718 474 CURVE SMOOTH",
"922 474 LINE SMOOTH",
"941 474 OFFCURVE",
"952 463 OFFCURVE",
"952 444 CURVE SMOOTH",
"952 362 LINE",
"688 362 LINE"
);
}
);
width = 1182;
}
);
leftKerningGroup = o;
rightKerningGroup = e;
unicode = 0153;
},
{
glyphname = p;
layers = (
{
layerId = "422CF5D5-EDAF-47A9-A829-F34A9B802C97";
paths = (
{
closed = 1;
nodes = (
"46 -200 LINE",
"238 -200 LINE",
"238 0 LINE",
"538 0 LINE SMOOTH",
"631 0 OFFCURVE",
"682 51 OFFCURVE",
"682 144 CURVE SMOOTH",
"682 456 LINE SMOOTH",
"682 549 OFFCURVE",
"631 600 OFFCURVE",
"538 600 CURVE SMOOTH",
"46 600 LINE"
);
},
{
closed = 1;
nodes = (
"459 474 LINE SMOOTH",
"478 474 OFFCURVE",
"489 463 OFFCURVE",
"489 444 CURVE SMOOTH",
"489 156 LINE SMOOTH",
"489 137 OFFCURVE",
"478 126 OFFCURVE",
"459 126 CURVE SMOOTH",
"238 126 LINE",
"238 474 LINE"
);
}
);
width = 721;
}
);
leftKerningGroup = n;
rightKerningGroup = o;
unicode = 0070;
},
{
glyphname = thorn;
layers = (
{
layerId = "422CF5D5-EDAF-47A9-A829-F34A9B802C97";
paths = (
{
closed = 1;
nodes = (
"238 -200 LINE",
"238 0 LINE",
"538 0 LINE SMOOTH",
"631 0 OFFCURVE",
"682 51 OFFCURVE",
"682 144 CURVE SMOOTH",
"682 456 LINE SMOOTH",
"682 549 OFFCURVE",
"631 600 OFFCURVE",
"538 600 CURVE SMOOTH",
"238 600 LINE",
"238 700 LINE",
"46 700 LINE",
"46 -200 LINE"
);
},
{
closed = 1;
nodes = (
"238 474 LINE",
"459 474 LINE SMOOTH",
"478 474 OFFCURVE",
"489 463 OFFCURVE",
"489 444 CURVE SMOOTH",
"489 156 LINE SMOOTH",
"489 137 OFFCURVE",
"478 126 OFFCURVE",
"459 126 CURVE SMOOTH",
"238 126 LINE"
);
}
);
width = 721;
}
);
leftKerningGroup = h;
rightKerningGroup = o;
unicode = 00FE;
},
{
glyphname = q;
layers = (
{
layerId = "422CF5D5-EDAF-47A9-A829-F34A9B802C97";
paths = (
{
closed = 1;
nodes = (
"183 600 LINE SMOOTH",
"90 600 OFFCURVE",
"39 549 OFFCURVE",
"39 456 CURVE SMOOTH",
"39 144 LINE SMOOTH",
"39 51 OFFCURVE",
"90 0 OFFCURVE",
"183 0 CURVE SMOOTH",
"483 0 LINE",
"483 -200 LINE",
"675 -200 LINE",
"675 600 LINE"
);
},
{
closed = 1;
nodes = (
"483 126 LINE",
"262 126 LINE SMOOTH",
"243 126 OFFCURVE",
"232 137 OFFCURVE",
"232 156 CURVE SMOOTH",
"232 444 LINE SMOOTH",
"232 463 OFFCURVE",
"243 474 OFFCURVE",
"262 474 CURVE SMOOTH",
"483 474 LINE"
);
}
);
width = 721;
}
);
leftKerningGroup = o;
rightKerningGroup = u;
unicode = 0071;
},
{
glyphname = r;
layers = (
{
layerId = "422CF5D5-EDAF-47A9-A829-F34A9B802C97";
paths = (
{
closed = 1;
nodes = (
"238 0 LINE",
"238 474 LINE",
"439 474 LINE SMOOTH",
"458 474 OFFCURVE",
"469 463 OFFCURVE",
"469 444 CURVE SMOOTH",
"469 414 LINE",
"662 414 LINE",
"662 456 LINE SMOOTH",
"662 549 OFFCURVE",
"611 600 OFFCURVE",
"518 600 CURVE SMOOTH",
"46 600 LINE",
"46 0 LINE"
);
}
);
userData = {
com.schriftgestaltung.Glyphs.lastChange = "2019-11-29 01:10:24 +0000";
};
width = 673;
}
);
leftKerningGroup = n;
rightKerningGroup = r;
unicode = 0072;
},
{
glyphname = s;
layers = (
{
layerId = "422CF5D5-EDAF-47A9-A829-F34A9B802C97";
paths = (
{
closed = 1;
nodes = (
"536 0 LINE SMOOTH",
"629 0 OFFCURVE",
"680 51 OFFCURVE",
"680 144 CURVE SMOOTH",
"680 220 LINE SMOOTH",
"680 313 OFFCURVE",
"629 364 OFFCURVE",
"536 364 CURVE SMOOTH",
"254 364 LINE SMOOTH",
"235 364 OFFCURVE",
"224 375 OFFCURVE",
"224 394 CURVE SMOOTH",
"224 444 LINE SMOOTH",
"224 463 OFFCURVE",
"235 474 OFFCURVE",
"254 474 CURVE SMOOTH",
"458 474 LINE SMOOTH",
"477 474 OFFCURVE",
"488 463 OFFCURVE",
"488 444 CURVE SMOOTH",
"488 414 LINE",
"680 414 LINE",
"680 456 LINE SMOOTH",
"680 549 OFFCURVE",
"629 600 OFFCURVE",
"536 600 CURVE SMOOTH",
"176 600 LINE SMOOTH",
"83 600 OFFCURVE",
"32 549 OFFCURVE",
"32 456 CURVE SMOOTH",
"32 380 LINE SMOOTH",
"32 287 OFFCURVE",
"83 236 OFFCURVE",
"176 236 CURVE SMOOTH",
"458 236 LINE SMOOTH",
"477 236 OFFCURVE",
"488 225 OFFCURVE",
"488 206 CURVE SMOOTH",
"488 156 LINE SMOOTH",
"488 137 OFFCURVE",
"477 126 OFFCURVE",
"458 126 CURVE SMOOTH",
"254 126 LINE SMOOTH",
"235 126 OFFCURVE",
"224 137 OFFCURVE",
"224 156 CURVE SMOOTH",
"224 186 LINE",
"32 186 LINE",
"32 144 LINE SMOOTH",
"32 51 OFFCURVE",
"83 0 OFFCURVE",
"176 0 CURVE SMOOTH"
);
}
);
userData = {
com.schriftgestaltung.Glyphs.lastChange = "2019-11-25 03:44:44 +0000";
};
width = 712;
}
);
leftKerningGroup = s;
rightKerningGroup = s;
unicode = 0073;
},
{
glyphname = germandbls;
layers = (
{
layerId = "422CF5D5-EDAF-47A9-A829-F34A9B802C97";
paths = (
{
closed = 1;
nodes = (
"250 526 LINE",
"250 545 OFFCURVE",
"261 556 OFFCURVE",
"280 556 CURVE SMOOTH",
"560 556 LINE SMOOTH",
"579 556 OFFCURVE",
"590 545 OFFCURVE",
"590 526 CURVE SMOOTH",
"590 456 LINE SMOOTH",
"590 437 OFFCURVE",
"579 426 OFFCURVE",
"560 426 CURVE SMOOTH",
"380 426 LINE",
"380 282 LINE",
"560 282 LINE SMOOTH",
"579 282 OFFCURVE",
"590 271 OFFCURVE",
"590 252 CURVE SMOOTH",
"590 174 LINE SMOOTH",
"590 155 OFFCURVE",
"579 144 OFFCURVE",
"560 144 CURVE SMOOTH",
"380 144 LINE",
"380 0 LINE",
"650 0 LINE SMOOTH",
"743 0 OFFCURVE",
"794 51 OFFCURVE",
"794 144 CURVE SMOOTH",
"794 200 LINE SMOOTH",
"794 293 OFFCURVE",
"743 344 OFFCURVE",
"650 344 CURVE",
"743 344 OFFCURVE",
"794 395 OFFCURVE",
"794 488 CURVE SMOOTH",
"794 556 LINE SMOOTH",
"794 649 OFFCURVE",
"743 700 OFFCURVE",
"650 700 CURVE SMOOTH",
"190 700 LINE SMOOTH",
"97 700 OFFCURVE",
"46 649 OFFCURVE",
"46 556 CURVE SMOOTH",
"46 0 LINE",
"250 0 LINE"
);
}
);
width = 828;
}
);
leftKerningGroup = h;
unicode = 00DF;
},
{
glyphname = t;
layers = (
{
layerId = "422CF5D5-EDAF-47A9-A829-F34A9B802C97";
paths = (
{
closed = 1;
nodes = (
"156 474 LINE",
"156 127 LINE SMOOTH",
"156 45 OFFCURVE",
"201 0 OFFCURVE",
"283 0 CURVE SMOOTH",
"627 0 LINE SMOOTH",
"709 0 OFFCURVE",
"754 45 OFFCURVE",
"754 127 CURVE SMOOTH",
"754 186 LINE",
"562 186 LINE",
"562 156 LINE SMOOTH",
"562 137 OFFCURVE",
"551 126 OFFCURVE",
"532 126 CURVE SMOOTH",
"378 126 LINE SMOOTH",
"359 126 OFFCURVE",
"348 137 OFFCURVE",
"348 156 CURVE SMOOTH",
"348 474 LINE",
"754 474 LINE",
"754 600 LINE",
"348 600 LINE",
"348 800 LINE",
"156 800 LINE",
"156 600 LINE",
"12 600 LINE",
"12 474 LINE"
);
}
);
width = 766;
}
);
leftKerningGroup = t;
rightKerningGroup = t;
unicode = 0074;
},
{
glyphname = tbar;
layers = (
{
layerId = "422CF5D5-EDAF-47A9-A829-F34A9B802C97";
paths = (
{
closed = 1;
nodes = (
"164 474 LINE",
"164 381 LINE",
"21 381 LINE",
"21 279 LINE",
"164 279 LINE",
"164 127 LINE SMOOTH",
"164 45 OFFCURVE",
"209 0 OFFCURVE",
"291 0 CURVE SMOOTH",
"635 0 LINE SMOOTH",
"717 0 OFFCURVE",
"762 45 OFFCURVE",
"762 127 CURVE SMOOTH",
"762 186 LINE",
"570 186 LINE",
"570 156 LINE SMOOTH",
"570 137 OFFCURVE",
"559 126 OFFCURVE",
"540 126 CURVE SMOOTH",
"386 126 LINE SMOOTH",
"367 126 OFFCURVE",
"356 137 OFFCURVE",
"356 156 CURVE SMOOTH",
"356 279 LINE",
"762 279 LINE",
"762 381 LINE",
"356 381 LINE",
"356 474 LINE",
"762 474 LINE",
"762 600 LINE",
"356 600 LINE",
"356 800 LINE",
"164 800 LINE",
"164 600 LINE",
"20 600 LINE",
"20 474 LINE"
);
}
);
width = 777;
}
);
leftKerningGroup = t;
rightKerningGroup = t;
unicode = 0167;
},
{
glyphname = u;
layers = (
{
layerId = "422CF5D5-EDAF-47A9-A829-F34A9B802C97";
paths = (
{
closed = 1;
nodes = (
"44 600 LINE",
"44 144 LINE SMOOTH",
"44 51 OFFCURVE",
"95 0 OFFCURVE",
"188 0 CURVE SMOOTH",
"680 0 LINE",
"680 600 LINE",
"488 600 LINE",
"488 126 LINE",
"267 126 LINE SMOOTH",
"248 126 OFFCURVE",
"237 137 OFFCURVE",
"237 156 CURVE SMOOTH",
"237 600 LINE"
);
}
);
width = 726;
}
);
leftKerningGroup = u;
rightKerningGroup = u;
unicode = 0075;
},
{
glyphname = v;
layers = (
{
layerId = "422CF5D5-EDAF-47A9-A829-F34A9B802C97";
paths = (
{
closed = 1;
nodes = (
"393 0 LINE",
"193 600 LINE",
"0 600 LINE",
"200 0 LINE"
);
},
{
closed = 1;
nodes = (
"526 0 LINE",
"726 600 LINE",
"534 600 LINE",
"334 0 LINE"
);
}
);
width = 726;
}
);
leftKerningGroup = v;
rightKerningGroup = v;
unicode = 0076;
},
{
glyphname = w;
layers = (
{
layerId = "422CF5D5-EDAF-47A9-A829-F34A9B802C97";
paths = (
{
closed = 1;
nodes = (
"837 600 LINE",
"837 126 LINE",
"633 126 LINE",
"633 600 LINE",
"440 600 LINE",
"440 126 LINE",
"267 126 LINE SMOOTH",
"248 126 OFFCURVE",
"237 137 OFFCURVE",
"237 156 CURVE SMOOTH",
"237 600 LINE",
"44 600 LINE",
"44 144 LINE SMOOTH",
"44 51 OFFCURVE",
"95 0 OFFCURVE",
"188 0 CURVE SMOOTH",
"1029 0 LINE",
"1029 600 LINE"
);
}
);
width = 1075;
}
);
leftKerningGroup = u;
rightKerningGroup = u;
unicode = 0077;
},
{
glyphname = x;
layers = (
{
layerId = "422CF5D5-EDAF-47A9-A829-F34A9B802C97";
paths = (
{
closed = 1;
nodes = (
"214 600 LINE",
"-9 600 LINE",
"345 219 LINE",
"352 369 LINE",
"-12 0 LINE",
"190 0 LINE",
"517 332 LINE",
"507 284 LINE"
);
},
{
closed = 1;
nodes = (
"570 0 LINE",
"793 0 LINE",
"439 381 LINE",
"432 231 LINE",
"796 600 LINE",
"594 600 LINE",
"267 268 LINE",
"277 316 LINE"
);
}
);
width = 784;
}
);
unicode = 0078;
},
{
glyphname = y;
layers = (
{
layerId = "422CF5D5-EDAF-47A9-A829-F34A9B802C97";
paths = (
{
closed = 1;
nodes = (
"500 600 LINE",
"500 126 LINE",
"266 126 LINE SMOOTH",
"247 126 OFFCURVE",
"236 137 OFFCURVE",
"236 156 CURVE SMOOTH",
"236 600 LINE",
"44 600 LINE",
"44 126 LINE SMOOTH",
"44 45 OFFCURVE",
"89 0 OFFCURVE",
"171 0 CURVE SMOOTH",
"500 0 LINE",
"500 -84 LINE SMOOTH",
"500 -103 OFFCURVE",
"489 -114 OFFCURVE",
"470 -114 CURVE SMOOTH",
"266 -114 LINE SMOOTH",
"247 -114 OFFCURVE",
"236 -103 OFFCURVE",
"236 -84 CURVE SMOOTH",
"236 -54 LINE",
"44 -54 LINE",
"44 -113 LINE SMOOTH",
"44 -195 OFFCURVE",
"89 -240 OFFCURVE",
"171 -240 CURVE SMOOTH",
"565 -240 LINE SMOOTH",
"647 -240 OFFCURVE",
"692 -195 OFFCURVE",
"692 -113 CURVE SMOOTH",
"692 600 LINE"
);
}
);
width = 738;
}
);
leftKerningGroup = u;
rightKerningGroup = u;
unicode = 0079;
},
{
glyphname = z;
layers = (
{
layerId = "422CF5D5-EDAF-47A9-A829-F34A9B802C97";
paths = (
{
closed = 1;
nodes = (
"675 126 LINE",
"89 126 LINE",
"199 51 LINE",
"675 456 LINE",
"675 600 LINE",
"27 600 LINE",
"27 474 LINE",
"563 474 LINE",
"423 497 LINE",
"27 144 LINE",
"27 0 LINE",
"675 0 LINE"
);
}
);
width = 701;
}
);
leftKerningGroup = z;
rightKerningGroup = z;
unicode = 007A;
},
{
glyphname = a.ss01;
layers = (
{
layerId = "422CF5D5-EDAF-47A9-A829-F34A9B802C97";
paths = (
{
closed = 1;
nodes = (
"33 51 OFFCURVE",
"84 0 OFFCURVE",
"177 0 CURVE SMOOTH",
"339 0 LINE SMOOTH",
"416 0 OFFCURVE",
"464 35 OFFCURVE",
"479 100 CURVE",
"489 100 LINE",
"489 0 LINE",
"681 0 LINE",
"681 473 LINE SMOOTH",
"681 555 OFFCURVE",
"636 600 OFFCURVE",
"554 600 CURVE SMOOTH",
"160 600 LINE SMOOTH",
"78 600 OFFCURVE",
"33 555 OFFCURVE",
"33 473 CURVE SMOOTH",
"33 414 LINE",
"225 414 LINE",
"225 444 LINE SMOOTH",
"225 463 OFFCURVE",
"236 474 OFFCURVE",
"255 474 CURVE SMOOTH",
"459 474 LINE SMOOTH",
"478 474 OFFCURVE",
"489 463 OFFCURVE",
"489 444 CURVE SMOOTH",
"489 264 LINE",
"479 264 LINE",
"464 329 OFFCURVE",
"416 364 OFFCURVE",
"339 364 CURVE SMOOTH",
"177 364 LINE SMOOTH",
"84 364 OFFCURVE",
"33 313 OFFCURVE",
"33 220 CURVE SMOOTH",
"33 144 LINE SMOOTH"
);
},
{
closed = 1;
nodes = (
"226 208 LINE SMOOTH",
"226 227 OFFCURVE",
"237 238 OFFCURVE",
"256 238 CURVE SMOOTH",
"489 238 LINE",
"489 126 LINE",
"256 126 LINE SMOOTH",
"237 126 OFFCURVE",
"226 137 OFFCURVE",
"226 156 CURVE SMOOTH"
);
}
);
userData = {
com.schriftgestaltung.Glyphs.lastChange = "2020-01-31 17:20:17 +0000";
};
width = 725;
}
);
leftKerningGroup = a;
rightKerningGroup = a;
},
{
glyphname = ae.ss01;
layers = (
{
layerId = "422CF5D5-EDAF-47A9-A829-F34A9B802C97";
paths = (
{
closed = 1;
nodes = (
"33 51 OFFCURVE",
"84 0 OFFCURVE",
"177 0 CURVE SMOOTH",
"339 0 LINE SMOOTH",
"416 0 OFFCURVE",
"464 35 OFFCURVE",
"479 100 CURVE",
"491 100 LINE",
"500 35 OFFCURVE",
"544 0 OFFCURVE",
"616 0 CURVE SMOOTH",
"1010 0 LINE SMOOTH",
"1092 0 OFFCURVE",
"1137 45 OFFCURVE",
"1137 127 CURVE SMOOTH",
"1137 186 LINE",
"945 186 LINE",
"945 156 LINE SMOOTH",
"945 137 OFFCURVE",
"934 126 OFFCURVE",
"915 126 CURVE SMOOTH",
"711 126 LINE SMOOTH",
"692 126 OFFCURVE",
"681 137 OFFCURVE",
"681 156 CURVE SMOOTH",
"681 336 LINE",
"691 336 LINE",
"706 271 OFFCURVE",
"754 236 OFFCURVE",
"831 236 CURVE SMOOTH",
"993 236 LINE SMOOTH",
"1086 236 OFFCURVE",
"1137 287 OFFCURVE",
"1137 380 CURVE SMOOTH",
"1137 456 LINE SMOOTH",
"1137 549 OFFCURVE",
"1086 600 OFFCURVE",
"993 600 CURVE SMOOTH",
"160 600 LINE SMOOTH",
"78 600 OFFCURVE",
"33 555 OFFCURVE",
"33 473 CURVE SMOOTH",
"33 414 LINE",
"225 414 LINE",
"225 444 LINE SMOOTH",
"225 463 OFFCURVE",
"236 474 OFFCURVE",
"255 474 CURVE SMOOTH",
"459 474 LINE SMOOTH",
"478 474 OFFCURVE",
"489 463 OFFCURVE",
"489 444 CURVE SMOOTH",
"489 264 LINE",
"479 264 LINE",
"464 329 OFFCURVE",
"416 364 OFFCURVE",
"339 364 CURVE SMOOTH",
"177 364 LINE SMOOTH",
"84 364 OFFCURVE",
"33 313 OFFCURVE",
"33 220 CURVE SMOOTH",
"33 144 LINE SMOOTH"
);
},
{
closed = 1;
nodes = (
"226 208 LINE SMOOTH",
"226 227 OFFCURVE",
"237 238 OFFCURVE",
"256 238 CURVE SMOOTH",
"489 238 LINE",
"489 126 LINE",
"256 126 LINE SMOOTH",
"237 126 OFFCURVE",
"226 137 OFFCURVE",
"226 156 CURVE SMOOTH"
);
},
{
closed = 1;
nodes = (
"681 444 LINE SMOOTH",
"681 463 OFFCURVE",
"692 474 OFFCURVE",
"711 474 CURVE SMOOTH",
"914 474 LINE SMOOTH",
"933 474 OFFCURVE",
"944 463 OFFCURVE",
"944 444 CURVE SMOOTH",
"944 392 LINE SMOOTH",
"944 373 OFFCURVE",
"933 362 OFFCURVE",
"914 362 CURVE SMOOTH",
"681 362 LINE"
);
}
);
userData = {
com.schriftgestaltung.Glyphs.lastChange = "2020-01-31 17:25:09 +0000";
};
width = 1170;
}
);
leftKerningGroup = a;
rightKerningGroup = e.ss01;
},
{
glyphname = b.ss01;
layers = (
{
layerId = "422CF5D5-EDAF-47A9-A829-F34A9B802C97";
paths = (
{
closed = 1;
nodes = (
"238 0 LINE",
"238 100 LINE",
"248 100 LINE",
"263 35 OFFCURVE",
"311 0 OFFCURVE",
"388 0 CURVE SMOOTH",
"538 0 LINE SMOOTH",
"631 0 OFFCURVE",
"682 51 OFFCURVE",
"682 144 CURVE SMOOTH",
"682 456 LINE SMOOTH",
"682 549 OFFCURVE",
"631 600 OFFCURVE",
"538 600 CURVE SMOOTH",
"388 600 LINE SMOOTH",
"311 600 OFFCURVE",
"263 565 OFFCURVE",
"248 500 CURVE",
"238 500 LINE",
"238 800 LINE",
"46 800 LINE",
"46 0 LINE"
);
},
{
closed = 1;
nodes = (
"238 474 LINE",
"489 474 LINE",
"489 126 LINE",
"238 126 LINE"
);
}
);
width = 721;
}
);
leftKerningGroup = h;
rightKerningGroup = o;
},
{
glyphname = d.ss01;
layers = (
{
layerId = "422CF5D5-EDAF-47A9-A829-F34A9B802C97";
paths = (
{
closed = 1;
nodes = (
"675 800 LINE",
"483 800 LINE",
"483 500 LINE",
"473 500 LINE",
"458 565 OFFCURVE",
"410 600 OFFCURVE",
"333 600 CURVE SMOOTH",
"183 600 LINE SMOOTH",
"90 600 OFFCURVE",
"39 549 OFFCURVE",
"39 456 CURVE SMOOTH",
"39 144 LINE SMOOTH",
"39 51 OFFCURVE",
"90 0 OFFCURVE",
"183 0 CURVE SMOOTH",
"333 0 LINE SMOOTH",
"410 0 OFFCURVE",
"458 35 OFFCURVE",
"473 100 CURVE",
"483 100 LINE",
"483 0 LINE",
"675 0 LINE"
);
},
{
closed = 1;
nodes = (
"262 126 LINE SMOOTH",
"243 126 OFFCURVE",
"232 137 OFFCURVE",
"232 156 CURVE SMOOTH",
"232 444 LINE SMOOTH",
"232 463 OFFCURVE",
"243 474 OFFCURVE",
"262 474 CURVE SMOOTH",
"483 474 LINE",
"483 126 LINE"
);
}
);
width = 721;
}
);
leftKerningGroup = o;
rightKerningGroup = d;
},
{
glyphname = eth.ss01;
layers = (
{
layerId = "422CF5D5-EDAF-47A9-A829-F34A9B802C97";
paths = (
{
closed = 1;
nodes = (
"39 51 OFFCURVE",
"90 0 OFFCURVE",
"183 0 CURVE SMOOTH",
"531 0 LINE SMOOTH",
"624 0 OFFCURVE",
"675 51 OFFCURVE",
"675 144 CURVE SMOOTH",
"675 669 LINE",
"747 679 LINE",
"747 781 LINE",
"675 771 LINE",
"675 800 LINE",
"483 800 LINE",
"483 746 LINE",
"375 731 LINE",
"375 629 LINE",
"483 644 LINE",
"483 500 LINE",
"473 500 LINE",
"458 565 OFFCURVE",
"410 600 OFFCURVE",
"333 600 CURVE SMOOTH",
"183 600 LINE SMOOTH",
"90 600 OFFCURVE",
"39 549 OFFCURVE",
"39 456 CURVE SMOOTH",
"39 144 LINE SMOOTH"
);
},
{
closed = 1;
nodes = (
"232 444 LINE SMOOTH",
"232 463 OFFCURVE",
"243 474 OFFCURVE",
"262 474 CURVE SMOOTH",
"483 474 LINE",
"483 156 LINE SMOOTH",
"483 137 OFFCURVE",
"472 126 OFFCURVE",
"453 126 CURVE SMOOTH",
"262 126 LINE SMOOTH",
"243 126 OFFCURVE",
"232 137 OFFCURVE",
"232 156 CURVE SMOOTH"
);
}
);
userData = {
com.schriftgestaltung.Glyphs.lastChange = "2019-12-04 15:09:01 +0000";
};
width = 719;
}
);
leftKerningGroup = o;
},
{
glyphname = dcroat.ss01;
layers = (
{
layerId = "422CF5D5-EDAF-47A9-A829-F34A9B802C97";
paths = (
{
closed = 1;
nodes = (
"39 51 OFFCURVE",
"90 0 OFFCURVE",
"183 0 CURVE SMOOTH",
"333 0 LINE SMOOTH",
"410 0 OFFCURVE",
"458 35 OFFCURVE",
"473 100 CURVE",
"483 100 LINE",
"483 0 LINE",
"675 0 LINE",
"675 649 LINE",
"747 649 LINE",
"747 751 LINE",
"675 751 LINE",
"675 800 LINE",
"483 800 LINE",
"483 751 LINE",
"375 751 LINE",
"375 649 LINE",
"483 649 LINE",
"483 500 LINE",
"473 500 LINE",
"458 565 OFFCURVE",
"410 600 OFFCURVE",
"333 600 CURVE SMOOTH",
"183 600 LINE SMOOTH",
"90 600 OFFCURVE",
"39 549 OFFCURVE",
"39 456 CURVE SMOOTH",
"39 144 LINE SMOOTH"
);
},
{
closed = 1;
nodes = (
"232 444 LINE SMOOTH",
"232 463 OFFCURVE",
"243 474 OFFCURVE",
"262 474 CURVE SMOOTH",
"483 474 LINE",
"483 126 LINE",
"262 126 LINE SMOOTH",
"243 126 OFFCURVE",
"232 137 OFFCURVE",
"232 156 CURVE SMOOTH"
);
}
);
userData = {
com.schriftgestaltung.Glyphs.lastChange = "2019-12-04 15:10:47 +0000";
};
width = 721;
}
);
leftKerningGroup = o;
rightKerningGroup = d;
},
{
glyphname = e.ss01;
layers = (
{
layerId = "422CF5D5-EDAF-47A9-A829-F34A9B802C97";
paths = (
{
closed = 1;
nodes = (
"40 45 OFFCURVE",
"85 0 OFFCURVE",
"167 0 CURVE SMOOTH",
"561 0 LINE SMOOTH",
"643 0 OFFCURVE",
"688 45 OFFCURVE",
"688 127 CURVE SMOOTH",
"688 186 LINE",
"496 186 LINE",
"496 156 LINE SMOOTH",
"496 137 OFFCURVE",
"485 126 OFFCURVE",
"466 126 CURVE SMOOTH",
"262 126 LINE SMOOTH",
"243 126 OFFCURVE",
"232 137 OFFCURVE",
"232 156 CURVE SMOOTH",
"232 336 LINE",
"242 336 LINE",
"257 271 OFFCURVE",
"305 236 OFFCURVE",
"382 236 CURVE SMOOTH",
"544 236 LINE SMOOTH",
"637 236 OFFCURVE",
"688 287 OFFCURVE",
"688 380 CURVE SMOOTH",
"688 456 LINE SMOOTH",
"688 549 OFFCURVE",
"637 600 OFFCURVE",
"544 600 CURVE SMOOTH",
"184 600 LINE SMOOTH",
"91 600 OFFCURVE",
"40 549 OFFCURVE",
"40 456 CURVE SMOOTH",
"40 127 LINE SMOOTH"
);
},
{
closed = 1;
nodes = (
"232 444 LINE SMOOTH",
"232 463 OFFCURVE",
"243 474 OFFCURVE",
"262 474 CURVE SMOOTH",
"465 474 LINE SMOOTH",
"484 474 OFFCURVE",
"495 463 OFFCURVE",
"495 444 CURVE SMOOTH",
"495 392 LINE SMOOTH",
"495 373 OFFCURVE",
"484 362 OFFCURVE",
"465 362 CURVE SMOOTH",
"232 362 LINE"
);
}
);
userData = {
com.schriftgestaltung.Glyphs.lastChange = "2020-01-31 17:20:39 +0000";
};
width = 721;
}
);
leftKerningGroup = o;
rightKerningGroup = e.ss01;
},
{
glyphname = g.ss01;
layers = (
{
layerId = "422CF5D5-EDAF-47A9-A829-F34A9B802C97";
paths = (
{
closed = 1;
nodes = (
"39 -195 OFFCURVE",
"84 -240 OFFCURVE",
"166 -240 CURVE SMOOTH",
"560 -240 LINE SMOOTH",
"642 -240 OFFCURVE",
"687 -195 OFFCURVE",
"687 -113 CURVE SMOOTH",
"687 600 LINE",
"495 600 LINE",
"495 500 LINE",
"485 500 LINE",
"470 565 OFFCURVE",
"422 600 OFFCURVE",
"345 600 CURVE SMOOTH",
"183 600 LINE SMOOTH",
"90 600 OFFCURVE",
"39 549 OFFCURVE",
"39 456 CURVE SMOOTH",
"39 144 LINE SMOOTH",
"39 51 OFFCURVE",
"90 0 OFFCURVE",
"183 0 CURVE SMOOTH",
"345 0 LINE SMOOTH",
"422 0 OFFCURVE",
"470 35 OFFCURVE",
"485 100 CURVE",
"495 100 LINE",
"495 -84 LINE SMOOTH",
"495 -103 OFFCURVE",
"484 -114 OFFCURVE",
"465 -114 CURVE SMOOTH",
"261 -114 LINE SMOOTH",
"242 -114 OFFCURVE",
"231 -103 OFFCURVE",
"231 -84 CURVE SMOOTH",
"231 -54 LINE",
"39 -54 LINE",
"39 -113 LINE SMOOTH"
);
},
{
closed = 1;
nodes = (
"232 444 LINE SMOOTH",
"232 463 OFFCURVE",
"243 474 OFFCURVE",
"262 474 CURVE SMOOTH",
"495 474 LINE",
"495 126 LINE",
"262 126 LINE SMOOTH",
"243 126 OFFCURVE",
"232 137 OFFCURVE",
"232 156 CURVE SMOOTH"
);
}
);
userData = {
com.schriftgestaltung.Glyphs.lastChange = "2020-01-31 17:21:00 +0000";
};
width = 733;
}
);
leftKerningGroup = o;
rightKerningGroup = u;
},
{
glyphname = h.ss01;
layers = (
{
layerId = "422CF5D5-EDAF-47A9-A829-F34A9B802C97";
paths = (
{
closed = 1;
nodes = (
"682 0 LINE",
"682 456 LINE SMOOTH",
"682 549 OFFCURVE",
"631 600 OFFCURVE",
"538 600 CURVE SMOOTH",
"388 600 LINE SMOOTH",
"311 600 OFFCURVE",
"263 565 OFFCURVE",
"248 500 CURVE",
"238 500 LINE",
"238 800 LINE",
"46 800 LINE",
"46 0 LINE",
"238 0 LINE",
"238 474 LINE",
"459 474 LINE SMOOTH",
"478 474 OFFCURVE",
"489 463 OFFCURVE",
"489 444 CURVE SMOOTH",
"489 0 LINE"
);
}
);
width = 725;
}
);
leftKerningGroup = h;
rightKerningGroup = n;
},
{
glyphname = hbar.ss01;
layers = (
{
layerId = "422CF5D5-EDAF-47A9-A829-F34A9B802C97";
paths = (
{
closed = 1;
nodes = (
"46 649 LINE",
"46 0 LINE",
"238 0 LINE",
"238 474 LINE",
"459 474 LINE SMOOTH",
"478 474 OFFCURVE",
"489 463 OFFCURVE",
"489 444 CURVE SMOOTH",
"489 0 LINE",
"682 0 LINE",
"682 456 LINE SMOOTH",
"682 549 OFFCURVE",
"631 600 OFFCURVE",
"538 600 CURVE SMOOTH",
"388 600 LINE SMOOTH",
"311 600 OFFCURVE",
"263 565 OFFCURVE",
"248 500 CURVE",
"238 500 LINE",
"238 649 LINE",
"346 649 LINE",
"346 751 LINE",
"238 751 LINE",
"238 800 LINE",
"46 800 LINE",
"46 751 LINE",
"-26 751 LINE",
"-26 649 LINE"
);
}
);
userData = {
com.schriftgestaltung.Glyphs.lastChange = "2019-12-04 15:13:52 +0000";
};
width = 725;
}
);
leftKerningGroup = h;
rightKerningGroup = n;
},
{
glyphname = m.ss01;
layers = (
{
layerId = "422CF5D5-EDAF-47A9-A829-F34A9B802C97";
paths = (
{
closed = 1;
nodes = (
"238 0 LINE",
"238 474 LINE",
"412 474 LINE SMOOTH",
"431 474 OFFCURVE",
"442 463 OFFCURVE",
"442 444 CURVE SMOOTH",
"442 0 LINE",
"635 0 LINE",
"635 474 LINE",
"809 474 LINE SMOOTH",
"828 474 OFFCURVE",
"839 463 OFFCURVE",
"839 444 CURVE SMOOTH",
"839 0 LINE",
"1032 0 LINE",
"1032 456 LINE SMOOTH",
"1032 549 OFFCURVE",
"981 600 OFFCURVE",
"888 600 CURVE SMOOTH",
"780 600 LINE SMOOTH",
"703 600 OFFCURVE",
"655 565 OFFCURVE",
"640 500 CURVE",
"631 500 LINE",
"616 565 OFFCURVE",
"568 600 OFFCURVE",
"491 600 CURVE SMOOTH",
"388 600 LINE SMOOTH",
"311 600 OFFCURVE",
"263 565 OFFCURVE",
"248 500 CURVE",
"238 500 LINE",
"238 600 LINE",
"46 600 LINE",
"46 0 LINE"
);
}
);
width = 1075;
}
);
leftKerningGroup = n;
rightKerningGroup = n;
},
{
glyphname = n.ss01;
layers = (
{
layerId = "422CF5D5-EDAF-47A9-A829-F34A9B802C97";
paths = (
{
closed = 1;
nodes = (
"682 0 LINE",
"682 456 LINE SMOOTH",
"682 549 OFFCURVE",
"631 600 OFFCURVE",
"538 600 CURVE SMOOTH",
"388 600 LINE SMOOTH",
"311 600 OFFCURVE",
"263 565 OFFCURVE",
"248 500 CURVE",
"238 500 LINE",
"238 600 LINE",
"46 600 LINE",
"46 0 LINE",
"238 0 LINE",
"238 474 LINE",
"459 474 LINE SMOOTH",
"478 474 OFFCURVE",
"489 463 OFFCURVE",
"489 444 CURVE SMOOTH",
"489 0 LINE"
);
}
);
width = 725;
}
);
leftKerningGroup = n;
rightKerningGroup = n;
},
{
glyphname = eng.ss01;
layers = (
{
layerId = "422CF5D5-EDAF-47A9-A829-F34A9B802C97";
paths = (
{
closed = 1;
nodes = (
"238 0 LINE",
"238 474 LINE",
"459 474 LINE SMOOTH",
"478 474 OFFCURVE",
"489 463 OFFCURVE",
"489 444 CURVE SMOOTH",
"489 -84 LINE SMOOTH",
"489 -103 OFFCURVE",
"478 -114 OFFCURVE",
"459 -114 CURVE SMOOTH",
"339 -114 LINE",
"339 -240 LINE",
"555 -240 LINE SMOOTH",
"637 -240 OFFCURVE",
"682 -195 OFFCURVE",
"682 -113 CURVE SMOOTH",
"682 456 LINE SMOOTH",
"682 549 OFFCURVE",
"631 600 OFFCURVE",
"538 600 CURVE SMOOTH",
"388 600 LINE SMOOTH",
"311 600 OFFCURVE",
"263 565 OFFCURVE",
"248 500 CURVE",
"238 500 LINE",
"238 600 LINE",
"46 600 LINE",
"46 0 LINE"
);
}
);
width = 725;
}
);
leftKerningGroup = n;
rightKerningGroup = n;
},
{
glyphname = p.ss01;
layers = (
{
layerId = "422CF5D5-EDAF-47A9-A829-F34A9B802C97";
paths = (
{
closed = 1;
nodes = (
"46 -200 LINE",
"238 -200 LINE",
"238 100 LINE",
"248 100 LINE",
"263 35 OFFCURVE",
"311 0 OFFCURVE",
"388 0 CURVE SMOOTH",
"538 0 LINE SMOOTH",
"631 0 OFFCURVE",
"682 51 OFFCURVE",
"682 144 CURVE SMOOTH",
"682 456 LINE SMOOTH",
"682 549 OFFCURVE",
"631 600 OFFCURVE",
"538 600 CURVE SMOOTH",
"388 600 LINE SMOOTH",
"311 600 OFFCURVE",
"263 565 OFFCURVE",
"248 500 CURVE",
"238 500 LINE",
"238 600 LINE",
"46 600 LINE"
);
},
{
closed = 1;
nodes = (
"459 474 LINE SMOOTH",
"478 474 OFFCURVE",
"489 463 OFFCURVE",
"489 444 CURVE SMOOTH",
"489 156 LINE SMOOTH",
"489 137 OFFCURVE",
"478 126 OFFCURVE",
"459 126 CURVE SMOOTH",
"238 126 LINE",
"238 474 LINE"
);
}
);
width = 721;
}
);
leftKerningGroup = n;
rightKerningGroup = o;
},
{
glyphname = q.ss01;
layers = (
{
layerId = "422CF5D5-EDAF-47A9-A829-F34A9B802C97";
paths = (
{
closed = 1;
nodes = (
"483 600 LINE",
"483 500 LINE",
"473 500 LINE",
"458 565 OFFCURVE",
"410 600 OFFCURVE",
"333 600 CURVE SMOOTH",
"183 600 LINE SMOOTH",
"90 600 OFFCURVE",
"39 549 OFFCURVE",
"39 456 CURVE SMOOTH",
"39 144 LINE SMOOTH",
"39 51 OFFCURVE",
"90 0 OFFCURVE",
"183 0 CURVE SMOOTH",
"333 0 LINE SMOOTH",
"410 0 OFFCURVE",
"458 35 OFFCURVE",
"473 100 CURVE",
"483 100 LINE",
"483 -200 LINE",
"675 -200 LINE",
"675 600 LINE"
);
},
{
closed = 1;
nodes = (
"483 126 LINE",
"262 126 LINE SMOOTH",
"243 126 OFFCURVE",
"232 137 OFFCURVE",
"232 156 CURVE SMOOTH",
"232 444 LINE SMOOTH",
"232 463 OFFCURVE",
"243 474 OFFCURVE",
"262 474 CURVE SMOOTH",
"483 474 LINE"
);
}
);
width = 721;
}
);
leftKerningGroup = o;
rightKerningGroup = u;
},
{
glyphname = r.ss01;
layers = (
{
layerId = "422CF5D5-EDAF-47A9-A829-F34A9B802C97";
paths = (
{
closed = 1;
nodes = (
"662 414 LINE",
"662 456 LINE SMOOTH",
"662 549 OFFCURVE",
"611 600 OFFCURVE",
"518 600 CURVE SMOOTH",
"388 600 LINE SMOOTH",
"311 600 OFFCURVE",
"263 565 OFFCURVE",
"248 500 CURVE",
"238 500 LINE",
"238 600 LINE",
"46 600 LINE",
"46 0 LINE",
"238 0 LINE",
"238 474 LINE",
"439 474 LINE SMOOTH",
"458 474 OFFCURVE",
"469 463 OFFCURVE",
"469 444 CURVE SMOOTH",
"469 414 LINE"
);
}
);
userData = {
com.schriftgestaltung.Glyphs.lastChange = "2019-11-29 01:12:14 +0000";
};
width = 673;
}
);
leftKerningGroup = n;
rightKerningGroup = r;
},
{
glyphname = u.ss01;
layers = (
{
layerId = "422CF5D5-EDAF-47A9-A829-F34A9B802C97";
paths = (
{
closed = 1;
nodes = (
"44 600 LINE",
"44 144 LINE SMOOTH",
"44 51 OFFCURVE",
"95 0 OFFCURVE",
"188 0 CURVE SMOOTH",
"338 0 LINE SMOOTH",
"415 0 OFFCURVE",
"463 35 OFFCURVE",
"478 100 CURVE",
"488 100 LINE",
"488 0 LINE",
"680 0 LINE",
"680 600 LINE",
"488 600 LINE",
"488 126 LINE",
"267 126 LINE SMOOTH",
"248 126 OFFCURVE",
"237 137 OFFCURVE",
"237 156 CURVE SMOOTH",
"237 600 LINE"
);
}
);
width = 726;
}
);
leftKerningGroup = u;
rightKerningGroup = u;
},
{
glyphname = w.ss01;
layers = (
{
layerId = "422CF5D5-EDAF-47A9-A829-F34A9B802C97";
paths = (
{
closed = 1;
nodes = (
"838 600 LINE",
"838 126 LINE",
"664 126 LINE SMOOTH",
"645 126 OFFCURVE",
"634 137 OFFCURVE",
"634 156 CURVE SMOOTH",
"634 600 LINE",
"441 600 LINE",
"441 126 LINE",
"267 126 LINE SMOOTH",
"248 126 OFFCURVE",
"237 137 OFFCURVE",
"237 156 CURVE SMOOTH",
"237 600 LINE",
"44 600 LINE",
"44 144 LINE SMOOTH",
"44 51 OFFCURVE",
"95 0 OFFCURVE",
"188 0 CURVE SMOOTH",
"296 0 LINE SMOOTH",
"373 0 OFFCURVE",
"421 35 OFFCURVE",
"436 100 CURVE",
"445 100 LINE",
"460 35 OFFCURVE",
"508 0 OFFCURVE",
"585 0 CURVE SMOOTH",
"688 0 LINE SMOOTH",
"765 0 OFFCURVE",
"813 35 OFFCURVE",
"828 100 CURVE",
"838 100 LINE",
"838 0 LINE",
"1030 0 LINE",
"1030 600 LINE"
);
}
);
width = 1076;
}
);
leftKerningGroup = u;
rightKerningGroup = u;
},
{
glyphname = y.ss01;
layers = (
{
layerId = "422CF5D5-EDAF-47A9-A829-F34A9B802C97";
paths = (
{
closed = 1;
nodes = (
"44 -195 OFFCURVE",
"89 -240 OFFCURVE",
"171 -240 CURVE SMOOTH",
"565 -240 LINE SMOOTH",
"647 -240 OFFCURVE",
"692 -195 OFFCURVE",
"692 -113 CURVE SMOOTH",
"692 600 LINE",
"500 600 LINE",
"500 126 LINE",
"267 126 LINE SMOOTH",
"248 126 OFFCURVE",
"237 137 OFFCURVE",
"237 156 CURVE SMOOTH",
"237 600 LINE",
"44 600 LINE",
"44 144 LINE SMOOTH",
"44 51 OFFCURVE",
"95 0 OFFCURVE",
"188 0 CURVE SMOOTH",
"350 0 LINE SMOOTH",
"427 0 OFFCURVE",
"475 35 OFFCURVE",
"490 100 CURVE",
"500 100 LINE",
"500 -84 LINE SMOOTH",
"500 -103 OFFCURVE",
"489 -114 OFFCURVE",
"470 -114 CURVE SMOOTH",
"266 -114 LINE SMOOTH",
"247 -114 OFFCURVE",
"236 -103 OFFCURVE",
"236 -84 CURVE SMOOTH",
"236 -54 LINE",
"44 -54 LINE",
"44 -113 LINE SMOOTH"
);
}
);
userData = {
com.schriftgestaltung.Glyphs.lastChange = "2020-01-31 17:21:24 +0000";
};
width = 738;
}
);
leftKerningGroup = u;
rightKerningGroup = u;
},
{
glyphname = y.ss03;
layers = (
{
layerId = "422CF5D5-EDAF-47A9-A829-F34A9B802C97";
paths = (
{
closed = 1;
nodes = (
"200 0 LINE",
"334 0 LINE",
"244 -270 LINE",
"436 -270 LINE",
"726 600 LINE",
"534 600 LINE",
"376 126 LINE",
"351 126 LINE",
"193 600 LINE",
"0 600 LINE"
);
}
);
width = 726;
}
);
leftKerningGroup = v;
rightKerningGroup = v;
},
{
glyphname = c_b.liga;
layers = (
{
layerId = "422CF5D5-EDAF-47A9-A829-F34A9B802C97";
paths = (
{
closed = 1;
nodes = (
"40 45 OFFCURVE",
"85 0 OFFCURVE",
"167 0 CURVE SMOOTH",
"561 0 LINE SMOOTH",
"643 0 OFFCURVE",
"688 45 OFFCURVE",
"688 127 CURVE SMOOTH",
"688 186 LINE",
"496 186 LINE",
"496 156 LINE SMOOTH",
"496 137 OFFCURVE",
"485 126 OFFCURVE",
"466 126 CURVE SMOOTH",
"262 126 LINE SMOOTH",
"243 126 OFFCURVE",
"232 137 OFFCURVE",
"232 156 CURVE SMOOTH",
"232 444 LINE SMOOTH",
"232 463 OFFCURVE",
"243 474 OFFCURVE",
"262 474 CURVE SMOOTH",
"688 474 LINE",
"688 644 LINE SMOOTH",
"688 663 OFFCURVE",
"699 674 OFFCURVE",
"718 674 CURVE SMOOTH",
"728 674 LINE SMOOTH",
"747 674 OFFCURVE",
"758 663 OFFCURVE",
"758 644 CURVE SMOOTH",
"758 0 LINE",
"1250 0 LINE SMOOTH",
"1343 0 OFFCURVE",
"1394 51 OFFCURVE",
"1394 144 CURVE SMOOTH",
"1394 456 LINE SMOOTH",
"1394 549 OFFCURVE",
"1343 600 OFFCURVE",
"1250 600 CURVE SMOOTH",
"950 600 LINE",
"950 656 LINE SMOOTH",
"950 749 OFFCURVE",
"899 800 OFFCURVE",
"806 800 CURVE SMOOTH",
"640 800 LINE SMOOTH",
"547 800 OFFCURVE",
"496 749 OFFCURVE",
"496 656 CURVE SMOOTH",
"496 600 LINE",
"167 600 LINE SMOOTH",
"85 600 OFFCURVE",
"40 555 OFFCURVE",
"40 473 CURVE SMOOTH",
"40 127 LINE SMOOTH"
);
},
{
closed = 1;
nodes = (
"950 474 LINE",
"1171 474 LINE SMOOTH",
"1190 474 OFFCURVE",
"1201 463 OFFCURVE",
"1201 444 CURVE SMOOTH",
"1201 156 LINE SMOOTH",
"1201 137 OFFCURVE",
"1190 126 OFFCURVE",
"1171 126 CURVE SMOOTH",
"950 126 LINE"
);
}
);
userData = {
com.schriftgestaltung.Glyphs.lastChange = "2019-11-25 02:44:01 +0000";
};
width = 1433;
}
);
leftMetricsKey = c;
rightMetricsKey = b;
},
{
glyphname = c_h.liga;
layers = (
{
layerId = "422CF5D5-EDAF-47A9-A829-F34A9B802C97";
paths = (
{
closed = 1;
nodes = (
"1394 0 LINE",
"1394 456 LINE SMOOTH",
"1394 549 OFFCURVE",
"1343 600 OFFCURVE",
"1250 600 CURVE SMOOTH",
"950 600 LINE",
"950 656 LINE SMOOTH",
"950 749 OFFCURVE",
"899 800 OFFCURVE",
"806 800 CURVE SMOOTH",
"640 800 LINE SMOOTH",
"547 800 OFFCURVE",
"496 749 OFFCURVE",
"496 656 CURVE SMOOTH",
"496 600 LINE",
"167 600 LINE SMOOTH",
"85 600 OFFCURVE",
"40 555 OFFCURVE",
"40 473 CURVE SMOOTH",
"40 127 LINE SMOOTH",
"40 45 OFFCURVE",
"85 0 OFFCURVE",
"167 0 CURVE SMOOTH",
"561 0 LINE SMOOTH",
"643 0 OFFCURVE",
"688 45 OFFCURVE",
"688 127 CURVE SMOOTH",
"688 186 LINE",
"496 186 LINE",
"496 156 LINE SMOOTH",
"496 137 OFFCURVE",
"485 126 OFFCURVE",
"466 126 CURVE SMOOTH",
"262 126 LINE SMOOTH",
"243 126 OFFCURVE",
"232 137 OFFCURVE",
"232 156 CURVE SMOOTH",
"232 444 LINE SMOOTH",
"232 463 OFFCURVE",
"243 474 OFFCURVE",
"262 474 CURVE SMOOTH",
"688 474 LINE",
"688 644 LINE SMOOTH",
"688 663 OFFCURVE",
"699 674 OFFCURVE",
"718 674 CURVE SMOOTH",
"728 674 LINE SMOOTH",
"747 674 OFFCURVE",
"758 663 OFFCURVE",
"758 644 CURVE SMOOTH",
"758 0 LINE",
"950 0 LINE",
"950 474 LINE",
"1171 474 LINE SMOOTH",
"1190 474 OFFCURVE",
"1201 463 OFFCURVE",
"1201 444 CURVE SMOOTH",
"1201 0 LINE"
);
}
);
userData = {
com.schriftgestaltung.Glyphs.lastChange = "2019-11-25 03:23:41 +0000";
};
width = 1437;
}
);
leftMetricsKey = c;
rightMetricsKey = h;
},
{
glyphname = c_k.liga;
layers = (
{
layerId = "422CF5D5-EDAF-47A9-A829-F34A9B802C97";
paths = (
{
closed = 1;
nodes = (
"40 45 OFFCURVE",
"85 0 OFFCURVE",
"167 0 CURVE SMOOTH",
"561 0 LINE SMOOTH",
"643 0 OFFCURVE",
"688 45 OFFCURVE",
"688 127 CURVE SMOOTH",
"688 186 LINE",
"496 186 LINE",
"496 156 LINE SMOOTH",
"496 137 OFFCURVE",
"485 126 OFFCURVE",
"466 126 CURVE SMOOTH",
"262 126 LINE SMOOTH",
"243 126 OFFCURVE",
"232 137 OFFCURVE",
"232 156 CURVE SMOOTH",
"232 444 LINE SMOOTH",
"232 463 OFFCURVE",
"243 474 OFFCURVE",
"262 474 CURVE SMOOTH",
"688 474 LINE",
"688 644 LINE SMOOTH",
"688 663 OFFCURVE",
"699 674 OFFCURVE",
"718 674 CURVE SMOOTH",
"728 674 LINE SMOOTH",
"747 674 OFFCURVE",
"758 663 OFFCURVE",
"758 644 CURVE SMOOTH",
"758 0 LINE",
"950 0 LINE",
"950 237 LINE",
"1105 237 LINE",
"1241 0 LINE",
"1454 0 LINE",
"1269 300 LINE",
"1454 600 LINE",
"1241 600 LINE",
"1104 363 LINE",
"950 363 LINE",
"950 656 LINE SMOOTH",
"950 749 OFFCURVE",
"899 800 OFFCURVE",
"806 800 CURVE SMOOTH",
"640 800 LINE SMOOTH",
"547 800 OFFCURVE",
"496 749 OFFCURVE",
"496 656 CURVE SMOOTH",
"496 600 LINE",
"167 600 LINE SMOOTH",
"85 600 OFFCURVE",
"40 555 OFFCURVE",
"40 473 CURVE SMOOTH",
"40 127 LINE SMOOTH"
);
}
);
userData = {
com.schriftgestaltung.Glyphs.lastChange = "2019-11-25 03:37:14 +0000";
};
width = 1446;
}
);
leftMetricsKey = c;
rightMetricsKey = k;
},
{
glyphname = c_t.liga;
layers = (
{
layerId = "422CF5D5-EDAF-47A9-A829-F34A9B802C97";
paths = (
{
closed = 1;
nodes = (
"40 45 OFFCURVE",
"85 0 OFFCURVE",
"167 0 CURVE SMOOTH",
"561 0 LINE SMOOTH",
"643 0 OFFCURVE",
"688 45 OFFCURVE",
"688 127 CURVE SMOOTH",
"688 186 LINE",
"496 186 LINE",
"496 156 LINE SMOOTH",
"496 137 OFFCURVE",
"485 126 OFFCURVE",
"466 126 CURVE SMOOTH",
"262 126 LINE SMOOTH",
"243 126 OFFCURVE",
"232 137 OFFCURVE",
"232 156 CURVE SMOOTH",
"232 444 LINE SMOOTH",
"232 463 OFFCURVE",
"243 474 OFFCURVE",
"262 474 CURVE SMOOTH",
"688 474 LINE",
"688 644 LINE SMOOTH",
"688 663 OFFCURVE",
"699 674 OFFCURVE",
"718 674 CURVE SMOOTH",
"838 674 LINE SMOOTH",
"857 674 OFFCURVE",
"868 663 OFFCURVE",
"868 644 CURVE SMOOTH",
"868 600 LINE",
"762 600 LINE",
"762 474 LINE",
"868 474 LINE",
"868 127 LINE SMOOTH",
"868 45 OFFCURVE",
"913 0 OFFCURVE",
"995 0 CURVE SMOOTH",
"1339 0 LINE SMOOTH",
"1421 0 OFFCURVE",
"1466 45 OFFCURVE",
"1466 127 CURVE SMOOTH",
"1466 186 LINE",
"1274 186 LINE",
"1274 156 LINE SMOOTH",
"1274 137 OFFCURVE",
"1263 126 OFFCURVE",
"1244 126 CURVE SMOOTH",
"1090 126 LINE SMOOTH",
"1071 126 OFFCURVE",
"1060 137 OFFCURVE",
"1060 156 CURVE SMOOTH",
"1060 474 LINE",
"1466 474 LINE",
"1466 600 LINE",
"1060 600 LINE",
"1060 656 LINE SMOOTH",
"1060 749 OFFCURVE",
"1009 800 OFFCURVE",
"916 800 CURVE SMOOTH",
"640 800 LINE SMOOTH",
"547 800 OFFCURVE",
"496 749 OFFCURVE",
"496 656 CURVE SMOOTH",
"496 600 LINE",
"167 600 LINE SMOOTH",
"85 600 OFFCURVE",
"40 555 OFFCURVE",
"40 473 CURVE SMOOTH",
"40 127 LINE SMOOTH"
);
}
);
userData = {
com.schriftgestaltung.Glyphs.lastChange = "2019-11-25 02:58:37 +0000";
};
width = 1478;
}
);
leftMetricsKey = c;
rightMetricsKey = t;
},
{
glyphname = f_b.liga;
layers = (
{
layerId = "422CF5D5-EDAF-47A9-A829-F34A9B802C97";
paths = (
{
closed = 1;
nodes = (
"156 474 LINE",
"156 0 LINE",
"348 0 LINE",
"348 474 LINE",
"617 474 LINE",
"617 600 LINE",
"348 600 LINE",
"348 644 LINE SMOOTH",
"348 663 OFFCURVE",
"359 674 OFFCURVE",
"378 674 CURVE SMOOTH",
"691 674 LINE",
"691 0 LINE",
"1183 0 LINE SMOOTH",
"1276 0 OFFCURVE",
"1327 51 OFFCURVE",
"1327 144 CURVE SMOOTH",
"1327 456 LINE SMOOTH",
"1327 549 OFFCURVE",
"1276 600 OFFCURVE",
"1183 600 CURVE SMOOTH",
"883 600 LINE",
"883 800 LINE",
"283 800 LINE SMOOTH",
"201 800 OFFCURVE",
"156 755 OFFCURVE",
"156 673 CURVE SMOOTH",
"156 600 LINE",
"12 600 LINE",
"12 474 LINE"
);
},
{
closed = 1;
nodes = (
"883 474 LINE",
"1104 474 LINE SMOOTH",
"1123 474 OFFCURVE",
"1134 463 OFFCURVE",
"1134 444 CURVE SMOOTH",
"1134 156 LINE SMOOTH",
"1134 137 OFFCURVE",
"1123 126 OFFCURVE",
"1104 126 CURVE SMOOTH",
"883 126 LINE"
);
}
);
userData = {
com.schriftgestaltung.Glyphs.lastChange = "2019-11-25 09:01:48 +0000";
};
width = 1366;
}
);
leftMetricsKey = f;
rightMetricsKey = b;
},
{
glyphname = f_h.liga;
layers = (
{
layerId = "422CF5D5-EDAF-47A9-A829-F34A9B802C97";
paths = (
{
closed = 1;
nodes = (
"1327 0 LINE",
"1327 456 LINE SMOOTH",
"1327 549 OFFCURVE",
"1276 600 OFFCURVE",
"1183 600 CURVE SMOOTH",
"883 600 LINE",
"883 800 LINE",
"283 800 LINE SMOOTH",
"201 800 OFFCURVE",
"156 755 OFFCURVE",
"156 673 CURVE SMOOTH",
"156 600 LINE",
"12 600 LINE",
"12 474 LINE",
"156 474 LINE",
"156 0 LINE",
"348 0 LINE",
"348 474 LINE",
"617 474 LINE",
"617 600 LINE",
"348 600 LINE",
"348 644 LINE SMOOTH",
"348 663 OFFCURVE",
"359 674 OFFCURVE",
"378 674 CURVE SMOOTH",
"691 674 LINE",
"691 0 LINE",
"883 0 LINE",
"883 474 LINE",
"1104 474 LINE SMOOTH",
"1123 474 OFFCURVE",
"1134 463 OFFCURVE",
"1134 444 CURVE SMOOTH",
"1134 0 LINE"
);
}
);
userData = {
com.schriftgestaltung.Glyphs.lastChange = "2019-11-25 09:02:10 +0000";
};
width = 1370;
}
);
leftMetricsKey = f;
rightMetricsKey = h;
},
{
glyphname = f_i.liga;
layers = (
{
layerId = "422CF5D5-EDAF-47A9-A829-F34A9B802C97";
paths = (
{
closed = 1;
nodes = (
"691 600 LINE",
"691 0 LINE",
"883 0 LINE",
"883 600 LINE"
);
},
{
closed = 1;
nodes = (
"883 800 LINE",
"283 800 LINE SMOOTH",
"201 800 OFFCURVE",
"156 755 OFFCURVE",
"156 673 CURVE SMOOTH",
"156 600 LINE",
"12 600 LINE",
"12 474 LINE",
"156 474 LINE",
"156 0 LINE",
"348 0 LINE",
"348 474 LINE",
"617 474 LINE",
"617 600 LINE",
"348 600 LINE",
"348 644 LINE SMOOTH",
"348 663 OFFCURVE",
"359 674 OFFCURVE",
"378 674 CURVE SMOOTH",
"883 674 LINE"
);
}
);
userData = {
com.schriftgestaltung.Glyphs.lastChange = "2019-11-25 04:01:42 +0000";
};
width = 929;
}
);
leftMetricsKey = f;
rightMetricsKey = i;
},
{
glyphname = f_j.liga;
layers = (
{
layerId = "422CF5D5-EDAF-47A9-A829-F34A9B802C97";
paths = (
{
closed = 1;
nodes = (
"156 474 LINE",
"156 0 LINE",
"348 0 LINE",
"348 474 LINE",
"612 474 LINE",
"612 -84 LINE SMOOTH",
"612 -103 OFFCURVE",
"601 -114 OFFCURVE",
"582 -114 CURVE SMOOTH",
"378 -114 LINE SMOOTH",
"359 -114 OFFCURVE",
"348 -103 OFFCURVE",
"348 -84 CURVE SMOOTH",
"348 -54 LINE",
"156 -54 LINE",
"156 -113 LINE SMOOTH",
"156 -195 OFFCURVE",
"201 -240 OFFCURVE",
"283 -240 CURVE SMOOTH",
"677 -240 LINE SMOOTH",
"759 -240 OFFCURVE",
"804 -195 OFFCURVE",
"804 -113 CURVE SMOOTH",
"804 600 LINE",
"348 600 LINE",
"348 644 LINE SMOOTH",
"348 663 OFFCURVE",
"358 674 OFFCURVE",
"378 674 CURVE SMOOTH",
"804 674 LINE",
"804 800 LINE",
"283 800 LINE SMOOTH",
"200 800 OFFCURVE",
"156 755 OFFCURVE",
"156 673 CURVE SMOOTH",
"156 600 LINE",
"12 600 LINE",
"12 474 LINE"
);
}
);
userData = {
com.schriftgestaltung.Glyphs.lastChange = "2019-11-25 09:29:44 +0000";
};
width = 850;
}
);
leftMetricsKey = f;
rightMetricsKey = j;
},
{
glyphname = f_k.liga;
layers = (
{
layerId = "422CF5D5-EDAF-47A9-A829-F34A9B802C97";
paths = (
{
closed = 1;
nodes = (
"156 474 LINE",
"156 0 LINE",
"348 0 LINE",
"348 474 LINE",
"617 474 LINE",
"617 600 LINE",
"348 600 LINE",
"348 644 LINE SMOOTH",
"348 663 OFFCURVE",
"359 674 OFFCURVE",
"378 674 CURVE SMOOTH",
"691 674 LINE",
"691 0 LINE",
"883 0 LINE",
"883 237 LINE",
"1038 237 LINE",
"1174 0 LINE",
"1387 0 LINE",
"1202 300 LINE",
"1387 600 LINE",
"1174 600 LINE",
"1037 363 LINE",
"883 363 LINE",
"883 800 LINE",
"283 800 LINE SMOOTH",
"201 800 OFFCURVE",
"156 755 OFFCURVE",
"156 673 CURVE SMOOTH",
"156 600 LINE",
"12 600 LINE",
"12 474 LINE"
);
}
);
userData = {
com.schriftgestaltung.Glyphs.lastChange = "2019-11-25 09:13:40 +0000";
};
width = 1379;
}
);
leftMetricsKey = f;
rightMetricsKey = k;
},
{
glyphname = f_r.liga;
layers = (
{
layerId = "422CF5D5-EDAF-47A9-A829-F34A9B802C97";
paths = (
{
closed = 1;
nodes = (
"883 0 LINE",
"883 474 LINE",
"1084 474 LINE SMOOTH",
"1103 474 OFFCURVE",
"1114 463 OFFCURVE",
"1114 444 CURVE SMOOTH",
"1114 414 LINE",
"1307 414 LINE",
"1307 456 LINE SMOOTH",
"1307 549 OFFCURVE",
"1256 600 OFFCURVE",
"1163 600 CURVE SMOOTH",
"691 600 LINE",
"691 0 LINE"
);
},
{
closed = 1;
nodes = (
"883 800 LINE",
"283 800 LINE SMOOTH",
"201 800 OFFCURVE",
"156 755 OFFCURVE",
"156 673 CURVE SMOOTH",
"156 600 LINE",
"12 600 LINE",
"12 474 LINE",
"156 474 LINE",
"156 0 LINE",
"348 0 LINE",
"348 474 LINE",
"617 474 LINE",
"617 600 LINE",
"348 600 LINE",
"348 644 LINE SMOOTH",
"348 663 OFFCURVE",
"359 674 OFFCURVE",
"378 674 CURVE SMOOTH",
"883 674 LINE"
);
}
);
userData = {
com.schriftgestaltung.Glyphs.lastChange = "2019-11-25 09:24:31 +0000";
};
width = 1318;
}
);
leftMetricsKey = f;
rightMetricsKey = r;
},
{
glyphname = f_t.liga;
layers = (
{
layerId = "422CF5D5-EDAF-47A9-A829-F34A9B802C97";
paths = (
{
closed = 1;
nodes = (
"156 474 LINE",
"156 0 LINE",
"348 0 LINE",
"348 474 LINE",
"691 474 LINE",
"691 127 LINE SMOOTH",
"691 45 OFFCURVE",
"736 0 OFFCURVE",
"818 0 CURVE SMOOTH",
"1162 0 LINE SMOOTH",
"1244 0 OFFCURVE",
"1289 45 OFFCURVE",
"1289 127 CURVE SMOOTH",
"1289 186 LINE",
"1097 186 LINE",
"1097 156 LINE SMOOTH",
"1097 137 OFFCURVE",
"1086 126 OFFCURVE",
"1067 126 CURVE SMOOTH",
"913 126 LINE SMOOTH",
"894 126 OFFCURVE",
"883 137 OFFCURVE",
"883 156 CURVE SMOOTH",
"883 474 LINE",
"1289 474 LINE",
"1289 600 LINE",
"883 600 LINE",
"883 800 LINE",
"691 800 LINE",
"691 600 LINE",
"348 600 LINE",
"348 644 LINE SMOOTH",
"348 663 OFFCURVE",
"359 674 OFFCURVE",
"378 674 CURVE SMOOTH",
"617 674 LINE",
"617 800 LINE",
"283 800 LINE SMOOTH",
"201 800 OFFCURVE",
"156 755 OFFCURVE",
"156 673 CURVE SMOOTH",
"156 600 LINE",
"12 600 LINE",
"12 474 LINE"
);
}
);
userData = {
com.schriftgestaltung.Glyphs.lastChange = "2019-11-25 08:48:10 +0000";
};
width = 1301;
}
);
leftMetricsKey = f;
rightMetricsKey = t;
},
{
glyphname = s_h.liga;
layers = (
{
layerId = "422CF5D5-EDAF-47A9-A829-F34A9B802C97";
paths = (
{
closed = 1;
nodes = (
"32 51 OFFCURVE",
"83 0 OFFCURVE",
"176 0 CURVE SMOOTH",
"536 0 LINE SMOOTH",
"629 0 OFFCURVE",
"680 51 OFFCURVE",
"680 144 CURVE SMOOTH",
"680 220 LINE SMOOTH",
"680 313 OFFCURVE",
"629 364 OFFCURVE",
"536 364 CURVE SMOOTH",
"254 364 LINE SMOOTH",
"235 364 OFFCURVE",
"224 375 OFFCURVE",
"224 394 CURVE SMOOTH",
"224 444 LINE SMOOTH",
"224 463 OFFCURVE",
"235 474 OFFCURVE",
"254 474 CURVE SMOOTH",
"688 474 LINE",
"688 644 LINE SMOOTH",
"688 663 OFFCURVE",
"699 674 OFFCURVE",
"718 674 CURVE SMOOTH",
"728 674 LINE SMOOTH",
"747 674 OFFCURVE",
"758 663 OFFCURVE",
"758 644 CURVE SMOOTH",
"758 0 LINE",
"950 0 LINE",
"950 474 LINE",
"1171 474 LINE SMOOTH",
"1190 474 OFFCURVE",
"1201 463 OFFCURVE",
"1201 444 CURVE SMOOTH",
"1201 0 LINE",
"1394 0 LINE",
"1394 456 LINE SMOOTH",
"1394 549 OFFCURVE",
"1343 600 OFFCURVE",
"1250 600 CURVE SMOOTH",
"950 600 LINE",
"950 656 LINE SMOOTH",
"950 749 OFFCURVE",
"899 800 OFFCURVE",
"806 800 CURVE SMOOTH",
"640 800 LINE SMOOTH",
"547 800 OFFCURVE",
"496 749 OFFCURVE",
"496 656 CURVE SMOOTH",
"496 600 LINE",
"176 600 LINE SMOOTH",
"83 600 OFFCURVE",
"32 549 OFFCURVE",
"32 456 CURVE SMOOTH",
"32 380 LINE SMOOTH",
"32 287 OFFCURVE",
"83 236 OFFCURVE",
"176 236 CURVE SMOOTH",
"458 236 LINE SMOOTH",
"477 236 OFFCURVE",
"488 225 OFFCURVE",
"488 206 CURVE SMOOTH",
"488 156 LINE SMOOTH",
"488 137 OFFCURVE",
"477 126 OFFCURVE",
"458 126 CURVE SMOOTH",
"254 126 LINE SMOOTH",
"235 126 OFFCURVE",
"224 137 OFFCURVE",
"224 156 CURVE SMOOTH",
"224 186 LINE",
"32 186 LINE",
"32 144 LINE SMOOTH"
);
}
);
userData = {
com.schriftgestaltung.Glyphs.lastChange = "2019-11-25 03:23:57 +0000";
};
width = 1437;
}
);
leftMetricsKey = s;
rightMetricsKey = h;
},
{
glyphname = s_k.liga;
layers = (
{
layerId = "422CF5D5-EDAF-47A9-A829-F34A9B802C97";
paths = (
{
closed = 1;
nodes = (
"32 51 OFFCURVE",
"83 0 OFFCURVE",
"176 0 CURVE SMOOTH",
"536 0 LINE SMOOTH",
"629 0 OFFCURVE",
"680 51 OFFCURVE",
"680 144 CURVE SMOOTH",
"680 220 LINE SMOOTH",
"680 313 OFFCURVE",
"629 364 OFFCURVE",
"536 364 CURVE SMOOTH",
"254 364 LINE SMOOTH",
"235 364 OFFCURVE",
"224 375 OFFCURVE",
"224 394 CURVE SMOOTH",
"224 444 LINE SMOOTH",
"224 463 OFFCURVE",
"235 474 OFFCURVE",
"254 474 CURVE SMOOTH",
"688 474 LINE",
"688 644 LINE SMOOTH",
"688 663 OFFCURVE",
"699 674 OFFCURVE",
"718 674 CURVE SMOOTH",
"728 674 LINE SMOOTH",
"747 674 OFFCURVE",
"758 663 OFFCURVE",
"758 644 CURVE SMOOTH",
"758 0 LINE",
"950 0 LINE",
"950 237 LINE",
"1105 237 LINE",
"1241 0 LINE",
"1454 0 LINE",
"1269 300 LINE",
"1454 600 LINE",
"1241 600 LINE",
"1104 363 LINE",
"950 363 LINE",
"950 656 LINE SMOOTH",
"950 749 OFFCURVE",
"899 800 OFFCURVE",
"806 800 CURVE SMOOTH",
"640 800 LINE SMOOTH",
"547 800 OFFCURVE",
"496 749 OFFCURVE",
"496 656 CURVE SMOOTH",
"496 600 LINE",
"176 600 LINE SMOOTH",
"83 600 OFFCURVE",
"32 549 OFFCURVE",
"32 456 CURVE SMOOTH",
"32 380 LINE SMOOTH",
"32 287 OFFCURVE",
"83 236 OFFCURVE",
"176 236 CURVE SMOOTH",
"458 236 LINE SMOOTH",
"477 236 OFFCURVE",
"488 225 OFFCURVE",
"488 206 CURVE SMOOTH",
"488 156 LINE SMOOTH",
"488 137 OFFCURVE",
"477 126 OFFCURVE",
"458 126 CURVE SMOOTH",
"254 126 LINE SMOOTH",
"235 126 OFFCURVE",
"224 137 OFFCURVE",
"224 156 CURVE SMOOTH",
"224 186 LINE",
"32 186 LINE",
"32 144 LINE SMOOTH"
);
}
);
userData = {
com.schriftgestaltung.Glyphs.lastChange = "2019-11-25 03:45:13 +0000";
};
width = 1446;
}
);
leftMetricsKey = s;
rightMetricsKey = k;
},
{
glyphname = s_p.liga;
layers = (
{
layerId = "422CF5D5-EDAF-47A9-A829-F34A9B802C97";
paths = (
{
closed = 1;
nodes = (
"32 51 OFFCURVE",
"83 0 OFFCURVE",
"176 0 CURVE SMOOTH",
"536 0 LINE SMOOTH",
"629 0 OFFCURVE",
"680 51 OFFCURVE",
"680 144 CURVE SMOOTH",
"680 220 LINE SMOOTH",
"680 313 OFFCURVE",
"629 364 OFFCURVE",
"536 364 CURVE SMOOTH",
"254 364 LINE SMOOTH",
"235 364 OFFCURVE",
"224 375 OFFCURVE",
"224 394 CURVE SMOOTH",
"224 444 LINE SMOOTH",
"224 463 OFFCURVE",
"235 474 OFFCURVE",
"254 474 CURVE SMOOTH",
"688 474 LINE",
"688 644 LINE SMOOTH",
"688 663 OFFCURVE",
"699 674 OFFCURVE",
"718 674 CURVE SMOOTH",
"728 674 LINE SMOOTH",
"747 674 OFFCURVE",
"758 663 OFFCURVE",
"758 644 CURVE SMOOTH",
"758 -200 LINE",
"950 -200 LINE",
"950 0 LINE",
"1250 0 LINE SMOOTH",
"1343 0 OFFCURVE",
"1394 51 OFFCURVE",
"1394 144 CURVE SMOOTH",
"1394 456 LINE SMOOTH",
"1394 549 OFFCURVE",
"1343 600 OFFCURVE",
"1250 600 CURVE SMOOTH",
"950 600 LINE",
"950 656 LINE SMOOTH",
"950 749 OFFCURVE",
"899 800 OFFCURVE",
"806 800 CURVE SMOOTH",
"640 800 LINE SMOOTH",
"547 800 OFFCURVE",
"496 749 OFFCURVE",
"496 656 CURVE SMOOTH",
"496 600 LINE",
"176 600 LINE SMOOTH",
"83 600 OFFCURVE",
"32 549 OFFCURVE",
"32 456 CURVE SMOOTH",
"32 380 LINE SMOOTH",
"32 287 OFFCURVE",
"83 236 OFFCURVE",
"176 236 CURVE SMOOTH",
"458 236 LINE SMOOTH",
"477 236 OFFCURVE",
"488 225 OFFCURVE",
"488 206 CURVE SMOOTH",
"488 156 LINE SMOOTH",
"488 137 OFFCURVE",
"477 126 OFFCURVE",
"458 126 CURVE SMOOTH",
"254 126 LINE SMOOTH",
"235 126 OFFCURVE",
"224 137 OFFCURVE",
"224 156 CURVE SMOOTH",
"224 186 LINE",
"32 186 LINE",
"32 144 LINE SMOOTH"
);
},
{
closed = 1;
nodes = (
"950 474 LINE",
"1171 474 LINE SMOOTH",
"1190 474 OFFCURVE",
"1201 463 OFFCURVE",
"1201 444 CURVE SMOOTH",
"1201 156 LINE SMOOTH",
"1201 137 OFFCURVE",
"1190 126 OFFCURVE",
"1171 126 CURVE SMOOTH",
"950 126 LINE"
);
}
);
userData = {
com.schriftgestaltung.Glyphs.lastChange = "2019-11-25 03:41:00 +0000";
};
width = 1433;
}
);
leftMetricsKey = s;
rightMetricsKey = p;
},
{
glyphname = s_t.liga;
layers = (
{
layerId = "422CF5D5-EDAF-47A9-A829-F34A9B802C97";
paths = (
{
closed = 1;
nodes = (
"32 51 OFFCURVE",
"83 0 OFFCURVE",
"176 0 CURVE SMOOTH",
"536 0 LINE SMOOTH",
"629 0 OFFCURVE",
"680 51 OFFCURVE",
"680 144 CURVE SMOOTH",
"680 220 LINE SMOOTH",
"680 313 OFFCURVE",
"629 364 OFFCURVE",
"536 364 CURVE SMOOTH",
"254 364 LINE SMOOTH",
"235 364 OFFCURVE",
"224 375 OFFCURVE",
"224 394 CURVE SMOOTH",
"224 444 LINE SMOOTH",
"224 463 OFFCURVE",
"235 474 OFFCURVE",
"254 474 CURVE SMOOTH",
"680 474 LINE",
"680 644 LINE SMOOTH",
"680 663 OFFCURVE",
"691 674 OFFCURVE",
"710 674 CURVE SMOOTH",
"829 674 LINE SMOOTH",
"848 674 OFFCURVE",
"859 663 OFFCURVE",
"859 644 CURVE SMOOTH",
"859 600 LINE",
"754 600 LINE",
"754 474 LINE",
"858 474 LINE",
"858 127 LINE SMOOTH",
"858 45 OFFCURVE",
"903 0 OFFCURVE",
"985 0 CURVE SMOOTH",
"1329 0 LINE SMOOTH",
"1411 0 OFFCURVE",
"1456 45 OFFCURVE",
"1456 127 CURVE SMOOTH",
"1456 186 LINE",
"1264 186 LINE",
"1264 156 LINE SMOOTH",
"1264 137 OFFCURVE",
"1253 126 OFFCURVE",
"1234 126 CURVE SMOOTH",
"1080 126 LINE SMOOTH",
"1061 126 OFFCURVE",
"1050 137 OFFCURVE",
"1050 156 CURVE SMOOTH",
"1050 474 LINE",
"1456 474 LINE",
"1456 600 LINE",
"1051 600 LINE",
"1051 656 LINE SMOOTH",
"1051 749 OFFCURVE",
"1000 800 OFFCURVE",
"907 800 CURVE SMOOTH",
"632 800 LINE SMOOTH",
"539 800 OFFCURVE",
"488 749 OFFCURVE",
"488 656 CURVE SMOOTH",
"488 600 LINE",
"176 600 LINE SMOOTH",
"83 600 OFFCURVE",
"32 549 OFFCURVE",
"32 456 CURVE SMOOTH",
"32 380 LINE SMOOTH",
"32 287 OFFCURVE",
"83 236 OFFCURVE",
"176 236 CURVE SMOOTH",
"458 236 LINE SMOOTH",
"477 236 OFFCURVE",
"488 225 OFFCURVE",
"488 206 CURVE SMOOTH",
"488 156 LINE SMOOTH",
"488 137 OFFCURVE",
"477 126 OFFCURVE",
"458 126 CURVE SMOOTH",
"254 126 LINE SMOOTH",
"235 126 OFFCURVE",
"224 137 OFFCURVE",
"224 156 CURVE SMOOTH",
"224 186 LINE",
"32 186 LINE",
"32 144 LINE SMOOTH"
);
}
);
userData = {
com.schriftgestaltung.Glyphs.lastChange = "2019-11-25 03:46:20 +0000";
};
width = 1468;
}
);
leftMetricsKey = s;
rightMetricsKey = t;
},
{
glyphname = t_t.liga;
layers = (
{
layerId = "422CF5D5-EDAF-47A9-A829-F34A9B802C97";
paths = (
{
closed = 1;
nodes = (
"156 474 LINE",
"156 127 LINE SMOOTH",
"156 45 OFFCURVE",
"201 0 OFFCURVE",
"283 0 CURVE SMOOTH",
"674 0 LINE",
"674 126 LINE",
"378 126 LINE SMOOTH",
"359 126 OFFCURVE",
"348 137 OFFCURVE",
"348 156 CURVE SMOOTH",
"348 474 LINE",
"744 474 LINE",
"744 127 LINE SMOOTH",
"744 45 OFFCURVE",
"789 0 OFFCURVE",
"871 0 CURVE SMOOTH",
"1215 0 LINE SMOOTH",
"1297 0 OFFCURVE",
"1342 45 OFFCURVE",
"1342 127 CURVE SMOOTH",
"1342 186 LINE",
"1150 186 LINE",
"1150 156 LINE SMOOTH",
"1150 137 OFFCURVE",
"1139 126 OFFCURVE",
"1120 126 CURVE SMOOTH",
"966 126 LINE SMOOTH",
"947 126 OFFCURVE",
"936 137 OFFCURVE",
"936 156 CURVE SMOOTH",
"936 474 LINE",
"1342 474 LINE",
"1342 600 LINE",
"936 600 LINE",
"936 800 LINE",
"744 800 LINE",
"744 600 LINE",
"348 600 LINE",
"348 800 LINE",
"156 800 LINE",
"156 600 LINE",
"12 600 LINE",
"12 474 LINE"
);
}
);
userData = {
com.schriftgestaltung.Glyphs.lastChange = "2020-02-02 17:02:51 +0000";
};
width = 1354;
}
);
leftMetricsKey = t;
rightMetricsKey = t;
},
{
glyphname = c_b.ss01.liga;
layers = (
{
layerId = "422CF5D5-EDAF-47A9-A829-F34A9B802C97";
paths = (
{
closed = 1;
nodes = (
"40 45 OFFCURVE",
"85 0 OFFCURVE",
"167 0 CURVE SMOOTH",
"561 0 LINE SMOOTH",
"643 0 OFFCURVE",
"688 45 OFFCURVE",
"688 127 CURVE SMOOTH",
"688 186 LINE",
"496 186 LINE",
"496 156 LINE SMOOTH",
"496 137 OFFCURVE",
"485 126 OFFCURVE",
"466 126 CURVE SMOOTH",
"262 126 LINE SMOOTH",
"243 126 OFFCURVE",
"232 137 OFFCURVE",
"232 156 CURVE SMOOTH",
"232 444 LINE SMOOTH",
"232 463 OFFCURVE",
"243 474 OFFCURVE",
"262 474 CURVE SMOOTH",
"466 474 LINE SMOOTH",
"485 474 OFFCURVE",
"496 463 OFFCURVE",
"496 444 CURVE SMOOTH",
"496 414 LINE",
"688 414 LINE",
"688 644 LINE SMOOTH",
"688 663 OFFCURVE",
"699 674 OFFCURVE",
"718 674 CURVE SMOOTH",
"728 674 LINE SMOOTH",
"747 674 OFFCURVE",
"758 663 OFFCURVE",
"758 644 CURVE SMOOTH",
"758 0 LINE",
"950 0 LINE",
"950 100 LINE",
"960 100 LINE",
"975 35 OFFCURVE",
"1023 0 OFFCURVE",
"1100 0 CURVE SMOOTH",
"1250 0 LINE SMOOTH",
"1343 0 OFFCURVE",
"1394 51 OFFCURVE",
"1394 144 CURVE SMOOTH",
"1394 456 LINE SMOOTH",
"1394 549 OFFCURVE",
"1343 600 OFFCURVE",
"1250 600 CURVE SMOOTH",
"1100 600 LINE SMOOTH",
"1023 600 OFFCURVE",
"975 565 OFFCURVE",
"960 500 CURVE",
"950 500 LINE",
"950 656 LINE SMOOTH",
"950 749 OFFCURVE",
"899 800 OFFCURVE",
"806 800 CURVE SMOOTH",
"640 800 LINE SMOOTH",
"547 800 OFFCURVE",
"496 749 OFFCURVE",
"496 656 CURVE SMOOTH",
"496 500 LINE",
"486 500 LINE",
"471 565 OFFCURVE",
"423 600 OFFCURVE",
"346 600 CURVE SMOOTH",
"167 600 LINE SMOOTH",
"85 600 OFFCURVE",
"40 555 OFFCURVE",
"40 473 CURVE SMOOTH",
"40 127 LINE SMOOTH"
);
},
{
closed = 1;
nodes = (
"950 474 LINE",
"1201 474 LINE",
"1201 126 LINE",
"950 126 LINE"
);
}
);
userData = {
com.schriftgestaltung.Glyphs.lastChange = "2019-11-25 02:46:05 +0000";
};
width = 1433;
}
);
leftMetricsKey = c;
rightMetricsKey = b;
},
{
glyphname = c_h.ss01.liga;
layers = (
{
layerId = "422CF5D5-EDAF-47A9-A829-F34A9B802C97";
paths = (
{
closed = 1;
nodes = (
"1394 0 LINE",
"1394 456 LINE SMOOTH",
"1394 549 OFFCURVE",
"1343 600 OFFCURVE",
"1250 600 CURVE SMOOTH",
"1100 600 LINE SMOOTH",
"1023 600 OFFCURVE",
"975 565 OFFCURVE",
"960 500 CURVE",
"950 500 LINE",
"950 656 LINE SMOOTH",
"950 749 OFFCURVE",
"899 800 OFFCURVE",
"806 800 CURVE SMOOTH",
"640 800 LINE SMOOTH",
"547 800 OFFCURVE",
"496 749 OFFCURVE",
"496 656 CURVE SMOOTH",
"496 500 LINE",
"486 500 LINE",
"471 565 OFFCURVE",
"423 600 OFFCURVE",
"346 600 CURVE SMOOTH",
"167 600 LINE SMOOTH",
"85 600 OFFCURVE",
"40 555 OFFCURVE",
"40 473 CURVE SMOOTH",
"40 127 LINE SMOOTH",
"40 45 OFFCURVE",
"85 0 OFFCURVE",
"167 0 CURVE SMOOTH",
"561 0 LINE SMOOTH",
"643 0 OFFCURVE",
"688 45 OFFCURVE",
"688 127 CURVE SMOOTH",
"688 186 LINE",
"496 186 LINE",
"496 156 LINE SMOOTH",
"496 137 OFFCURVE",
"485 126 OFFCURVE",
"466 126 CURVE SMOOTH",
"262 126 LINE SMOOTH",
"243 126 OFFCURVE",
"232 137 OFFCURVE",
"232 156 CURVE SMOOTH",
"232 444 LINE SMOOTH",
"232 463 OFFCURVE",
"243 474 OFFCURVE",
"262 474 CURVE SMOOTH",
"466 474 LINE SMOOTH",
"485 474 OFFCURVE",
"496 463 OFFCURVE",
"496 444 CURVE SMOOTH",
"496 414 LINE",
"688 414 LINE",
"688 644 LINE SMOOTH",
"688 663 OFFCURVE",
"699 674 OFFCURVE",
"718 674 CURVE SMOOTH",
"728 674 LINE SMOOTH",
"747 674 OFFCURVE",
"758 663 OFFCURVE",
"758 644 CURVE SMOOTH",
"758 0 LINE",
"950 0 LINE",
"950 474 LINE",
"1201 474 LINE",
"1201 0 LINE"
);
}
);
userData = {
com.schriftgestaltung.Glyphs.lastChange = "2019-11-25 03:35:17 +0000";
};
width = 1437;
}
);
leftMetricsKey = c;
rightMetricsKey = h;
},
{
glyphname = f_b.ss01.liga;
layers = (
{
layerId = "422CF5D5-EDAF-47A9-A829-F34A9B802C97";
paths = (
{
closed = 1;
nodes = (
"156 474 LINE",
"156 0 LINE",
"348 0 LINE",
"348 474 LINE",
"617 474 LINE",
"617 600 LINE",
"348 600 LINE",
"348 644 LINE SMOOTH",
"348 663 OFFCURVE",
"359 674 OFFCURVE",
"378 674 CURVE SMOOTH",
"691 674 LINE",
"691 0 LINE",
"883 0 LINE",
"883 100 LINE",
"893 100 LINE",
"908 35 OFFCURVE",
"956 0 OFFCURVE",
"1033 0 CURVE SMOOTH",
"1183 0 LINE SMOOTH",
"1276 0 OFFCURVE",
"1327 51 OFFCURVE",
"1327 144 CURVE SMOOTH",
"1327 456 LINE SMOOTH",
"1327 549 OFFCURVE",
"1276 600 OFFCURVE",
"1183 600 CURVE SMOOTH",
"1033 600 LINE SMOOTH",
"956 600 OFFCURVE",
"908 565 OFFCURVE",
"893 500 CURVE",
"883 500 LINE",
"883 800 LINE",
"283 800 LINE SMOOTH",
"201 800 OFFCURVE",
"156 755 OFFCURVE",
"156 673 CURVE SMOOTH",
"156 600 LINE",
"12 600 LINE",
"12 474 LINE"
);
},
{
closed = 1;
nodes = (
"883 474 LINE",
"1134 474 LINE",
"1134 126 LINE",
"883 126 LINE"
);
}
);
userData = {
com.schriftgestaltung.Glyphs.lastChange = "2019-11-25 09:12:11 +0000";
};
width = 1366;
}
);
leftMetricsKey = f;
rightMetricsKey = b;
},
{
glyphname = f_h.ss01.liga;
layers = (
{
layerId = "422CF5D5-EDAF-47A9-A829-F34A9B802C97";
paths = (
{
closed = 1;
nodes = (
"1327 0 LINE",
"1327 456 LINE SMOOTH",
"1327 549 OFFCURVE",
"1276 600 OFFCURVE",
"1183 600 CURVE SMOOTH",
"1033 600 LINE SMOOTH",
"956 600 OFFCURVE",
"908 565 OFFCURVE",
"893 500 CURVE",
"883 500 LINE",
"883 800 LINE",
"283 800 LINE SMOOTH",
"201 800 OFFCURVE",
"156 755 OFFCURVE",
"156 673 CURVE SMOOTH",
"156 600 LINE",
"12 600 LINE",
"12 474 LINE",
"156 474 LINE",
"156 0 LINE",
"348 0 LINE",
"348 474 LINE",
"617 474 LINE",
"617 600 LINE",
"348 600 LINE",
"348 644 LINE SMOOTH",
"348 663 OFFCURVE",
"359 674 OFFCURVE",
"378 674 CURVE SMOOTH",
"691 674 LINE",
"691 0 LINE",
"883 0 LINE",
"883 474 LINE",
"1134 474 LINE",
"1134 0 LINE"
);
}
);
userData = {
com.schriftgestaltung.Glyphs.lastChange = "2019-11-25 09:12:43 +0000";
};
width = 1370;
}
);
leftMetricsKey = f;
rightMetricsKey = h;
},
{
glyphname = c_k.liga.ss01;
layers = (
{
layerId = "422CF5D5-EDAF-47A9-A829-F34A9B802C97";
paths = (
{
closed = 1;
nodes = (
"40 45 OFFCURVE",
"85 0 OFFCURVE",
"167 0 CURVE SMOOTH",
"561 0 LINE SMOOTH",
"643 0 OFFCURVE",
"688 45 OFFCURVE",
"688 127 CURVE SMOOTH",
"688 186 LINE",
"496 186 LINE",
"496 156 LINE SMOOTH",
"496 137 OFFCURVE",
"485 126 OFFCURVE",
"466 126 CURVE SMOOTH",
"262 126 LINE SMOOTH",
"243 126 OFFCURVE",
"232 137 OFFCURVE",
"232 156 CURVE SMOOTH",
"232 444 LINE SMOOTH",
"232 463 OFFCURVE",
"243 474 OFFCURVE",
"262 474 CURVE SMOOTH",
"466 474 LINE SMOOTH",
"485 474 OFFCURVE",
"496 463 OFFCURVE",
"496 444 CURVE SMOOTH",
"496 414 LINE",
"688 414 LINE",
"688 644 LINE SMOOTH",
"688 663 OFFCURVE",
"699 674 OFFCURVE",
"718 674 CURVE SMOOTH",
"728 674 LINE SMOOTH",
"747 674 OFFCURVE",
"758 663 OFFCURVE",
"758 644 CURVE SMOOTH",
"758 0 LINE",
"950 0 LINE",
"950 237 LINE",
"1105 237 LINE",
"1241 0 LINE",
"1454 0 LINE",
"1269 300 LINE",
"1454 600 LINE",
"1241 600 LINE",
"1104 363 LINE",
"950 363 LINE",
"950 656 LINE SMOOTH",
"950 749 OFFCURVE",
"899 800 OFFCURVE",
"806 800 CURVE SMOOTH",
"640 800 LINE SMOOTH",
"547 800 OFFCURVE",
"496 749 OFFCURVE",
"496 656 CURVE SMOOTH",
"496 500 LINE",
"486 500 LINE",
"471 565 OFFCURVE",
"423 600 OFFCURVE",
"346 600 CURVE SMOOTH",
"167 600 LINE SMOOTH",
"85 600 OFFCURVE",
"40 555 OFFCURVE",
"40 473 CURVE SMOOTH",
"40 127 LINE SMOOTH"
);
}
);
userData = {
com.schriftgestaltung.Glyphs.lastChange = "2019-11-25 02:59:47 +0000";
};
width = 1446;
}
);
leftMetricsKey = c;
rightMetricsKey = k;
},
{
glyphname = c_t.liga.ss01;
layers = (
{
layerId = "422CF5D5-EDAF-47A9-A829-F34A9B802C97";
paths = (
{
closed = 1;
nodes = (
"40 45 OFFCURVE",
"85 0 OFFCURVE",
"167 0 CURVE SMOOTH",
"561 0 LINE SMOOTH",
"643 0 OFFCURVE",
"688 45 OFFCURVE",
"688 127 CURVE SMOOTH",
"688 186 LINE",
"496 186 LINE",
"496 156 LINE SMOOTH",
"496 137 OFFCURVE",
"485 126 OFFCURVE",
"466 126 CURVE SMOOTH",
"262 126 LINE SMOOTH",
"243 126 OFFCURVE",
"232 137 OFFCURVE",
"232 156 CURVE SMOOTH",
"232 444 LINE SMOOTH",
"232 463 OFFCURVE",
"243 474 OFFCURVE",
"262 474 CURVE SMOOTH",
"466 474 LINE SMOOTH",
"485 474 OFFCURVE",
"496 463 OFFCURVE",
"496 444 CURVE SMOOTH",
"496 414 LINE",
"688 414 LINE",
"688 644 LINE SMOOTH",
"688 663 OFFCURVE",
"699 674 OFFCURVE",
"718 674 CURVE SMOOTH",
"838 674 LINE SMOOTH",
"857 674 OFFCURVE",
"868 663 OFFCURVE",
"868 644 CURVE SMOOTH",
"868 600 LINE",
"762 600 LINE",
"762 474 LINE",
"868 474 LINE",
"868 127 LINE SMOOTH",
"868 45 OFFCURVE",
"913 0 OFFCURVE",
"995 0 CURVE SMOOTH",
"1339 0 LINE SMOOTH",
"1421 0 OFFCURVE",
"1466 45 OFFCURVE",
"1466 127 CURVE SMOOTH",
"1466 186 LINE",
"1274 186 LINE",
"1274 156 LINE SMOOTH",
"1274 137 OFFCURVE",
"1263 126 OFFCURVE",
"1244 126 CURVE SMOOTH",
"1090 126 LINE SMOOTH",
"1071 126 OFFCURVE",
"1060 137 OFFCURVE",
"1060 156 CURVE SMOOTH",
"1060 474 LINE",
"1466 474 LINE",
"1466 600 LINE",
"1060 600 LINE",
"1060 656 LINE SMOOTH",
"1060 749 OFFCURVE",
"1009 800 OFFCURVE",
"916 800 CURVE SMOOTH",
"640 800 LINE SMOOTH",
"547 800 OFFCURVE",
"496 749 OFFCURVE",
"496 656 CURVE SMOOTH",
"496 500 LINE",
"486 500 LINE",
"471 565 OFFCURVE",
"423 600 OFFCURVE",
"346 600 CURVE SMOOTH",
"167 600 LINE SMOOTH",
"85 600 OFFCURVE",
"40 555 OFFCURVE",
"40 473 CURVE SMOOTH",
"40 127 LINE SMOOTH"
);
}
);
userData = {
com.schriftgestaltung.Glyphs.lastChange = "2019-11-25 03:00:15 +0000";
};
width = 1478;
}
);
leftMetricsKey = c;
rightMetricsKey = t;
},
{
glyphname = s_h.liga.ss01;
lastChange = "2020-02-19 04:34:57 +0000";
layers = (
{
layerId = "422CF5D5-EDAF-47A9-A829-F34A9B802C97";
paths = (
{
closed = 1;
nodes = (
"32 51 OFFCURVE",
"83 0 OFFCURVE",
"176 0 CURVE SMOOTH",
"536 0 LINE SMOOTH",
"629 0 OFFCURVE",
"680 51 OFFCURVE",
"680 144 CURVE SMOOTH",
"680 220 LINE SMOOTH",
"680 313 OFFCURVE",
"629 364 OFFCURVE",
"536 364 CURVE SMOOTH",
"254 364 LINE SMOOTH",
"235 364 OFFCURVE",
"224 375 OFFCURVE",
"224 394 CURVE SMOOTH",
"224 444 LINE SMOOTH",
"224 463 OFFCURVE",
"235 474 OFFCURVE",
"254 474 CURVE SMOOTH",
"466 474 LINE SMOOTH",
"485 474 OFFCURVE",
"496 463 OFFCURVE",
"496 444 CURVE SMOOTH",
"496 414 LINE",
"688 414 LINE",
"688 644 LINE SMOOTH",
"688 663 OFFCURVE",
"699 674 OFFCURVE",
"718 674 CURVE SMOOTH",
"728 674 LINE SMOOTH",
"747 674 OFFCURVE",
"758 663 OFFCURVE",
"758 644 CURVE SMOOTH",
"758 0 LINE",
"950 0 LINE",
"950 474 LINE",
"1201 474 LINE",
"1201 0 LINE",
"1394 0 LINE",
"1394 456 LINE SMOOTH",
"1394 549 OFFCURVE",
"1343 600 OFFCURVE",
"1250 600 CURVE SMOOTH",
"1100 600 LINE SMOOTH",
"1023 600 OFFCURVE",
"975 565 OFFCURVE",
"960 500 CURVE",
"950 500 LINE",
"950 656 LINE SMOOTH",
"950 749 OFFCURVE",
"899 800 OFFCURVE",
"806 800 CURVE SMOOTH",
"640 800 LINE SMOOTH",
"547 800 OFFCURVE",
"496 749 OFFCURVE",
"496 656 CURVE SMOOTH",
"496 500 LINE",
"486 500 LINE",
"471 565 OFFCURVE",
"423 600 OFFCURVE",
"346 600 CURVE SMOOTH",
"176 600 LINE SMOOTH",
"83 600 OFFCURVE",
"32 549 OFFCURVE",
"32 456 CURVE SMOOTH",
"32 380 LINE SMOOTH",
"32 287 OFFCURVE",
"83 236 OFFCURVE",
"176 236 CURVE SMOOTH",
"458 236 LINE SMOOTH",
"477 236 OFFCURVE",
"488 225 OFFCURVE",
"488 206 CURVE SMOOTH",
"488 156 LINE SMOOTH",
"488 137 OFFCURVE",
"477 126 OFFCURVE",
"458 126 CURVE SMOOTH",
"254 126 LINE SMOOTH",
"235 126 OFFCURVE",
"224 137 OFFCURVE",
"224 156 CURVE SMOOTH",
"224 186 LINE",
"32 186 LINE",
"32 144 LINE SMOOTH"
);
}
);
userData = {
com.schriftgestaltung.Glyphs.lastChange = "2019-11-25 03:38:39 +0000";
};
width = 1437;
}
);
leftMetricsKey = s;
rightMetricsKey = h;
},
{
glyphname = s_k.liga.ss01;
layers = (
{
layerId = "422CF5D5-EDAF-47A9-A829-F34A9B802C97";
paths = (
{
closed = 1;
nodes = (
"32 51 OFFCURVE",
"83 0 OFFCURVE",
"176 0 CURVE SMOOTH",
"536 0 LINE SMOOTH",
"629 0 OFFCURVE",
"680 51 OFFCURVE",
"680 144 CURVE SMOOTH",
"680 220 LINE SMOOTH",
"680 313 OFFCURVE",
"629 364 OFFCURVE",
"536 364 CURVE SMOOTH",
"254 364 LINE SMOOTH",
"235 364 OFFCURVE",
"224 375 OFFCURVE",
"224 394 CURVE SMOOTH",
"224 444 LINE SMOOTH",
"224 463 OFFCURVE",
"235 474 OFFCURVE",
"254 474 CURVE SMOOTH",
"466 474 LINE SMOOTH",
"485 474 OFFCURVE",
"496 463 OFFCURVE",
"496 444 CURVE SMOOTH",
"496 414 LINE",
"688 414 LINE",
"688 644 LINE SMOOTH",
"688 663 OFFCURVE",
"699 674 OFFCURVE",
"718 674 CURVE SMOOTH",
"728 674 LINE SMOOTH",
"747 674 OFFCURVE",
"758 663 OFFCURVE",
"758 644 CURVE SMOOTH",
"758 0 LINE",
"950 0 LINE",
"950 237 LINE",
"1105 237 LINE",
"1241 0 LINE",
"1454 0 LINE",
"1269 300 LINE",
"1454 600 LINE",
"1241 600 LINE",
"1104 363 LINE",
"950 363 LINE",
"950 656 LINE SMOOTH",
"950 749 OFFCURVE",
"899 800 OFFCURVE",
"806 800 CURVE SMOOTH",
"640 800 LINE SMOOTH",
"547 800 OFFCURVE",
"496 749 OFFCURVE",
"496 656 CURVE SMOOTH",
"496 500 LINE",
"486 500 LINE",
"471 565 OFFCURVE",
"423 600 OFFCURVE",
"346 600 CURVE SMOOTH",
"176 600 LINE SMOOTH",
"83 600 OFFCURVE",
"32 549 OFFCURVE",
"32 456 CURVE SMOOTH",
"32 380 LINE SMOOTH",
"32 287 OFFCURVE",
"83 236 OFFCURVE",
"176 236 CURVE SMOOTH",
"458 236 LINE SMOOTH",
"477 236 OFFCURVE",
"488 225 OFFCURVE",
"488 206 CURVE SMOOTH",
"488 156 LINE SMOOTH",
"488 137 OFFCURVE",
"477 126 OFFCURVE",
"458 126 CURVE SMOOTH",
"254 126 LINE SMOOTH",
"235 126 OFFCURVE",
"224 137 OFFCURVE",
"224 156 CURVE SMOOTH",
"224 186 LINE",
"32 186 LINE",
"32 144 LINE SMOOTH"
);
}
);
userData = {
com.schriftgestaltung.Glyphs.lastChange = "2019-11-25 03:41:58 +0000";
};
width = 1446;
}
);
leftMetricsKey = s;
rightMetricsKey = k;
},
{
glyphname = s_p.liga.ss01;
layers = (
{
layerId = "422CF5D5-EDAF-47A9-A829-F34A9B802C97";
paths = (
{
closed = 1;
nodes = (
"32 51 OFFCURVE",
"83 0 OFFCURVE",
"176 0 CURVE SMOOTH",
"536 0 LINE SMOOTH",
"629 0 OFFCURVE",
"680 51 OFFCURVE",
"680 144 CURVE SMOOTH",
"680 220 LINE SMOOTH",
"680 313 OFFCURVE",
"629 364 OFFCURVE",
"536 364 CURVE SMOOTH",
"254 364 LINE SMOOTH",
"235 364 OFFCURVE",
"224 375 OFFCURVE",
"224 394 CURVE SMOOTH",
"224 444 LINE SMOOTH",
"224 463 OFFCURVE",
"235 474 OFFCURVE",
"254 474 CURVE SMOOTH",
"466 474 LINE SMOOTH",
"485 474 OFFCURVE",
"496 463 OFFCURVE",
"496 444 CURVE SMOOTH",
"496 414 LINE",
"688 414 LINE",
"688 644 LINE SMOOTH",
"688 663 OFFCURVE",
"699 674 OFFCURVE",
"718 674 CURVE SMOOTH",
"728 674 LINE SMOOTH",
"747 674 OFFCURVE",
"758 663 OFFCURVE",
"758 644 CURVE SMOOTH",
"758 -200 LINE",
"950 -200 LINE",
"950 100 LINE",
"960 100 LINE",
"975 35 OFFCURVE",
"1023 0 OFFCURVE",
"1100 0 CURVE SMOOTH",
"1250 0 LINE SMOOTH",
"1343 0 OFFCURVE",
"1394 51 OFFCURVE",
"1394 144 CURVE SMOOTH",
"1394 456 LINE SMOOTH",
"1394 549 OFFCURVE",
"1343 600 OFFCURVE",
"1250 600 CURVE SMOOTH",
"1100 600 LINE SMOOTH",
"1023 600 OFFCURVE",
"975 565 OFFCURVE",
"960 500 CURVE",
"950 500 LINE",
"950 656 LINE SMOOTH",
"950 749 OFFCURVE",
"899 800 OFFCURVE",
"806 800 CURVE SMOOTH",
"640 800 LINE SMOOTH",
"547 800 OFFCURVE",
"496 749 OFFCURVE",
"496 656 CURVE SMOOTH",
"496 500 LINE",
"486 500 LINE",
"471 565 OFFCURVE",
"423 600 OFFCURVE",
"346 600 CURVE SMOOTH",
"176 600 LINE SMOOTH",
"83 600 OFFCURVE",
"32 549 OFFCURVE",
"32 456 CURVE SMOOTH",
"32 380 LINE SMOOTH",
"32 287 OFFCURVE",
"83 236 OFFCURVE",
"176 236 CURVE SMOOTH",
"458 236 LINE SMOOTH",
"477 236 OFFCURVE",
"488 225 OFFCURVE",
"488 206 CURVE SMOOTH",
"488 156 LINE SMOOTH",
"488 137 OFFCURVE",
"477 126 OFFCURVE",
"458 126 CURVE SMOOTH",
"254 126 LINE SMOOTH",
"235 126 OFFCURVE",
"224 137 OFFCURVE",
"224 156 CURVE SMOOTH",
"224 186 LINE",
"32 186 LINE",
"32 144 LINE SMOOTH"
);
},
{
closed = 1;
nodes = (
"950 474 LINE",
"1171 474 LINE SMOOTH",
"1190 474 OFFCURVE",
"1201 463 OFFCURVE",
"1201 444 CURVE SMOOTH",
"1201 156 LINE SMOOTH",
"1201 137 OFFCURVE",
"1190 126 OFFCURVE",
"1171 126 CURVE SMOOTH",
"950 126 LINE"
);
}
);
userData = {
com.schriftgestaltung.Glyphs.lastChange = "2019-11-29 01:11:51 +0000";
};
width = 1433;
}
);
leftMetricsKey = s;
rightMetricsKey = p;
},
{
glyphname = s_t.liga.ss01;
layers = (
{
layerId = "422CF5D5-EDAF-47A9-A829-F34A9B802C97";
paths = (
{
closed = 1;
nodes = (
"32 51 OFFCURVE",
"83 0 OFFCURVE",
"176 0 CURVE SMOOTH",
"536 0 LINE SMOOTH",
"629 0 OFFCURVE",
"680 51 OFFCURVE",
"680 144 CURVE SMOOTH",
"680 220 LINE SMOOTH",
"680 313 OFFCURVE",
"629 364 OFFCURVE",
"536 364 CURVE SMOOTH",
"254 364 LINE SMOOTH",
"235 364 OFFCURVE",
"224 375 OFFCURVE",
"224 394 CURVE SMOOTH",
"224 444 LINE SMOOTH",
"224 463 OFFCURVE",
"235 474 OFFCURVE",
"254 474 CURVE SMOOTH",
"458 474 LINE SMOOTH",
"477 474 OFFCURVE",
"488 463 OFFCURVE",
"488 444 CURVE SMOOTH",
"488 414 LINE",
"680 414 LINE",
"680 644 LINE SMOOTH",
"680 663 OFFCURVE",
"691 674 OFFCURVE",
"710 674 CURVE SMOOTH",
"829 674 LINE SMOOTH",
"848 674 OFFCURVE",
"859 663 OFFCURVE",
"859 644 CURVE SMOOTH",
"859 600 LINE",
"754 600 LINE",
"754 474 LINE",
"858 474 LINE",
"858 127 LINE SMOOTH",
"858 45 OFFCURVE",
"903 0 OFFCURVE",
"985 0 CURVE SMOOTH",
"1329 0 LINE SMOOTH",
"1411 0 OFFCURVE",
"1456 45 OFFCURVE",
"1456 127 CURVE SMOOTH",
"1456 186 LINE",
"1264 186 LINE",
"1264 156 LINE SMOOTH",
"1264 137 OFFCURVE",
"1253 126 OFFCURVE",
"1234 126 CURVE SMOOTH",
"1080 126 LINE SMOOTH",
"1061 126 OFFCURVE",
"1050 137 OFFCURVE",
"1050 156 CURVE SMOOTH",
"1050 474 LINE",
"1456 474 LINE",
"1456 600 LINE",
"1051 600 LINE",
"1051 656 LINE SMOOTH",
"1051 749 OFFCURVE",
"1000 800 OFFCURVE",
"907 800 CURVE SMOOTH",
"632 800 LINE SMOOTH",
"539 800 OFFCURVE",
"488 749 OFFCURVE",
"488 656 CURVE SMOOTH",
"488 500 LINE",
"478 500 LINE",
"463 565 OFFCURVE",
"415 600 OFFCURVE",
"338 600 CURVE SMOOTH",
"176 600 LINE SMOOTH",
"83 600 OFFCURVE",
"32 549 OFFCURVE",
"32 456 CURVE SMOOTH",
"32 380 LINE SMOOTH",
"32 287 OFFCURVE",
"83 236 OFFCURVE",
"176 236 CURVE SMOOTH",
"458 236 LINE SMOOTH",
"477 236 OFFCURVE",
"488 225 OFFCURVE",
"488 206 CURVE SMOOTH",
"488 156 LINE SMOOTH",
"488 137 OFFCURVE",
"477 126 OFFCURVE",
"458 126 CURVE SMOOTH",
"254 126 LINE SMOOTH",
"235 126 OFFCURVE",
"224 137 OFFCURVE",
"224 156 CURVE SMOOTH",
"224 186 LINE",
"32 186 LINE",
"32 144 LINE SMOOTH"
);
}
);
userData = {
com.schriftgestaltung.Glyphs.lastChange = "2019-11-25 03:59:00 +0000";
};
width = 1468;
}
);
leftMetricsKey = s;
rightMetricsKey = t;
},
{
glyphname = zero;
layers = (
{
layerId = "422CF5D5-EDAF-47A9-A829-F34A9B802C97";
paths = (
{
closed = 1;
nodes = (
"46 51 OFFCURVE",
"97 0 OFFCURVE",
"190 0 CURVE SMOOTH",
"650 0 LINE SMOOTH",
"743 0 OFFCURVE",
"794 51 OFFCURVE",
"794 144 CURVE SMOOTH",
"794 556 LINE SMOOTH",
"794 649 OFFCURVE",
"743 700 OFFCURVE",
"650 700 CURVE SMOOTH",
"190 700 LINE SMOOTH",
"97 700 OFFCURVE",
"46 649 OFFCURVE",
"46 556 CURVE SMOOTH",
"46 144 LINE SMOOTH"
);
},
{
closed = 1;
nodes = (
"250 526 LINE SMOOTH",
"250 545 OFFCURVE",
"261 556 OFFCURVE",
"280 556 CURVE SMOOTH",
"560 556 LINE SMOOTH",
"579 556 OFFCURVE",
"590 545 OFFCURVE",
"590 526 CURVE SMOOTH",
"590 174 LINE SMOOTH",
"590 155 OFFCURVE",
"579 144 OFFCURVE",
"560 144 CURVE SMOOTH",
"280 144 LINE SMOOTH",
"261 144 OFFCURVE",
"250 155 OFFCURVE",
"250 174 CURVE SMOOTH"
);
}
);
width = 840;
}
);
unicode = 0030;
},
{
glyphname = one;
layers = (
{
layerId = "422CF5D5-EDAF-47A9-A829-F34A9B802C97";
paths = (
{
closed = 1;
nodes = (
"778 0 LINE",
"778 144 LINE",
"507 144 LINE",
"507 700 LINE",
"32 700 LINE",
"32 556 LINE",
"303 556 LINE",
"303 144 LINE",
"32 144 LINE",
"32 0 LINE"
);
}
);
width = 791;
}
);
unicode = 0031;
},
{
glyphname = two;
layers = (
{
layerId = "422CF5D5-EDAF-47A9-A829-F34A9B802C97";
paths = (
{
closed = 1;
nodes = (
"791 0 LINE",
"791 216 LINE",
"587 216 LINE",
"587 144 LINE",
"247 144 LINE",
"247 244 LINE SMOOTH",
"247 263 OFFCURVE",
"258 274 OFFCURVE",
"277 274 CURVE SMOOTH",
"647 274 LINE SMOOTH",
"740 274 OFFCURVE",
"791 325 OFFCURVE",
"791 418 CURVE SMOOTH",
"791 556 LINE SMOOTH",
"791 649 OFFCURVE",
"740 700 OFFCURVE",
"647 700 CURVE SMOOTH",
"187 700 LINE SMOOTH",
"94 700 OFFCURVE",
"43 649 OFFCURVE",
"43 556 CURVE SMOOTH",
"43 484 LINE",
"247 484 LINE",
"247 526 LINE SMOOTH",
"247 545 OFFCURVE",
"258 556 OFFCURVE",
"277 556 CURVE SMOOTH",
"557 556 LINE SMOOTH",
"576 556 OFFCURVE",
"587 545 OFFCURVE",
"587 526 CURVE SMOOTH",
"587 448 LINE SMOOTH",
"587 429 OFFCURVE",
"576 418 OFFCURVE",
"557 418 CURVE SMOOTH",
"187 418 LINE SMOOTH",
"94 418 OFFCURVE",
"43 367 OFFCURVE",
"43 274 CURVE SMOOTH",
"43 0 LINE"
);
}
);
width = 834;
}
);
unicode = 0032;
},
{
glyphname = three;
layers = (
{
layerId = "422CF5D5-EDAF-47A9-A829-F34A9B802C97";
paths = (
{
closed = 1;
nodes = (
"34 51 OFFCURVE",
"85 0 OFFCURVE",
"178 0 CURVE SMOOTH",
"638 0 LINE SMOOTH",
"731 0 OFFCURVE",
"782 51 OFFCURVE",
"782 144 CURVE SMOOTH",
"782 195 LINE SMOOTH",
"782 288 OFFCURVE",
"731 339 OFFCURVE",
"638 339 CURVE",
"638 349 LINE",
"731 349 OFFCURVE",
"782 400 OFFCURVE",
"782 493 CURVE SMOOTH",
"782 556 LINE SMOOTH",
"782 649 OFFCURVE",
"731 700 OFFCURVE",
"638 700 CURVE SMOOTH",
"178 700 LINE SMOOTH",
"85 700 OFFCURVE",
"34 649 OFFCURVE",
"34 556 CURVE SMOOTH",
"34 484 LINE",
"238 484 LINE",
"238 526 LINE SMOOTH",
"238 545 OFFCURVE",
"249 556 OFFCURVE",
"268 556 CURVE SMOOTH",
"548 556 LINE SMOOTH",
"567 556 OFFCURVE",
"578 545 OFFCURVE",
"578 526 CURVE SMOOTH",
"578 456 LINE SMOOTH",
"578 437 OFFCURVE",
"567 426 OFFCURVE",
"548 426 CURVE SMOOTH",
"238 426 LINE",
"238 282 LINE",
"548 282 LINE SMOOTH",
"567 282 OFFCURVE",
"578 271 OFFCURVE",
"578 252 CURVE SMOOTH",
"578 174 LINE SMOOTH",
"578 155 OFFCURVE",
"567 144 OFFCURVE",
"548 144 CURVE SMOOTH",
"268 144 LINE SMOOTH",
"249 144 OFFCURVE",
"238 155 OFFCURVE",
"238 174 CURVE SMOOTH",
"238 216 LINE",
"34 216 LINE",
"34 144 LINE SMOOTH"
);
}
);
userData = {
com.schriftgestaltung.Glyphs.lastChange = "2020-01-31 17:28:12 +0000";
};
width = 821;
}
);
unicode = 0033;
},
{
glyphname = four;
layers = (
{
layerId = "422CF5D5-EDAF-47A9-A829-F34A9B802C97";
paths = (
{
closed = 1;
nodes = (
"539 182 LINE",
"539 0 LINE",
"743 0 LINE",
"743 182 LINE",
"924 182 LINE",
"924 326 LINE",
"743 326 LINE",
"743 700 LINE",
"539 700 LINE",
"539 326 LINE",
"222 326 LINE",
"492 700 LINE",
"288 700 LINE",
"18 326 LINE",
"18 182 LINE"
);
}
);
userData = {
com.schriftgestaltung.Glyphs.lastChange = "2019-12-04 14:13:48 +0000";
};
width = 940;
}
);
unicode = 0034;
},
{
glyphname = five;
layers = (
{
layerId = "422CF5D5-EDAF-47A9-A829-F34A9B802C97";
paths = (
{
closed = 1;
nodes = (
"46 51 OFFCURVE",
"97 0 OFFCURVE",
"190 0 CURVE SMOOTH",
"650 0 LINE SMOOTH",
"743 0 OFFCURVE",
"794 51 OFFCURVE",
"794 144 CURVE SMOOTH",
"794 282 LINE SMOOTH",
"794 375 OFFCURVE",
"743 426 OFFCURVE",
"650 426 CURVE SMOOTH",
"250 426 LINE",
"250 556 LINE",
"793 556 LINE",
"793 700 LINE",
"46 700 LINE",
"46 282 LINE",
"560 282 LINE SMOOTH",
"579 282 OFFCURVE",
"590 271 OFFCURVE",
"590 252 CURVE SMOOTH",
"590 174 LINE SMOOTH",
"590 155 OFFCURVE",
"579 144 OFFCURVE",
"560 144 CURVE SMOOTH",
"280 144 LINE SMOOTH",
"261 144 OFFCURVE",
"250 155 OFFCURVE",
"250 174 CURVE SMOOTH",
"250 216 LINE",
"46 216 LINE",
"46 144 LINE SMOOTH"
);
}
);
width = 834;
}
);
leftKerningGroup = five;
rightKerningGroup = five;
unicode = 0035;
},
{
glyphname = six;
layers = (
{
layerId = "422CF5D5-EDAF-47A9-A829-F34A9B802C97";
paths = (
{
closed = 1;
nodes = (
"794 649 OFFCURVE",
"743 700 OFFCURVE",
"650 700 CURVE SMOOTH",
"190 700 LINE SMOOTH",
"97 700 OFFCURVE",
"46 649 OFFCURVE",
"46 556 CURVE SMOOTH",
"46 144 LINE SMOOTH",
"46 51 OFFCURVE",
"97 0 OFFCURVE",
"190 0 CURVE SMOOTH",
"650 0 LINE SMOOTH",
"743 0 OFFCURVE",
"794 51 OFFCURVE",
"794 144 CURVE SMOOTH",
"794 282 LINE SMOOTH",
"794 375 OFFCURVE",
"743 426 OFFCURVE",
"650 426 CURVE SMOOTH",
"250 426 LINE",
"250 526 LINE SMOOTH",
"250 545 OFFCURVE",
"261 556 OFFCURVE",
"280 556 CURVE SMOOTH",
"560 556 LINE SMOOTH",
"579 556 OFFCURVE",
"590 545 OFFCURVE",
"590 526 CURVE SMOOTH",
"590 484 LINE",
"794 484 LINE",
"794 556 LINE SMOOTH"
);
},
{
closed = 1;
nodes = (
"590 174 LINE SMOOTH",
"590 155 OFFCURVE",
"579 144 OFFCURVE",
"560 144 CURVE SMOOTH",
"280 144 LINE SMOOTH",
"261 144 OFFCURVE",
"250 155 OFFCURVE",
"250 174 CURVE SMOOTH",
"250 282 LINE",
"560 282 LINE SMOOTH",
"579 282 OFFCURVE",
"590 271 OFFCURVE",
"590 252 CURVE SMOOTH"
);
}
);
width = 834;
}
);
leftKerningGroup = six;
rightKerningGroup = six;
unicode = 0036;
},
{
glyphname = seven;
layers = (
{
layerId = "422CF5D5-EDAF-47A9-A829-F34A9B802C97";
paths = (
{
closed = 1;
nodes = (
"408 0 LINE",
"762 556 LINE",
"762 700 LINE",
"14 700 LINE",
"14 556 LINE",
"514 556 LINE",
"160 0 LINE"
);
}
);
width = 780;
}
);
unicode = 0037;
},
{
glyphname = eight;
layers = (
{
layerId = "422CF5D5-EDAF-47A9-A829-F34A9B802C97";
paths = (
{
closed = 1;
nodes = (
"39 51 OFFCURVE",
"90 0 OFFCURVE",
"183 0 CURVE SMOOTH",
"643 0 LINE SMOOTH",
"736 0 OFFCURVE",
"787 51 OFFCURVE",
"787 144 CURVE SMOOTH",
"787 200 LINE SMOOTH",
"787 293 OFFCURVE",
"736 344 OFFCURVE",
"643 344 CURVE",
"736 344 OFFCURVE",
"787 395 OFFCURVE",
"787 488 CURVE SMOOTH",
"787 556 LINE SMOOTH",
"787 649 OFFCURVE",
"736 700 OFFCURVE",
"643 700 CURVE SMOOTH",
"183 700 LINE SMOOTH",
"90 700 OFFCURVE",
"39 649 OFFCURVE",
"39 556 CURVE SMOOTH",
"39 488 LINE SMOOTH",
"39 395 OFFCURVE",
"90 344 OFFCURVE",
"183 344 CURVE",
"90 344 OFFCURVE",
"39 293 OFFCURVE",
"39 200 CURVE SMOOTH",
"39 144 LINE SMOOTH"
);
},
{
closed = 1;
nodes = (
"243 252 LINE SMOOTH",
"243 271 OFFCURVE",
"254 282 OFFCURVE",
"273 282 CURVE SMOOTH",
"553 282 LINE SMOOTH",
"572 282 OFFCURVE",
"583 271 OFFCURVE",
"583 252 CURVE SMOOTH",
"583 174 LINE SMOOTH",
"583 155 OFFCURVE",
"572 144 OFFCURVE",
"553 144 CURVE SMOOTH",
"273 144 LINE SMOOTH",
"254 144 OFFCURVE",
"243 155 OFFCURVE",
"243 174 CURVE SMOOTH"
);
},
{
closed = 1;
nodes = (
"243 526 LINE SMOOTH",
"243 545 OFFCURVE",
"254 556 OFFCURVE",
"273 556 CURVE SMOOTH",
"553 556 LINE SMOOTH",
"572 556 OFFCURVE",
"583 545 OFFCURVE",
"583 526 CURVE SMOOTH",
"583 456 LINE SMOOTH",
"583 437 OFFCURVE",
"572 426 OFFCURVE",
"553 426 CURVE SMOOTH",
"273 426 LINE SMOOTH",
"254 426 OFFCURVE",
"243 437 OFFCURVE",
"243 456 CURVE SMOOTH"
);
}
);
width = 826;
}
);
unicode = 0038;
},
{
glyphname = nine;
layers = (
{
layerId = "422CF5D5-EDAF-47A9-A829-F34A9B802C97";
paths = (
{
closed = 1;
nodes = (
"40 51 OFFCURVE",
"91 0 OFFCURVE",
"184 0 CURVE SMOOTH",
"644 0 LINE SMOOTH",
"737 0 OFFCURVE",
"788 51 OFFCURVE",
"788 144 CURVE SMOOTH",
"788 556 LINE SMOOTH",
"788 649 OFFCURVE",
"737 700 OFFCURVE",
"644 700 CURVE SMOOTH",
"184 700 LINE SMOOTH",
"91 700 OFFCURVE",
"40 649 OFFCURVE",
"40 556 CURVE SMOOTH",
"40 426 LINE SMOOTH",
"40 333 OFFCURVE",
"91 282 OFFCURVE",
"184 282 CURVE SMOOTH",
"584 282 LINE",
"584 174 LINE SMOOTH",
"584 155 OFFCURVE",
"573 144 OFFCURVE",
"554 144 CURVE SMOOTH",
"274 144 LINE SMOOTH",
"255 144 OFFCURVE",
"244 155 OFFCURVE",
"244 174 CURVE SMOOTH",
"244 216 LINE",
"40 216 LINE",
"40 144 LINE SMOOTH"
);
},
{
closed = 1;
nodes = (
"244 526 LINE SMOOTH",
"244 545 OFFCURVE",
"255 556 OFFCURVE",
"274 556 CURVE SMOOTH",
"554 556 LINE SMOOTH",
"573 556 OFFCURVE",
"584 545 OFFCURVE",
"584 526 CURVE SMOOTH",
"584 426 LINE",
"274 426 LINE SMOOTH",
"255 426 OFFCURVE",
"244 437 OFFCURVE",
"244 456 CURVE SMOOTH"
);
}
);
width = 834;
}
);
leftKerningGroup = nine;
rightKerningGroup = nine;
unicode = 0039;
},
{
glyphname = five.ss01;
layers = (
{
layerId = "422CF5D5-EDAF-47A9-A829-F34A9B802C97";
paths = (
{
closed = 1;
nodes = (
"46 51 OFFCURVE",
"97 0 OFFCURVE",
"190 0 CURVE SMOOTH",
"650 0 LINE SMOOTH",
"743 0 OFFCURVE",
"794 51 OFFCURVE",
"794 144 CURVE SMOOTH",
"794 282 LINE SMOOTH",
"794 375 OFFCURVE",
"743 426 OFFCURVE",
"650 426 CURVE SMOOTH",
"422 426 LINE SMOOTH",
"334 426 OFFCURVE",
"279 386 OFFCURVE",
"262 312 CURVE",
"250 312 LINE",
"250 556 LINE",
"793 556 LINE",
"793 700 LINE",
"46 700 LINE",
"46 282 LINE",
"560 282 LINE SMOOTH",
"579 282 OFFCURVE",
"590 271 OFFCURVE",
"590 252 CURVE SMOOTH",
"590 174 LINE SMOOTH",
"590 155 OFFCURVE",
"579 144 OFFCURVE",
"560 144 CURVE SMOOTH",
"280 144 LINE SMOOTH",
"261 144 OFFCURVE",
"250 155 OFFCURVE",
"250 174 CURVE SMOOTH",
"250 216 LINE",
"46 216 LINE",
"46 144 LINE SMOOTH"
);
}
);
width = 834;
}
);
leftKerningGroup = five;
rightKerningGroup = five;
},
{
glyphname = six.ss01;
layers = (
{
layerId = "422CF5D5-EDAF-47A9-A829-F34A9B802C97";
paths = (
{
closed = 1;
nodes = (
"250 545 OFFCURVE",
"261 556 OFFCURVE",
"280 556 CURVE SMOOTH",
"560 556 LINE SMOOTH",
"579 556 OFFCURVE",
"590 545 OFFCURVE",
"590 526 CURVE SMOOTH",
"590 484 LINE",
"794 484 LINE",
"794 556 LINE SMOOTH",
"794 649 OFFCURVE",
"743 700 OFFCURVE",
"650 700 CURVE SMOOTH",
"190 700 LINE SMOOTH",
"97 700 OFFCURVE",
"46 649 OFFCURVE",
"46 556 CURVE SMOOTH",
"46 144 LINE SMOOTH",
"46 51 OFFCURVE",
"97 0 OFFCURVE",
"190 0 CURVE SMOOTH",
"650 0 LINE SMOOTH",
"743 0 OFFCURVE",
"794 51 OFFCURVE",
"794 144 CURVE SMOOTH",
"794 282 LINE SMOOTH",
"794 375 OFFCURVE",
"743 426 OFFCURVE",
"650 426 CURVE SMOOTH",
"422 426 LINE SMOOTH",
"334 426 OFFCURVE",
"279 386 OFFCURVE",
"262 312 CURVE",
"250 312 LINE",
"250 526 LINE SMOOTH"
);
},
{
closed = 1;
nodes = (
"590 174 LINE SMOOTH",
"590 155 OFFCURVE",
"579 144 OFFCURVE",
"560 144 CURVE SMOOTH",
"280 144 LINE SMOOTH",
"261 144 OFFCURVE",
"250 155 OFFCURVE",
"250 174 CURVE SMOOTH",
"250 282 LINE",
"560 282 LINE SMOOTH",
"579 282 OFFCURVE",
"590 271 OFFCURVE",
"590 252 CURVE SMOOTH"
);
}
);
width = 834;
}
);
leftKerningGroup = six;
rightKerningGroup = six;
},
{
glyphname = nine.ss01;
layers = (
{
layerId = "422CF5D5-EDAF-47A9-A829-F34A9B802C97";
paths = (
{
closed = 1;
nodes = (
"584 155 OFFCURVE",
"573 144 OFFCURVE",
"554 144 CURVE SMOOTH",
"274 144 LINE SMOOTH",
"255 144 OFFCURVE",
"244 155 OFFCURVE",
"244 174 CURVE SMOOTH",
"244 216 LINE",
"40 216 LINE",
"40 144 LINE SMOOTH",
"40 51 OFFCURVE",
"91 0 OFFCURVE",
"184 0 CURVE SMOOTH",
"644 0 LINE SMOOTH",
"737 0 OFFCURVE",
"788 51 OFFCURVE",
"788 144 CURVE SMOOTH",
"788 556 LINE SMOOTH",
"788 649 OFFCURVE",
"737 700 OFFCURVE",
"644 700 CURVE SMOOTH",
"184 700 LINE SMOOTH",
"91 700 OFFCURVE",
"40 649 OFFCURVE",
"40 556 CURVE SMOOTH",
"40 426 LINE SMOOTH",
"40 333 OFFCURVE",
"91 282 OFFCURVE",
"184 282 CURVE SMOOTH",
"412 282 LINE SMOOTH",
"500 282 OFFCURVE",
"555 322 OFFCURVE",
"572 396 CURVE",
"584 396 LINE",
"584 174 LINE SMOOTH"
);
},
{
closed = 1;
nodes = (
"244 526 LINE SMOOTH",
"244 545 OFFCURVE",
"255 556 OFFCURVE",
"274 556 CURVE SMOOTH",
"554 556 LINE SMOOTH",
"573 556 OFFCURVE",
"584 545 OFFCURVE",
"584 526 CURVE SMOOTH",
"584 426 LINE",
"274 426 LINE SMOOTH",
"255 426 OFFCURVE",
"244 437 OFFCURVE",
"244 456 CURVE SMOOTH"
);
}
);
width = 834;
}
);
leftKerningGroup = nine;
rightKerningGroup = nine;
},
{
glyphname = fraction;
layers = (
{
layerId = "422CF5D5-EDAF-47A9-A829-F34A9B802C97";
paths = (
{
closed = 1;
nodes = (
"835 700 LINE",
"583 700 LINE",
"-17 0 LINE",
"235 0 LINE"
);
}
);
userData = {
com.schriftgestaltung.Glyphs.lastChange = "2019-11-24 07:15:35 +0000";
};
width = 822;
}
);
unicode = 2044;
},
{
glyphname = period;
layers = (
{
layerId = "422CF5D5-EDAF-47A9-A829-F34A9B802C97";
paths = (
{
closed = 1;
nodes = (
"37 0 LINE",
"305 0 LINE",
"305 192 LINE",
"37 192 LINE"
);
}
);
width = 342;
}
);
leftKerningGroup = period;
rightKerningGroup = period;
unicode = 002E;
},
{
glyphname = comma;
layers = (
{
layerId = "422CF5D5-EDAF-47A9-A829-F34A9B802C97";
paths = (
{
closed = 1;
nodes = (
"173 -240 LINE",
"283 0 LINE SMOOTH",
"298 33 OFFCURVE",
"305 62 OFFCURVE",
"305 87 CURVE SMOOTH",
"305 155 OFFCURVE",
"256 192 OFFCURVE",
"196 192 CURVE SMOOTH",
"37 192 LINE",
"37 0 LINE",
"147 0 LINE",
"47 -240 LINE"
);
}
);
width = 328;
}
);
leftKerningGroup = period;
rightKerningGroup = period;
unicode = 002C;
},
{
glyphname = colon;
layers = (
{
layerId = "422CF5D5-EDAF-47A9-A829-F34A9B802C97";
paths = (
{
closed = 1;
nodes = (
"46 0 LINE",
"314 0 LINE",
"314 192 LINE",
"46 192 LINE"
);
},
{
closed = 1;
nodes = (
"46 408 LINE",
"314 408 LINE",
"314 600 LINE",
"46 600 LINE"
);
}
);
width = 360;
}
);
leftKerningGroup = colon;
rightKerningGroup = colon;
unicode = 003A;
},
{
glyphname = semicolon;
layers = (
{
layerId = "422CF5D5-EDAF-47A9-A829-F34A9B802C97";
paths = (
{
closed = 1;
nodes = (
"46 408 LINE",
"314 408 LINE",
"314 600 LINE",
"46 600 LINE"
);
},
{
closed = 1;
nodes = (
"182 -240 LINE",
"292 0 LINE SMOOTH",
"307 33 OFFCURVE",
"314 62 OFFCURVE",
"314 87 CURVE SMOOTH",
"314 155 OFFCURVE",
"265 192 OFFCURVE",
"205 192 CURVE SMOOTH",
"46 192 LINE",
"46 0 LINE",
"156 0 LINE",
"56 -240 LINE"
);
}
);
width = 355;
}
);
leftKerningGroup = colon;
rightKerningGroup = colon;
unicode = 003B;
},
{
glyphname = exclam;
layers = (
{
layerId = "422CF5D5-EDAF-47A9-A829-F34A9B802C97";
paths = (
{
closed = 1;
nodes = (
"321 700 LINE",
"27 700 LINE",
"83 279 LINE",
"265 279 LINE"
);
},
{
closed = 1;
nodes = (
"55 0 LINE",
"293 0 LINE",
"293 192 LINE",
"55 192 LINE"
);
}
);
width = 348;
}
);
unicode = 0021;
},
{
glyphname = exclamdown;
layers = (
{
layerId = "422CF5D5-EDAF-47A9-A829-F34A9B802C97";
paths = (
{
closed = 1;
nodes = (
"81 321 LINE",
"25 -100 LINE",
"319 -100 LINE",
"263 321 LINE"
);
},
{
closed = 1;
nodes = (
"291 408 LINE",
"291 600 LINE",
"53 600 LINE",
"53 408 LINE"
);
}
);
width = 344;
}
);
unicode = 00A1;
},
{
glyphname = question;
layers = (
{
layerId = "422CF5D5-EDAF-47A9-A829-F34A9B802C97";
paths = (
{
closed = 1;
nodes = (
"406 256 LINE",
"406 306 LINE SMOOTH",
"406 325 OFFCURVE",
"416 336 OFFCURVE",
"436 336 CURVE SMOOTH",
"520 336 LINE SMOOTH",
"613 336 OFFCURVE",
"664 387 OFFCURVE",
"664 480 CURVE SMOOTH",
"664 556 LINE SMOOTH",
"664 649 OFFCURVE",
"613 700 OFFCURVE",
"520 700 CURVE SMOOTH",
"160 700 LINE SMOOTH",
"67 700 OFFCURVE",
"16 649 OFFCURVE",
"16 556 CURVE SMOOTH",
"16 514 LINE",
"220 514 LINE",
"220 544 LINE SMOOTH",
"220 563 OFFCURVE",
"231 574 OFFCURVE",
"250 574 CURVE SMOOTH",
"430 574 LINE SMOOTH",
"449 574 OFFCURVE",
"460 563 OFFCURVE",
"460 544 CURVE SMOOTH",
"460 494 LINE SMOOTH",
"460 475 OFFCURVE",
"450 464 OFFCURVE",
"430 464 CURVE SMOOTH",
"346 464 LINE SMOOTH",
"253 464 OFFCURVE",
"202 413 OFFCURVE",
"202 320 CURVE SMOOTH",
"202 256 LINE"
);
},
{
closed = 1;
nodes = (
"185 0 LINE",
"423 0 LINE",
"423 192 LINE",
"185 192 LINE"
);
}
);
width = 688;
}
);
unicode = 003F;
},
{
glyphname = questiondown;
layers = (
{
layerId = "422CF5D5-EDAF-47A9-A829-F34A9B802C97";
paths = (
{
closed = 1;
nodes = (
"281 344 LINE",
"281 294 LINE SMOOTH",
"281 275 OFFCURVE",
"271 264 OFFCURVE",
"251 264 CURVE SMOOTH",
"167 264 LINE SMOOTH",
"74 264 OFFCURVE",
"23 213 OFFCURVE",
"23 120 CURVE SMOOTH",
"23 44 LINE SMOOTH",
"23 -49 OFFCURVE",
"74 -100 OFFCURVE",
"167 -100 CURVE SMOOTH",
"527 -100 LINE SMOOTH",
"620 -100 OFFCURVE",
"671 -49 OFFCURVE",
"671 44 CURVE SMOOTH",
"671 86 LINE",
"467 86 LINE",
"467 56 LINE SMOOTH",
"467 37 OFFCURVE",
"456 26 OFFCURVE",
"437 26 CURVE SMOOTH",
"257 26 LINE SMOOTH",
"238 26 OFFCURVE",
"227 37 OFFCURVE",
"227 56 CURVE SMOOTH",
"227 106 LINE SMOOTH",
"227 125 OFFCURVE",
"237 136 OFFCURVE",
"257 136 CURVE SMOOTH",
"341 136 LINE SMOOTH",
"434 136 OFFCURVE",
"485 187 OFFCURVE",
"485 280 CURVE SMOOTH",
"485 344 LINE"
);
},
{
closed = 1;
nodes = (
"502 600 LINE",
"264 600 LINE",
"264 408 LINE",
"502 408 LINE"
);
}
);
width = 686;
}
);
unicode = 00BF;
},
{
glyphname = periodcentered;
layers = (
{
layerId = "422CF5D5-EDAF-47A9-A829-F34A9B802C97";
paths = (
{
closed = 1;
nodes = (
"41 254 LINE",
"309 254 LINE",
"309 446 LINE",
"41 446 LINE"
);
}
);
width = 350;
}
);
unicode = 00B7;
},
{
glyphname = bullet;
layers = (
{
layerId = "422CF5D5-EDAF-47A9-A829-F34A9B802C97";
paths = (
{
closed = 1;
nodes = (
"67 200 LINE",
"485 200 LINE",
"485 500 LINE",
"67 500 LINE"
);
}
);
width = 552;
}
);
unicode = 2022;
},
{
glyphname = asterisk;
layers = (
{
layerId = "422CF5D5-EDAF-47A9-A829-F34A9B802C97";
paths = (
{
closed = 1;
nodes = (
"182 422 LINE",
"62 278 LINE",
"162 194 LINE",
"288 344 LINE",
"414 194 LINE",
"514 278 LINE",
"394 422 LINE",
"555 481 LINE",
"510 604 LINE",
"353 546 LINE",
"353 710 LINE",
"222 710 LINE",
"222 546 LINE",
"66 604 LINE",
"21 481 LINE"
);
}
);
width = 576;
}
);
unicode = 002A;
},
{
glyphname = numbersign;
layers = (
{
layerId = "422CF5D5-EDAF-47A9-A829-F34A9B802C97";
paths = (
{
closed = 1;
nodes = (
"126 141 LINE",
"88 0 LINE",
"280 0 LINE",
"318 141 LINE",
"446 141 LINE",
"408 0 LINE",
"600 0 LINE",
"638 141 LINE",
"741 141 LINE",
"773 263 LINE",
"671 263 LINE",
"717 437 LINE",
"821 437 LINE",
"853 559 LINE",
"750 559 LINE",
"788 700 LINE",
"596 700 LINE",
"558 559 LINE",
"430 559 LINE",
"468 700 LINE",
"276 700 LINE",
"238 559 LINE",
"129 559 LINE",
"96 437 LINE",
"205 437 LINE",
"159 263 LINE",
"49 263 LINE",
"16 141 LINE"
);
},
{
closed = 1;
nodes = (
"397 437 LINE",
"525 437 LINE",
"479 263 LINE",
"351 263 LINE"
);
}
);
userData = {
com.schriftgestaltung.Glyphs.lastChange = "2019-12-04 14:25:46 +0000";
};
width = 869;
}
);
unicode = 0023;
},
{
glyphname = slash;
layers = (
{
layerId = "422CF5D5-EDAF-47A9-A829-F34A9B802C97";
paths = (
{
closed = 1;
nodes = (
"405 700 LINE",
"213 700 LINE",
"13 -150 LINE",
"205 -150 LINE"
);
}
);
width = 418;
}
);
unicode = 002F;
},
{
glyphname = backslash;
layers = (
{
layerId = "422CF5D5-EDAF-47A9-A829-F34A9B802C97";
paths = (
{
closed = 1;
nodes = (
"405 -150 LINE",
"205 700 LINE",
"13 700 LINE",
"213 -150 LINE"
);
}
);
width = 418;
}
);
unicode = 005C;
},
{
glyphname = hyphen;
layers = (
{
layerId = "422CF5D5-EDAF-47A9-A829-F34A9B802C97";
paths = (
{
closed = 1;
nodes = (
"300 363 LINE",
"36 363 LINE",
"36 237 LINE",
"300 237 LINE"
);
}
);
width = 336;
}
);
leftKerningGroup = hyphen;
rightKerningGroup = hyphen;
unicode = 002D;
},
{
glyphname = endash;
layers = (
{
layerId = "422CF5D5-EDAF-47A9-A829-F34A9B802C97";
paths = (
{
closed = 1;
nodes = (
"433 237 LINE",
"433 363 LINE",
"36 363 LINE",
"36 237 LINE"
);
}
);
width = 469;
}
);
leftKerningGroup = hyphen;
rightKerningGroup = hyphen;
unicode = 2013;
},
{
glyphname = emdash;
layers = (
{
layerId = "422CF5D5-EDAF-47A9-A829-F34A9B802C97";
paths = (
{
closed = 1;
nodes = (
"564 237 LINE",
"564 363 LINE",
"36 363 LINE",
"36 237 LINE"
);
}
);
width = 600;
}
);
leftKerningGroup = hyphen;
rightKerningGroup = hyphen;
unicode = 2014;
},
{
glyphname = underscore;
layers = (
{
layerId = "422CF5D5-EDAF-47A9-A829-F34A9B802C97";
paths = (
{
closed = 1;
nodes = (
"551 -176 LINE",
"551 -50 LINE",
"23 -50 LINE",
"23 -176 LINE"
);
}
);
width = 574;
}
);
unicode = 005F;
},
{
glyphname = parenleft;
layers = (
{
layerId = "422CF5D5-EDAF-47A9-A829-F34A9B802C97";
paths = (
{
closed = 1;
nodes = (
"180 -144 LINE",
"324 -144 LINE",
"262 30 LINE SMOOTH",
"234 109 OFFCURVE",
"224 167 OFFCURVE",
"224 250 CURVE SMOOTH",
"224 306 LINE SMOOTH",
"224 389 OFFCURVE",
"234 447 OFFCURVE",
"262 526 CURVE SMOOTH",
"324 700 LINE",
"180 700 LINE",
"79 523 LINE SMOOTH",
"36 447 OFFCURVE",
"20 386 OFFCURVE",
"20 300 CURVE SMOOTH",
"20 256 LINE SMOOTH",
"20 170 OFFCURVE",
"36 109 OFFCURVE",
"79 33 CURVE SMOOTH"
);
}
);
width = 331;
}
);
unicode = 0028;
},
{
glyphname = parenright;
layers = (
{
layerId = "422CF5D5-EDAF-47A9-A829-F34A9B802C97";
paths = (
{
closed = 1;
nodes = (
"295 109 OFFCURVE",
"311 170 OFFCURVE",
"311 256 CURVE SMOOTH",
"311 300 LINE SMOOTH",
"311 386 OFFCURVE",
"295 447 OFFCURVE",
"252 523 CURVE SMOOTH",
"151 700 LINE",
"7 700 LINE",
"69 526 LINE SMOOTH",
"97 447 OFFCURVE",
"107 389 OFFCURVE",
"107 306 CURVE SMOOTH",
"107 250 LINE SMOOTH",
"107 167 OFFCURVE",
"97 109 OFFCURVE",
"69 30 CURVE SMOOTH",
"7 -144 LINE",
"151 -144 LINE",
"252 33 LINE SMOOTH"
);
}
);
width = 331;
}
);
unicode = 0029;
},
{
glyphname = braceleft;
layers = (
{
layerId = "422CF5D5-EDAF-47A9-A829-F34A9B802C97";
paths = (
{
closed = 1;
nodes = (
"47 206 LINE SMOOTH",
"66 206 OFFCURVE",
"77 195 OFFCURVE",
"77 174 CURVE SMOOTH",
"77 0 LINE SMOOTH",
"77 -93 OFFCURVE",
"128 -144 OFFCURVE",
"221 -144 CURVE SMOOTH",
"343 -144 LINE",
"343 0 LINE",
"311 0 LINE SMOOTH",
"292 0 OFFCURVE",
"281 11 OFFCURVE",
"281 30 CURVE SMOOTH",
"281 156 LINE SMOOTH",
"281 234 OFFCURVE",
"276 258 OFFCURVE",
"168 278 CURVE",
"276 298 OFFCURVE",
"281 322 OFFCURVE",
"281 400 CURVE SMOOTH",
"281 526 LINE SMOOTH",
"281 545 OFFCURVE",
"292 556 OFFCURVE",
"311 556 CURVE SMOOTH",
"343 556 LINE",
"343 700 LINE",
"221 700 LINE SMOOTH",
"128 700 OFFCURVE",
"77 649 OFFCURVE",
"77 556 CURVE SMOOTH",
"77 380 LINE SMOOTH",
"77 361 OFFCURVE",
"66 350 OFFCURVE",
"47 350 CURVE SMOOTH",
"15 350 LINE",
"15 206 LINE"
);
}
);
width = 371;
}
);
unicode = 007B;
},
{
glyphname = braceright;
layers = (
{
layerId = "422CF5D5-EDAF-47A9-A829-F34A9B802C97";
paths = (
{
closed = 1;
nodes = (
"356 350 LINE",
"324 350 LINE SMOOTH",
"305 350 OFFCURVE",
"294 361 OFFCURVE",
"294 380 CURVE SMOOTH",
"294 556 LINE SMOOTH",
"294 649 OFFCURVE",
"243 700 OFFCURVE",
"150 700 CURVE SMOOTH",
"28 700 LINE",
"28 556 LINE",
"60 556 LINE SMOOTH",
"79 556 OFFCURVE",
"90 545 OFFCURVE",
"90 526 CURVE SMOOTH",
"90 400 LINE SMOOTH",
"90 322 OFFCURVE",
"95 298 OFFCURVE",
"203 278 CURVE",
"95 258 OFFCURVE",
"90 234 OFFCURVE",
"90 156 CURVE SMOOTH",
"90 30 LINE SMOOTH",
"90 11 OFFCURVE",
"79 0 OFFCURVE",
"60 0 CURVE SMOOTH",
"28 0 LINE",
"28 -144 LINE",
"150 -144 LINE SMOOTH",
"243 -144 OFFCURVE",
"294 -93 OFFCURVE",
"294 0 CURVE SMOOTH",
"294 174 LINE SMOOTH",
"294 195 OFFCURVE",
"305 206 OFFCURVE",
"324 206 CURVE SMOOTH",
"356 206 LINE"
);
}
);
width = 371;
}
);
unicode = 007D;
},
{
glyphname = bracketleft;
layers = (
{
layerId = "422CF5D5-EDAF-47A9-A829-F34A9B802C97";
paths = (
{
closed = 1;
nodes = (
"311 700 LINE",
"189 700 LINE SMOOTH",
"96 700 OFFCURVE",
"45 649 OFFCURVE",
"45 556 CURVE SMOOTH",
"45 0 LINE SMOOTH",
"45 -93 OFFCURVE",
"96 -144 OFFCURVE",
"189 -144 CURVE SMOOTH",
"311 -144 LINE",
"311 0 LINE",
"279 0 LINE SMOOTH",
"260 0 OFFCURVE",
"249 11 OFFCURVE",
"249 30 CURVE SMOOTH",
"249 526 LINE SMOOTH",
"249 545 OFFCURVE",
"260 556 OFFCURVE",
"279 556 CURVE SMOOTH",
"311 556 LINE"
);
}
);
width = 340;
}
);
unicode = 005B;
},
{
glyphname = bracketright;
layers = (
{
layerId = "422CF5D5-EDAF-47A9-A829-F34A9B802C97";
paths = (
{
closed = 1;
nodes = (
"61 556 LINE SMOOTH",
"80 556 OFFCURVE",
"91 545 OFFCURVE",
"91 526 CURVE SMOOTH",
"91 30 LINE SMOOTH",
"91 11 OFFCURVE",
"80 0 OFFCURVE",
"61 0 CURVE SMOOTH",
"29 0 LINE",
"29 -144 LINE",
"151 -144 LINE SMOOTH",
"244 -144 OFFCURVE",
"295 -93 OFFCURVE",
"295 0 CURVE SMOOTH",
"295 556 LINE SMOOTH",
"295 649 OFFCURVE",
"244 700 OFFCURVE",
"151 700 CURVE SMOOTH",
"29 700 LINE",
"29 556 LINE"
);
}
);
width = 340;
}
);
unicode = 005D;
},
{
glyphname = quotedblleft;
layers = (
{
layerId = "422CF5D5-EDAF-47A9-A829-F34A9B802C97";
paths = (
{
closed = 1;
nodes = (
"448 700 LINE",
"338 460 LINE SMOOTH",
"323 427 OFFCURVE",
"316 398 OFFCURVE",
"316 373 CURVE SMOOTH",
"316 305 OFFCURVE",
"365 268 OFFCURVE",
"425 268 CURVE SMOOTH",
"584 268 LINE",
"584 460 LINE",
"474 460 LINE",
"574 700 LINE"
);
},
{
closed = 1;
nodes = (
"148 700 LINE",
"38 460 LINE SMOOTH",
"23 427 OFFCURVE",
"16 398 OFFCURVE",
"16 373 CURVE SMOOTH",
"16 305 OFFCURVE",
"65 268 OFFCURVE",
"125 268 CURVE SMOOTH",
"284 268 LINE",
"284 460 LINE",
"174 460 LINE",
"274 700 LINE"
);
}
);
width = 619;
}
);
leftKerningGroup = quoteleft;
rightKerningGroup = quoteleft;
unicode = 201C;
},
{
glyphname = quotedblright;
layers = (
{
layerId = "422CF5D5-EDAF-47A9-A829-F34A9B802C97";
paths = (
{
closed = 1;
nodes = (
"170 268 LINE",
"280 508 LINE SMOOTH",
"295 541 OFFCURVE",
"302 570 OFFCURVE",
"302 595 CURVE SMOOTH",
"302 663 OFFCURVE",
"253 700 OFFCURVE",
"193 700 CURVE SMOOTH",
"34 700 LINE",
"34 508 LINE",
"144 508 LINE",
"44 268 LINE"
);
},
{
closed = 1;
nodes = (
"470 268 LINE",
"580 508 LINE SMOOTH",
"595 541 OFFCURVE",
"602 570 OFFCURVE",
"602 595 CURVE SMOOTH",
"602 663 OFFCURVE",
"553 700 OFFCURVE",
"493 700 CURVE SMOOTH",
"334 700 LINE",
"334 508 LINE",
"444 508 LINE",
"344 268 LINE"
);
}
);
width = 617;
}
);
leftKerningGroup = quoteright;
rightKerningGroup = quoteright;
unicode = 201D;
},
{
glyphname = quoteleft;
layers = (
{
layerId = "422CF5D5-EDAF-47A9-A829-F34A9B802C97";
paths = (
{
closed = 1;
nodes = (
"148 700 LINE",
"38 460 LINE SMOOTH",
"23 427 OFFCURVE",
"16 398 OFFCURVE",
"16 373 CURVE SMOOTH",
"16 305 OFFCURVE",
"65 268 OFFCURVE",
"125 268 CURVE SMOOTH",
"284 268 LINE",
"284 460 LINE",
"174 460 LINE",
"274 700 LINE"
);
}
);
width = 319;
}
);
leftKerningGroup = quoteleft;
rightKerningGroup = quoteleft;
unicode = 2018;
},
{
glyphname = quoteright;
layers = (
{
layerId = "422CF5D5-EDAF-47A9-A829-F34A9B802C97";
paths = (
{
closed = 1;
nodes = (
"170 268 LINE",
"280 508 LINE SMOOTH",
"295 541 OFFCURVE",
"302 570 OFFCURVE",
"302 595 CURVE SMOOTH",
"302 663 OFFCURVE",
"253 700 OFFCURVE",
"193 700 CURVE SMOOTH",
"34 700 LINE",
"34 508 LINE",
"144 508 LINE",
"44 268 LINE"
);
}
);
width = 317;
}
);
leftKerningGroup = quoteright;
rightKerningGroup = quoteright;
unicode = 2019;
},
{
glyphname = guillemotleft;
layers = (
{
layerId = "422CF5D5-EDAF-47A9-A829-F34A9B802C97";
paths = (
{
closed = 1;
nodes = (
"203 0 LINE",
"413 0 LINE",
"228 300 LINE",
"413 600 LINE",
"203 600 LINE",
"18 300 LINE"
);
},
{
closed = 1;
nodes = (
"603 0 LINE",
"813 0 LINE",
"628 300 LINE",
"813 600 LINE",
"603 600 LINE",
"418 300 LINE"
);
}
);
width = 830;
}
);
leftKerningGroup = guilsinglleft;
rightKerningGroup = guilsinglleft;
unicode = 00AB;
},
{
glyphname = guillemotright;
layers = (
{
layerId = "422CF5D5-EDAF-47A9-A829-F34A9B802C97";
paths = (
{
closed = 1;
nodes = (
"627 600 LINE",
"417 600 LINE",
"602 300 LINE",
"417 0 LINE",
"627 0 LINE",
"812 300 LINE"
);
},
{
closed = 1;
nodes = (
"227 600 LINE",
"17 600 LINE",
"202 300 LINE",
"17 0 LINE",
"227 0 LINE",
"412 300 LINE"
);
}
);
width = 830;
}
);
leftKerningGroup = guilsinglright;
rightKerningGroup = guilsinglright;
unicode = 00BB;
},
{
glyphname = guilsinglleft;
layers = (
{
layerId = "422CF5D5-EDAF-47A9-A829-F34A9B802C97";
paths = (
{
closed = 1;
nodes = (
"203 0 LINE",
"413 0 LINE",
"228 300 LINE",
"413 600 LINE",
"203 600 LINE",
"18 300 LINE"
);
}
);
width = 430;
}
);
leftKerningGroup = guilsinglleft;
rightKerningGroup = guilsinglleft;
unicode = 2039;
},
{
glyphname = guilsinglright;
layers = (
{
layerId = "422CF5D5-EDAF-47A9-A829-F34A9B802C97";
paths = (
{
closed = 1;
nodes = (
"227 600 LINE",
"17 600 LINE",
"202 300 LINE",
"17 0 LINE",
"227 0 LINE",
"412 300 LINE"
);
}
);
width = 430;
}
);
leftKerningGroup = guilsinglright;
rightKerningGroup = guilsinglright;
unicode = 203A;
},
{
glyphname = quotedbl;
layers = (
{
layerId = "422CF5D5-EDAF-47A9-A829-F34A9B802C97";
paths = (
{
closed = 1;
nodes = (
"229 700 LINE",
"37 700 LINE",
"37 450 LINE",
"229 450 LINE"
);
},
{
closed = 1;
nodes = (
"529 700 LINE",
"337 700 LINE",
"337 450 LINE",
"529 450 LINE"
);
}
);
width = 566;
}
);
leftKerningGroup = quotesingle;
rightKerningGroup = quotesingle;
unicode = 0022;
},
{
glyphname = quotesingle;
layers = (
{
layerId = "422CF5D5-EDAF-47A9-A829-F34A9B802C97";
paths = (
{
closed = 1;
nodes = (
"229 700 LINE",
"37 700 LINE",
"37 450 LINE",
"229 450 LINE"
);
}
);
width = 266;
}
);
leftKerningGroup = quotesingle;
rightKerningGroup = quotesingle;
unicode = 0027;
},
{
glyphname = raisedFist;
layers = (
{
layerId = "422CF5D5-EDAF-47A9-A829-F34A9B802C97";
paths = (
{
closed = 1;
nodes = (
"288 700 LINE",
"167 700 LINE SMOOTH",
"85 700 OFFCURVE",
"40 655 OFFCURVE",
"40 573 CURVE SMOOTH",
"40 434 LINE",
"232 434 LINE",
"232 544 LINE SMOOTH",
"232 563 OFFCURVE",
"243 574 OFFCURVE",
"262 574 CURVE SMOOTH",
"288 574 LINE"
);
}
);
userData = {
com.schriftgestaltung.Glyphs.lastChange = "2019-12-04 15:05:28 +0000";
};
width = 600;
}
);
unicode = 270A;
},
{
glyphname = at;
layers = (
{
layerId = "422CF5D5-EDAF-47A9-A829-F34A9B802C97";
paths = (
{
closed = 1;
nodes = (
"46 -91 OFFCURVE",
"91 -136 OFFCURVE",
"173 -136 CURVE SMOOTH",
"996 -136 LINE",
"996 -10 LINE",
"268 -10 LINE SMOOTH",
"249 -10 OFFCURVE",
"238 1 OFFCURVE",
"238 20 CURVE SMOOTH",
"238 544 LINE SMOOTH",
"238 563 OFFCURVE",
"249 574 OFFCURVE",
"268 574 CURVE SMOOTH",
"774 574 LINE SMOOTH",
"793 574 OFFCURVE",
"804 563 OFFCURVE",
"804 544 CURVE SMOOTH",
"804 464 LINE",
"475 464 LINE SMOOTH",
"393 464 OFFCURVE",
"348 419 OFFCURVE",
"348 338 CURVE SMOOTH",
"348 227 LINE SMOOTH",
"348 145 OFFCURVE",
"393 100 OFFCURVE",
"475 100 CURVE SMOOTH",
"996 100 LINE",
"996 573 LINE SMOOTH",
"996 655 OFFCURVE",
"951 700 OFFCURVE",
"869 700 CURVE SMOOTH",
"173 700 LINE SMOOTH",
"91 700 OFFCURVE",
"46 655 OFFCURVE",
"46 573 CURVE SMOOTH",
"46 -9 LINE SMOOTH"
);
},
{
closed = 1;
nodes = (
"540 308 LINE SMOOTH",
"540 327 OFFCURVE",
"551 338 OFFCURVE",
"570 338 CURVE SMOOTH",
"804 338 LINE",
"804 226 LINE",
"570 226 LINE SMOOTH",
"551 226 OFFCURVE",
"540 237 OFFCURVE",
"540 256 CURVE SMOOTH"
);
}
);
width = 1045;
}
);
unicode = 0040;
},
{
glyphname = ampersand;
layers = (
{
layerId = "422CF5D5-EDAF-47A9-A829-F34A9B802C97";
paths = (
{
closed = 1;
nodes = (
"28 45 OFFCURVE",
"73 0 OFFCURVE",
"155 0 CURVE SMOOTH",
"435 0 LINE SMOOTH",
"517 0 OFFCURVE",
"540 5 OFFCURVE",
"619 87 CURVE SMOOTH",
"659 129 LINE",
"805 0 LINE",
"1069 0 LINE",
"784 258 LINE",
"955 436 LINE",
"758 436 LINE",
"679 354 LINE",
"436 574 LINE",
"956 574 LINE",
"956 700 LINE",
"152 700 LINE",
"152 576 LINE",
"311 436 LINE",
"155 436 LINE SMOOTH",
"73 436 OFFCURVE",
"28 391 OFFCURVE",
"28 309 CURVE SMOOTH",
"28 127 LINE SMOOTH"
);
},
{
closed = 1;
nodes = (
"232 280 LINE SMOOTH",
"232 299 OFFCURVE",
"243 310 OFFCURVE",
"262 310 CURVE SMOOTH",
"454 310 LINE",
"553 222 LINE",
"501 167 LINE SMOOTH",
"472 136 OFFCURVE",
"450 126 OFFCURVE",
"420 126 CURVE SMOOTH",
"262 126 LINE SMOOTH",
"243 126 OFFCURVE",
"232 137 OFFCURVE",
"232 156 CURVE SMOOTH"
);
}
);
userData = {
com.schriftgestaltung.Glyphs.lastChange = "2019-12-04 14:27:15 +0000";
};
width = 1053;
}
);
unicode = 0026;
},
{
glyphname = paragraph;
layers = (
{
layerId = "422CF5D5-EDAF-47A9-A829-F34A9B802C97";
paths = (
{
closed = 1;
nodes = (
"678 700 LINE",
"174 700 LINE SMOOTH",
"81 700 OFFCURVE",
"30 649 OFFCURVE",
"30 556 CURVE SMOOTH",
"30 426 LINE SMOOTH",
"30 333 OFFCURVE",
"81 282 OFFCURVE",
"174 282 CURVE SMOOTH",
"474 282 LINE",
"474 0 LINE",
"678 0 LINE"
);
},
{
closed = 1;
nodes = (
"774 700 LINE",
"774 0 LINE",
"978 0 LINE",
"978 700 LINE"
);
}
);
width = 1033;
}
);
unicode = 00B6;
},
{
glyphname = section;
layers = (
{
layerId = "422CF5D5-EDAF-47A9-A829-F34A9B802C97";
paths = (
{
closed = 1;
nodes = (
"542 -136 LINE SMOOTH",
"635 -136 OFFCURVE",
"686 -85 OFFCURVE",
"686 8 CURVE SMOOTH",
"686 20 LINE SMOOTH",
"686 113 OFFCURVE",
"635 164 OFFCURVE",
"542 164 CURVE",
"635 164 OFFCURVE",
"686 215 OFFCURVE",
"686 308 CURVE SMOOTH",
"686 320 LINE SMOOTH",
"686 413 OFFCURVE",
"635 464 OFFCURVE",
"542 464 CURVE SMOOTH",
"260 464 LINE SMOOTH",
"241 464 OFFCURVE",
"230 475 OFFCURVE",
"230 494 CURVE SMOOTH",
"230 544 LINE SMOOTH",
"230 563 OFFCURVE",
"241 574 OFFCURVE",
"260 574 CURVE SMOOTH",
"464 574 LINE SMOOTH",
"483 574 OFFCURVE",
"494 563 OFFCURVE",
"494 544 CURVE SMOOTH",
"494 514 LINE",
"686 514 LINE",
"686 556 LINE SMOOTH",
"686 649 OFFCURVE",
"635 700 OFFCURVE",
"542 700 CURVE SMOOTH",
"182 700 LINE SMOOTH",
"89 700 OFFCURVE",
"38 649 OFFCURVE",
"38 556 CURVE SMOOTH",
"38 544 LINE SMOOTH",
"38 451 OFFCURVE",
"89 400 OFFCURVE",
"182 400 CURVE",
"89 400 OFFCURVE",
"38 349 OFFCURVE",
"38 256 CURVE SMOOTH",
"38 244 LINE SMOOTH",
"38 151 OFFCURVE",
"89 100 OFFCURVE",
"182 100 CURVE SMOOTH",
"464 100 LINE SMOOTH",
"483 100 OFFCURVE",
"494 89 OFFCURVE",
"494 70 CURVE SMOOTH",
"494 20 LINE SMOOTH",
"494 1 OFFCURVE",
"483 -10 OFFCURVE",
"464 -10 CURVE SMOOTH",
"260 -10 LINE SMOOTH",
"241 -10 OFFCURVE",
"230 1 OFFCURVE",
"230 20 CURVE SMOOTH",
"230 50 LINE",
"38 50 LINE",
"38 8 LINE SMOOTH",
"38 -85 OFFCURVE",
"89 -136 OFFCURVE",
"182 -136 CURVE SMOOTH"
);
},
{
closed = 1;
nodes = (
"241 228 OFFCURVE",
"230 239 OFFCURVE",
"230 258 CURVE SMOOTH",
"230 308 LINE SMOOTH",
"230 322 OFFCURVE",
"236 332 OFFCURVE",
"247 336 CURVE",
"464 336 LINE SMOOTH",
"483 336 OFFCURVE",
"494 325 OFFCURVE",
"494 306 CURVE SMOOTH",
"494 256 LINE SMOOTH",
"494 242 OFFCURVE",
"488 232 OFFCURVE",
"477 228 CURVE",
"260 228 LINE SMOOTH"
);
}
);
width = 724;
}
);
unicode = 00A7;
},
{
glyphname = copyright;
layers = (
{
layerId = "422CF5D5-EDAF-47A9-A829-F34A9B802C97";
paths = (
{
closed = 1;
nodes = (
"49 29 OFFCURVE",
"77 0 OFFCURVE",
"130 0 CURVE SMOOTH",
"782 0 LINE SMOOTH",
"835 0 OFFCURVE",
"863 29 OFFCURVE",
"863 81 CURVE SMOOTH",
"863 619 LINE SMOOTH",
"863 671 OFFCURVE",
"835 700 OFFCURVE",
"782 700 CURVE SMOOTH",
"130 700 LINE SMOOTH",
"77 700 OFFCURVE",
"49 671 OFFCURVE",
"49 619 CURVE SMOOTH",
"49 81 LINE SMOOTH"
);
},
{
closed = 1;
nodes = (
"172 601 LINE SMOOTH",
"172 612 OFFCURVE",
"178 619 OFFCURVE",
"190 619 CURVE SMOOTH",
"722 619 LINE SMOOTH",
"734 619 OFFCURVE",
"740 612 OFFCURVE",
"740 601 CURVE SMOOTH",
"740 99 LINE SMOOTH",
"740 88 OFFCURVE",
"734 81 OFFCURVE",
"722 81 CURVE SMOOTH",
"190 81 LINE SMOOTH",
"178 81 OFFCURVE",
"172 88 OFFCURVE",
"172 99 CURVE SMOOTH"
);
},
{
closed = 1;
nodes = (
"250 187 OFFCURVE",
"279 159 OFFCURVE",
"331 159 CURVE SMOOTH",
"581 159 LINE SMOOTH",
"633 159 OFFCURVE",
"662 187 OFFCURVE",
"662 240 CURVE SMOOTH",
"662 278 LINE",
"539 278 LINE",
"539 258 LINE SMOOTH",
"539 247 OFFCURVE",
"533 240 OFFCURVE",
"521 240 CURVE SMOOTH",
"391 240 LINE SMOOTH",
"379 240 OFFCURVE",
"372 247 OFFCURVE",
"372 258 CURVE SMOOTH",
"372 442 LINE SMOOTH",
"372 453 OFFCURVE",
"379 460 OFFCURVE",
"391 460 CURVE SMOOTH",
"521 460 LINE SMOOTH",
"533 460 OFFCURVE",
"539 453 OFFCURVE",
"539 442 CURVE SMOOTH",
"539 422 LINE",
"662 422 LINE",
"662 460 LINE SMOOTH",
"662 513 OFFCURVE",
"633 541 OFFCURVE",
"581 541 CURVE SMOOTH",
"331 541 LINE SMOOTH",
"279 541 OFFCURVE",
"250 513 OFFCURVE",
"250 460 CURVE SMOOTH",
"250 240 LINE SMOOTH"
);
}
);
width = 912;
}
);
leftKerningGroup = copyright;
rightKerningGroup = copyright;
unicode = 00A9;
},
{
glyphname = registered;
layers = (
{
layerId = "422CF5D5-EDAF-47A9-A829-F34A9B802C97";
paths = (
{
closed = 1;
nodes = (
"49 29 OFFCURVE",
"77 0 OFFCURVE",
"130 0 CURVE SMOOTH",
"782 0 LINE SMOOTH",
"835 0 OFFCURVE",
"863 29 OFFCURVE",
"863 81 CURVE SMOOTH",
"863 619 LINE SMOOTH",
"863 671 OFFCURVE",
"835 700 OFFCURVE",
"782 700 CURVE SMOOTH",
"130 700 LINE SMOOTH",
"77 700 OFFCURVE",
"49 671 OFFCURVE",
"49 619 CURVE SMOOTH",
"49 81 LINE SMOOTH"
);
},
{
closed = 1;
nodes = (
"172 601 LINE SMOOTH",
"172 612 OFFCURVE",
"178 619 OFFCURVE",
"190 619 CURVE SMOOTH",
"722 619 LINE SMOOTH",
"734 619 OFFCURVE",
"740 612 OFFCURVE",
"740 601 CURVE SMOOTH",
"740 99 LINE SMOOTH",
"740 88 OFFCURVE",
"734 81 OFFCURVE",
"722 81 CURVE SMOOTH",
"190 81 LINE SMOOTH",
"178 81 OFFCURVE",
"172 88 OFFCURVE",
"172 99 CURVE SMOOTH"
);
},
{
closed = 1;
nodes = (
"362 463 LINE",
"534 463 LINE SMOOTH",
"545 463 OFFCURVE",
"551 456 OFFCURVE",
"551 446 CURVE SMOOTH",
"551 408 LINE SMOOTH",
"551 398 OFFCURVE",
"545 391 OFFCURVE",
"534 391 CURVE SMOOTH",
"362 391 LINE"
);
},
{
closed = 1;
nodes = (
"362 159 LINE",
"362 313 LINE",
"534 313 LINE SMOOTH",
"545 313 OFFCURVE",
"551 307 OFFCURVE",
"551 297 CURVE SMOOTH",
"551 159 LINE",
"662 159 LINE",
"662 268 LINE SMOOTH",
"662 319 OFFCURVE",
"635 347 OFFCURVE",
"584 347 CURVE",
"635 347 OFFCURVE",
"662 374 OFFCURVE",
"662 425 CURVE SMOOTH",
"662 463 LINE SMOOTH",
"662 514 OFFCURVE",
"635 541 OFFCURVE",
"584 541 CURVE SMOOTH",
"250 541 LINE",
"250 159 LINE"
);
}
);
width = 912;
}
);
leftKerningGroup = copyright;
rightKerningGroup = copyright;
unicode = 00AE;
},
{
glyphname = degree;
layers = (
{
layerId = "422CF5D5-EDAF-47A9-A829-F34A9B802C97";
paths = (
{
closed = 1;
nodes = (
"36 415 OFFCURVE",
"59 392 OFFCURVE",
"101 392 CURVE SMOOTH",
"303 392 LINE SMOOTH",
"345 392 OFFCURVE",
"368 415 OFFCURVE",
"368 457 CURVE SMOOTH",
"368 635 LINE SMOOTH",
"368 677 OFFCURVE",
"345 700 OFFCURVE",
"303 700 CURVE SMOOTH",
"101 700 LINE SMOOTH",
"59 700 OFFCURVE",
"36 677 OFFCURVE",
"36 635 CURVE SMOOTH",
"36 457 LINE SMOOTH"
);
},
{
closed = 1;
nodes = (
"148 605 LINE SMOOTH",
"148 612 OFFCURVE",
"152 617 OFFCURVE",
"160 617 CURVE SMOOTH",
"244 617 LINE SMOOTH",
"252 617 OFFCURVE",
"256 612 OFFCURVE",
"256 605 CURVE SMOOTH",
"256 487 LINE SMOOTH",
"256 480 OFFCURVE",
"252 475 OFFCURVE",
"244 475 CURVE SMOOTH",
"160 475 LINE SMOOTH",
"152 475 OFFCURVE",
"148 480 OFFCURVE",
"148 487 CURVE SMOOTH"
);
}
);
userData = {
com.schriftgestaltung.Glyphs.lastChange = "2019-11-24 07:16:38 +0000";
};
width = 404;
}
);
unicode = 00B0;
},
{
glyphname = bar;
layers = (
{
layerId = "422CF5D5-EDAF-47A9-A829-F34A9B802C97";
paths = (
{
closed = 1;
nodes = (
"51 700 LINE",
"51 -150 LINE",
"255 -150 LINE",
"255 700 LINE"
);
}
);
width = 306;
}
);
leftKerningGroup = bar;
rightKerningGroup = bar;
unicode = 007C;
},
{
glyphname = brokenbar;
layers = (
{
layerId = "422CF5D5-EDAF-47A9-A829-F34A9B802C97";
paths = (
{
closed = 1;
nodes = (
"51 200 LINE",
"51 -150 LINE",
"255 -150 LINE",
"255 200 LINE"
);
},
{
closed = 1;
nodes = (
"51 700 LINE",
"51 350 LINE",
"255 350 LINE",
"255 700 LINE"
);
}
);
width = 306;
}
);
leftKerningGroup = bar;
rightKerningGroup = bar;
unicode = 00A6;
},
{
glyphname = dagger;
layers = (
{
layerId = "422CF5D5-EDAF-47A9-A829-F34A9B802C97";
paths = (
{
closed = 1;
nodes = (
"243 350 LINE",
"243 -150 LINE",
"447 -150 LINE",
"447 350 LINE",
"670 350 LINE",
"670 494 LINE",
"447 494 LINE",
"447 700 LINE",
"243 700 LINE",
"243 494 LINE",
"20 494 LINE",
"20 350 LINE"
);
}
);
width = 690;
}
);
unicode = 2020;
},
{
glyphname = daggerdbl;
layers = (
{
layerId = "422CF5D5-EDAF-47A9-A829-F34A9B802C97";
paths = (
{
closed = 1;
nodes = (
"259 56 LINE",
"259 -150 LINE",
"463 -150 LINE",
"463 56 LINE",
"686 56 LINE",
"686 200 LINE",
"463 200 LINE",
"463 350 LINE",
"686 350 LINE",
"686 494 LINE",
"463 494 LINE",
"463 700 LINE",
"259 700 LINE",
"259 494 LINE",
"36 494 LINE",
"36 350 LINE",
"259 350 LINE",
"259 200 LINE",
"36 200 LINE",
"36 56 LINE"
);
}
);
width = 722;
}
);
unicode = 2021;
},
{
glyphname = at.ss01;
layers = (
{
layerId = "422CF5D5-EDAF-47A9-A829-F34A9B802C97";
paths = (
{
closed = 1;
nodes = (
"46 -91 OFFCURVE",
"91 -136 OFFCURVE",
"173 -136 CURVE SMOOTH",
"996 -136 LINE",
"996 -10 LINE",
"268 -10 LINE SMOOTH",
"249 -10 OFFCURVE",
"238 1 OFFCURVE",
"238 20 CURVE SMOOTH",
"238 544 LINE SMOOTH",
"238 563 OFFCURVE",
"249 574 OFFCURVE",
"268 574 CURVE SMOOTH",
"774 574 LINE SMOOTH",
"793 574 OFFCURVE",
"804 563 OFFCURVE",
"804 544 CURVE SMOOTH",
"804 364 LINE",
"794 364 LINE",
"779 429 OFFCURVE",
"731 464 OFFCURVE",
"654 464 CURVE SMOOTH",
"492 464 LINE SMOOTH",
"399 464 OFFCURVE",
"348 413 OFFCURVE",
"348 320 CURVE SMOOTH",
"348 244 LINE SMOOTH",
"348 151 OFFCURVE",
"399 100 OFFCURVE",
"492 100 CURVE SMOOTH",
"654 100 LINE SMOOTH",
"731 100 OFFCURVE",
"779 135 OFFCURVE",
"794 200 CURVE",
"804 200 LINE",
"804 100 LINE",
"996 100 LINE",
"996 573 LINE SMOOTH",
"996 655 OFFCURVE",
"951 700 OFFCURVE",
"869 700 CURVE SMOOTH",
"173 700 LINE SMOOTH",
"91 700 OFFCURVE",
"46 655 OFFCURVE",
"46 573 CURVE SMOOTH",
"46 -9 LINE SMOOTH"
);
},
{
closed = 1;
nodes = (
"541 308 LINE SMOOTH",
"541 327 OFFCURVE",
"552 338 OFFCURVE",
"571 338 CURVE SMOOTH",
"804 338 LINE",
"804 226 LINE",
"571 226 LINE SMOOTH",
"552 226 OFFCURVE",
"541 237 OFFCURVE",
"541 256 CURVE SMOOTH"
);
}
);
userData = {
com.schriftgestaltung.Glyphs.lastChange = "2020-01-31 17:23:20 +0000";
};
width = 1045;
}
);
},
{
glyphname = Euro;
layers = (
{
layerId = "422CF5D5-EDAF-47A9-A829-F34A9B802C97";
paths = (
{
closed = 1;
nodes = (
"139 220 LINE",
"139 144 LINE SMOOTH",
"139 51 OFFCURVE",
"190 0 OFFCURVE",
"283 0 CURVE SMOOTH",
"743 0 LINE SMOOTH",
"836 0 OFFCURVE",
"887 51 OFFCURVE",
"887 144 CURVE SMOOTH",
"887 216 LINE",
"683 216 LINE",
"683 174 LINE SMOOTH",
"683 155 OFFCURVE",
"672 144 OFFCURVE",
"653 144 CURVE SMOOTH",
"373 144 LINE SMOOTH",
"354 144 OFFCURVE",
"343 155 OFFCURVE",
"343 174 CURVE SMOOTH",
"343 220 LINE",
"565 220 LINE",
"565 320 LINE",
"343 320 LINE",
"343 380 LINE",
"565 380 LINE",
"565 480 LINE",
"343 480 LINE",
"343 526 LINE SMOOTH",
"343 545 OFFCURVE",
"354 556 OFFCURVE",
"373 556 CURVE SMOOTH",
"653 556 LINE SMOOTH",
"672 556 OFFCURVE",
"683 545 OFFCURVE",
"683 526 CURVE SMOOTH",
"683 484 LINE",
"887 484 LINE",
"887 556 LINE SMOOTH",
"887 649 OFFCURVE",
"836 700 OFFCURVE",
"743 700 CURVE SMOOTH",
"283 700 LINE SMOOTH",
"190 700 OFFCURVE",
"139 649 OFFCURVE",
"139 556 CURVE SMOOTH",
"139 480 LINE",
"31 480 LINE",
"31 380 LINE",
"139 380 LINE",
"139 320 LINE",
"31 320 LINE",
"31 220 LINE"
);
}
);
userData = {
com.schriftgestaltung.Glyphs.lastChange = "2019-12-04 14:26:31 +0000";
};
width = 924;
}
);
unicode = 20AC;
},
{
glyphname = cent;
layers = (
{
layerId = "422CF5D5-EDAF-47A9-A829-F34A9B802C97";
paths = (
{
closed = 1;
nodes = (
"46 51 OFFCURVE",
"97 0 OFFCURVE",
"190 0 CURVE SMOOTH",
"318 0 LINE",
"318 -100 LINE",
"522 -100 LINE",
"522 0 LINE",
"650 0 LINE SMOOTH",
"743 0 OFFCURVE",
"794 51 OFFCURVE",
"794 144 CURVE SMOOTH",
"794 216 LINE",
"590 216 LINE",
"590 174 LINE SMOOTH",
"590 155 OFFCURVE",
"579 144 OFFCURVE",
"560 144 CURVE SMOOTH",
"280 144 LINE SMOOTH",
"261 144 OFFCURVE",
"250 155 OFFCURVE",
"250 174 CURVE SMOOTH",
"250 526 LINE SMOOTH",
"250 545 OFFCURVE",
"261 556 OFFCURVE",
"280 556 CURVE SMOOTH",
"560 556 LINE SMOOTH",
"579 556 OFFCURVE",
"590 545 OFFCURVE",
"590 526 CURVE SMOOTH",
"590 484 LINE",
"794 484 LINE",
"794 556 LINE SMOOTH",
"794 649 OFFCURVE",
"743 700 OFFCURVE",
"650 700 CURVE SMOOTH",
"522 700 LINE",
"522 800 LINE",
"318 800 LINE",
"318 700 LINE",
"190 700 LINE SMOOTH",
"97 700 OFFCURVE",
"46 649 OFFCURVE",
"46 556 CURVE SMOOTH",
"46 144 LINE SMOOTH"
);
}
);
width = 827;
}
);
unicode = 00A2;
},
{
glyphname = currency;
layers = (
{
layerId = "422CF5D5-EDAF-47A9-A829-F34A9B802C97";
paths = (
{
closed = 1;
nodes = (
"108 55 LINE",
"180 126 LINE",
"468 126 LINE",
"540 55 LINE",
"632 147 LINE",
"563 217 LINE",
"563 218 LINE",
"563 482 LINE",
"563 483 LINE",
"632 553 LINE",
"540 645 LINE",
"468 574 LINE",
"180 574 LINE",
"108 645 LINE",
"16 553 LINE",
"85 483 LINE",
"85 482 LINE",
"85 218 LINE",
"85 217 LINE",
"16 147 LINE"
);
},
{
closed = 1;
nodes = (
"225 443 LINE SMOOTH",
"225 455 OFFCURVE",
"232 462 OFFCURVE",
"244 462 CURVE SMOOTH",
"404 462 LINE SMOOTH",
"416 462 OFFCURVE",
"423 455 OFFCURVE",
"423 443 CURVE SMOOTH",
"423 257 LINE SMOOTH",
"423 245 OFFCURVE",
"416 238 OFFCURVE",
"404 238 CURVE SMOOTH",
"244 238 LINE SMOOTH",
"232 238 OFFCURVE",
"225 245 OFFCURVE",
"225 257 CURVE SMOOTH"
);
}
);
userData = {
com.schriftgestaltung.Glyphs.lastChange = "2019-12-04 14:26:25 +0000";
};
width = 648;
}
);
unicode = 00A4;
},
{
glyphname = dollar;
layers = (
{
layerId = "422CF5D5-EDAF-47A9-A829-F34A9B802C97";
paths = (
{
closed = 1;
nodes = (
"40 51 OFFCURVE",
"91 0 OFFCURVE",
"184 0 CURVE SMOOTH",
"312 0 LINE",
"312 -100 LINE",
"516 -100 LINE",
"516 0 LINE",
"644 0 LINE SMOOTH",
"737 0 OFFCURVE",
"788 51 OFFCURVE",
"788 144 CURVE SMOOTH",
"788 282 LINE SMOOTH",
"788 375 OFFCURVE",
"737 426 OFFCURVE",
"644 426 CURVE SMOOTH",
"274 426 LINE SMOOTH",
"255 426 OFFCURVE",
"244 437 OFFCURVE",
"244 456 CURVE SMOOTH",
"244 526 LINE SMOOTH",
"244 545 OFFCURVE",
"255 556 OFFCURVE",
"274 556 CURVE SMOOTH",
"554 556 LINE SMOOTH",
"573 556 OFFCURVE",
"584 545 OFFCURVE",
"584 526 CURVE SMOOTH",
"584 484 LINE",
"788 484 LINE",
"788 556 LINE SMOOTH",
"788 649 OFFCURVE",
"737 700 OFFCURVE",
"644 700 CURVE SMOOTH",
"516 700 LINE",
"516 800 LINE",
"312 800 LINE",
"312 700 LINE",
"184 700 LINE SMOOTH",
"91 700 OFFCURVE",
"40 649 OFFCURVE",
"40 556 CURVE SMOOTH",
"40 426 LINE SMOOTH",
"40 333 OFFCURVE",
"91 282 OFFCURVE",
"184 282 CURVE SMOOTH",
"554 282 LINE SMOOTH",
"573 282 OFFCURVE",
"584 271 OFFCURVE",
"584 252 CURVE SMOOTH",
"584 174 LINE SMOOTH",
"584 155 OFFCURVE",
"573 144 OFFCURVE",
"554 144 CURVE SMOOTH",
"274 144 LINE SMOOTH",
"255 144 OFFCURVE",
"244 155 OFFCURVE",
"244 174 CURVE SMOOTH",
"244 216 LINE",
"40 216 LINE",
"40 144 LINE SMOOTH"
);
}
);
width = 828;
}
);
unicode = 0024;
},
{
glyphname = sterling;
layers = (
{
layerId = "422CF5D5-EDAF-47A9-A829-F34A9B802C97";
paths = (
{
closed = 1;
nodes = (
"847 0 LINE",
"847 145 LINE",
"298 145 LINE",
"298 296 LINE",
"678 296 LINE",
"678 396 LINE",
"298 396 LINE",
"298 526 LINE SMOOTH",
"298 545 OFFCURVE",
"309 556 OFFCURVE",
"328 556 CURVE SMOOTH",
"613 556 LINE SMOOTH",
"632 556 OFFCURVE",
"643 545 OFFCURVE",
"643 526 CURVE SMOOTH",
"643 484 LINE",
"847 484 LINE",
"847 556 LINE SMOOTH",
"847 649 OFFCURVE",
"796 700 OFFCURVE",
"703 700 CURVE SMOOTH",
"238 700 LINE SMOOTH",
"145 700 OFFCURVE",
"94 649 OFFCURVE",
"94 556 CURVE SMOOTH",
"94 396 LINE",
"32 396 LINE",
"32 296 LINE",
"94 296 LINE",
"94 174 LINE SMOOTH",
"94 158 OFFCURVE",
"87 145 OFFCURVE",
"73 145 CURVE SMOOTH",
"31 145 LINE",
"31 0 LINE"
);
}
);
width = 879;
}
);
unicode = 00A3;
},
{
glyphname = yen;
layers = (
{
layerId = "422CF5D5-EDAF-47A9-A829-F34A9B802C97";
paths = (
{
closed = 1;
nodes = (
"356 340 LINE",
"356 0 LINE",
"560 0 LINE",
"560 340 LINE",
"934 700 LINE",
"725 700 LINE",
"490 462 LINE",
"269 700 LINE",
"10 700 LINE"
);
},
{
closed = 1;
nodes = (
"356 340 LINE",
"356 0 LINE",
"560 0 LINE",
"560 340 LINE",
"934 700 LINE",
"725 700 LINE",
"490 462 LINE",
"269 700 LINE",
"10 700 LINE"
);
},
{
closed = 1;
nodes = (
"205 380 LINE",
"205 280 LINE",
"739 280 LINE",
"739 380 LINE"
);
},
{
closed = 1;
nodes = (
"205 220 LINE",
"205 120 LINE",
"739 120 LINE",
"739 220 LINE"
);
}
);
width = 944;
}
);
unicode = 00A5;
},
{
glyphname = plus;
layers = (
{
layerId = "422CF5D5-EDAF-47A9-A829-F34A9B802C97";
paths = (
{
closed = 1;
nodes = (
"237 237 LINE",
"237 36 LINE",
"363 36 LINE",
"363 237 LINE",
"564 237 LINE",
"564 363 LINE",
"363 363 LINE",
"363 564 LINE",
"237 564 LINE",
"237 363 LINE",
"36 363 LINE",
"36 237 LINE"
);
}
);
userData = {
com.schriftgestaltung.Glyphs.lastChange = "2019-12-04 14:26:14 +0000";
};
width = 600;
}
);
unicode = 002B;
},
{
glyphname = minus;
layers = (
{
layerId = "422CF5D5-EDAF-47A9-A829-F34A9B802C97";
paths = (
{
closed = 1;
nodes = (
"564 237 LINE",
"564 363 LINE",
"36 363 LINE",
"36 237 LINE"
);
}
);
width = 600;
}
);
unicode = 2212;
},
{
glyphname = multiply;
layers = (
{
layerId = "422CF5D5-EDAF-47A9-A829-F34A9B802C97";
paths = (
{
closed = 1;
nodes = (
"123 33 LINE",
"300 210 LINE",
"477 33 LINE",
"567 123 LINE",
"390 300 LINE",
"567 477 LINE",
"477 567 LINE",
"300 390 LINE",
"123 567 LINE",
"33 477 LINE",
"210 300 LINE",
"33 123 LINE"
);
}
);
userData = {
com.schriftgestaltung.Glyphs.lastChange = "2019-12-04 14:26:53 +0000";
};
width = 600;
}
);
unicode = 00D7;
},
{
glyphname = divide;
layers = (
{
layerId = "422CF5D5-EDAF-47A9-A829-F34A9B802C97";
paths = (
{
closed = 1;
nodes = (
"564 237 LINE",
"564 363 LINE",
"36 363 LINE",
"36 237 LINE"
);
},
{
closed = 1;
nodes = (
"227 432 OFFCURVE",
"237 422 OFFCURVE",
"255 422 CURVE SMOOTH",
"346 422 LINE SMOOTH",
"364 422 OFFCURVE",
"374 432 OFFCURVE",
"374 450 CURVE SMOOTH",
"374 541 LINE SMOOTH",
"374 559 OFFCURVE",
"364 569 OFFCURVE",
"346 569 CURVE SMOOTH",
"255 569 LINE SMOOTH",
"237 569 OFFCURVE",
"227 559 OFFCURVE",
"227 541 CURVE SMOOTH",
"227 450 LINE SMOOTH"
);
},
{
closed = 1;
nodes = (
"227 41 OFFCURVE",
"237 31 OFFCURVE",
"255 31 CURVE SMOOTH",
"346 31 LINE SMOOTH",
"364 31 OFFCURVE",
"374 41 OFFCURVE",
"374 59 CURVE SMOOTH",
"374 150 LINE SMOOTH",
"374 168 OFFCURVE",
"364 178 OFFCURVE",
"346 178 CURVE SMOOTH",
"255 178 LINE SMOOTH",
"237 178 OFFCURVE",
"227 168 OFFCURVE",
"227 150 CURVE SMOOTH",
"227 59 LINE SMOOTH"
);
}
);
width = 600;
}
);
unicode = 00F7;
},
{
glyphname = equal;
layers = (
{
layerId = "422CF5D5-EDAF-47A9-A829-F34A9B802C97";
paths = (
{
closed = 1;
nodes = (
"564 121 LINE",
"564 247 LINE",
"36 247 LINE",
"36 121 LINE"
);
},
{
closed = 1;
nodes = (
"564 353 LINE",
"564 479 LINE",
"36 479 LINE",
"36 353 LINE"
);
}
);
width = 600;
}
);
unicode = 003D;
},
{
glyphname = greater;
layers = (
{
layerId = "422CF5D5-EDAF-47A9-A829-F34A9B802C97";
paths = (
{
closed = 1;
nodes = (
"549 236 LINE",
"549 364 LINE",
"57 610 LINE",
"57 467 LINE",
"389 300 LINE",
"57 134 LINE",
"57 -10 LINE"
);
}
);
width = 600;
}
);
unicode = 003E;
},
{
glyphname = less;
layers = (
{
layerId = "422CF5D5-EDAF-47A9-A829-F34A9B802C97";
paths = (
{
closed = 1;
nodes = (
"543 134 LINE",
"211 300 LINE",
"543 467 LINE",
"543 610 LINE",
"51 364 LINE",
"51 236 LINE",
"543 -10 LINE"
);
}
);
width = 600;
}
);
unicode = 003C;
},
{
glyphname = greaterequal;
layers = (
{
layerId = "422CF5D5-EDAF-47A9-A829-F34A9B802C97";
paths = (
{
closed = 1;
nodes = (
"566 36 LINE",
"566 162 LINE",
"38 162 LINE",
"38 36 LINE"
);
},
{
closed = 1;
nodes = (
"565 336 LINE",
"565 464 LINE",
"38 610 LINE",
"38 477 LINE",
"377 400 LINE",
"38 324 LINE",
"38 190 LINE"
);
}
);
width = 600;
}
);
unicode = 2265;
},
{
glyphname = lessequal;
layers = (
{
layerId = "422CF5D5-EDAF-47A9-A829-F34A9B802C97";
paths = (
{
closed = 1;
nodes = (
"562 162 LINE",
"34 162 LINE",
"34 36 LINE",
"562 36 LINE"
);
},
{
closed = 1;
nodes = (
"562 324 LINE",
"223 400 LINE",
"562 477 LINE",
"562 610 LINE",
"35 464 LINE",
"35 336 LINE",
"562 190 LINE"
);
}
);
width = 600;
}
);
unicode = 2264;
},
{
glyphname = plusminus;
layers = (
{
layerId = "422CF5D5-EDAF-47A9-A829-F34A9B802C97";
paths = (
{
closed = 1;
nodes = (
"564 36 LINE",
"564 162 LINE",
"36 162 LINE",
"36 36 LINE"
);
},
{
closed = 1;
nodes = (
"237 337 LINE",
"237 236 LINE",
"363 236 LINE",
"363 337 LINE",
"564 337 LINE",
"564 463 LINE",
"363 463 LINE",
"363 564 LINE",
"237 564 LINE",
"237 463 LINE",
"36 463 LINE",
"36 337 LINE"
);
}
);
width = 600;
}
);
unicode = 00B1;
},
{
glyphname = approxequal;
layers = (
{
layerId = "422CF5D5-EDAF-47A9-A829-F34A9B802C97";
paths = (
{
closed = 1;
nodes = (
"241 385 OFFCURVE",
"259 375 CURVE SMOOTH",
"293 356 OFFCURVE",
"341 331 OFFCURVE",
"410 331 CURVE SMOOTH",
"508 331 OFFCURVE",
"554 388 OFFCURVE",
"554 509 CURVE",
"416 509 LINE",
"416 476 OFFCURVE",
"406 459 OFFCURVE",
"385 459 CURVE SMOOTH",
"373 459 OFFCURVE",
"358 466 OFFCURVE",
"341 476 CURVE SMOOTH",
"307 496 OFFCURVE",
"259 521 OFFCURVE",
"190 521 CURVE SMOOTH",
"91 521 OFFCURVE",
"45 463 OFFCURVE",
"45 342 CURVE",
"183 342 LINE",
"183 375 OFFCURVE",
"193 392 OFFCURVE",
"215 392 CURVE SMOOTH",
"226 392 OFFCURVE"
);
},
{
closed = 1;
nodes = (
"241 133 OFFCURVE",
"259 123 CURVE SMOOTH",
"293 104 OFFCURVE",
"341 79 OFFCURVE",
"410 79 CURVE SMOOTH",
"508 79 OFFCURVE",
"554 137 OFFCURVE",
"554 258 CURVE",
"416 258 LINE",
"416 225 OFFCURVE",
"406 207 OFFCURVE",
"385 207 CURVE SMOOTH",
"373 207 OFFCURVE",
"358 215 OFFCURVE",
"341 225 CURVE SMOOTH",
"307 245 OFFCURVE",
"259 269 OFFCURVE",
"190 269 CURVE SMOOTH",
"91 269 OFFCURVE",
"45 211 OFFCURVE",
"45 90 CURVE",
"183 90 LINE",
"183 123 OFFCURVE",
"193 141 OFFCURVE",
"215 141 CURVE SMOOTH",
"226 141 OFFCURVE"
);
}
);
width = 600;
}
);
unicode = 2248;
},
{
glyphname = asciitilde;
layers = (
{
layerId = "422CF5D5-EDAF-47A9-A829-F34A9B802C97";
paths = (
{
closed = 1;
nodes = (
"227 266 OFFCURVE",
"242 259 OFFCURVE",
"260 249 CURVE SMOOTH",
"294 230 OFFCURVE",
"342 205 OFFCURVE",
"411 205 CURVE SMOOTH",
"509 205 OFFCURVE",
"555 262 OFFCURVE",
"555 383 CURVE",
"417 383 LINE",
"417 350 OFFCURVE",
"407 333 OFFCURVE",
"386 333 CURVE SMOOTH",
"374 333 OFFCURVE",
"359 340 OFFCURVE",
"342 350 CURVE SMOOTH",
"308 370 OFFCURVE",
"260 395 OFFCURVE",
"191 395 CURVE SMOOTH",
"92 395 OFFCURVE",
"46 337 OFFCURVE",
"46 216 CURVE",
"184 216 LINE",
"184 249 OFFCURVE",
"194 266 OFFCURVE",
"216 266 CURVE SMOOTH"
);
}
);
width = 600;
}
);
unicode = 007E;
},
{
glyphname = logicalnot;
layers = (
{
layerId = "422CF5D5-EDAF-47A9-A829-F34A9B802C97";
paths = (
{
closed = 1;
nodes = (
"432 353 LINE",
"432 121 LINE",
"558 121 LINE",
"558 479 LINE",
"30 479 LINE",
"30 353 LINE"
);
}
);
width = 600;
}
);
unicode = 00AC;
},
{
glyphname = asciicircum;
layers = (
{
layerId = "422CF5D5-EDAF-47A9-A829-F34A9B802C97";
paths = (
{
closed = 1;
nodes = (
"187 350 LINE",
"287 548 LINE",
"385 350 LINE",
"519 350 LINE",
"344 700 LINE",
"255 700 LINE",
"80 350 LINE"
);
}
);
width = 600;
}
);
unicode = 005E;
},
{
glyphname = percent;
layers = (
{
layerId = "422CF5D5-EDAF-47A9-A829-F34A9B802C97";
paths = (
{
closed = 1;
nodes = (
"278 0 LINE",
"878 700 LINE",
"626 700 LINE",
"26 0 LINE"
);
},
{
closed = 1;
nodes = (
"329 484 LINE",
"329 700 LINE",
"27 700 LINE",
"27 484 LINE"
);
},
{
closed = 1;
nodes = (
"877 0 LINE",
"877 216 LINE",
"575 216 LINE",
"575 0 LINE"
);
}
);
userData = {
com.schriftgestaltung.Glyphs.lastChange = "2019-12-04 14:47:22 +0000";
};
width = 905;
}
);
leftKerningGroup = percent;
unicode = 0025;
},
{
glyphname = perthousand;
layers = (
{
layerId = "422CF5D5-EDAF-47A9-A829-F34A9B802C97";
paths = (
{
closed = 1;
nodes = (
"278 0 LINE",
"878 700 LINE",
"626 700 LINE",
"26 0 LINE"
);
},
{
closed = 1;
nodes = (
"329 484 LINE",
"329 700 LINE",
"27 700 LINE",
"27 484 LINE"
);
},
{
closed = 1;
nodes = (
"877 0 LINE",
"877 216 LINE",
"575 216 LINE",
"575 0 LINE"
);
},
{
closed = 1;
nodes = (
"1247 0 LINE",
"1247 216 LINE",
"945 216 LINE",
"945 0 LINE"
);
}
);
userData = {
com.schriftgestaltung.Glyphs.lastChange = "2019-12-04 14:47:48 +0000";
};
width = 1267;
}
);
leftKerningGroup = percent;
unicode = 2030;
},
{
glyphname = lozenge;
layers = (
{
layerId = "422CF5D5-EDAF-47A9-A829-F34A9B802C97";
paths = (
{
closed = 1;
nodes = (
"282 700 LINE",
"193 700 LINE",
"18 350 LINE",
"193 0 LINE",
"282 0 LINE",
"457 350 LINE"
);
},
{
closed = 1;
nodes = (
"225 152 LINE",
"125 350 LINE",
"225 548 LINE",
"323 350 LINE"
);
}
);
width = 475;
}
);
unicode = 25CA;
},
{
glyphname = uni0308;
layers = (
{
layerId = "422CF5D5-EDAF-47A9-A829-F34A9B802C97";
paths = (
{
closed = 1;
nodes = (
"48 750 LINE",
"220 750 LINE",
"220 872 LINE",
"48 872 LINE"
);
},
{
closed = 1;
nodes = (
"298 750 LINE",
"470 750 LINE",
"470 872 LINE",
"298 872 LINE"
);
}
);
width = 518;
}
);
unicode = 0308;
},
{
glyphname = uni0307;
layers = (
{
layerId = "422CF5D5-EDAF-47A9-A829-F34A9B802C97";
paths = (
{
closed = 1;
nodes = (
"48 750 LINE",
"220 750 LINE",
"220 872 LINE",
"48 872 LINE"
);
}
);
width = 268;
}
);
unicode = 0307;
},
{
glyphname = gravecomb;
layers = (
{
layerId = "422CF5D5-EDAF-47A9-A829-F34A9B802C97";
paths = (
{
closed = 1;
nodes = (
"120 750 LINE",
"242 750 LINE",
"192 872 LINE",
"-10 872 LINE"
);
}
);
width = 242;
}
);
unicode = 0300;
},
{
glyphname = acutecomb;
layers = (
{
layerId = "422CF5D5-EDAF-47A9-A829-F34A9B802C97";
paths = (
{
closed = 1;
nodes = (
"50 872 LINE",
"0 750 LINE",
"122 750 LINE",
"252 872 LINE"
);
}
);
width = 242;
}
);
unicode = 0301;
},
{
glyphname = uni030B;
layers = (
{
layerId = "422CF5D5-EDAF-47A9-A829-F34A9B802C97";
paths = (
{
closed = 1;
nodes = (
"50 872 LINE",
"0 750 LINE",
"122 750 LINE",
"252 872 LINE"
);
},
{
closed = 1;
nodes = (
"280 872 LINE",
"230 750 LINE",
"352 750 LINE",
"482 872 LINE"
);
}
);
width = 472;
}
);
unicode = 030B;
},
{
glyphname = uni0302;
layers = (
{
layerId = "422CF5D5-EDAF-47A9-A829-F34A9B802C97";
paths = (
{
closed = 1;
nodes = (
"142 750 LINE",
"199 822 LINE",
"255 750 LINE",
"397 750 LINE",
"297 872 LINE",
"100 872 LINE",
"0 750 LINE"
);
}
);
width = 397;
}
);
unicode = 0302;
},
{
glyphname = uni030C;
layers = (
{
layerId = "422CF5D5-EDAF-47A9-A829-F34A9B802C97";
paths = (
{
closed = 1;
nodes = (
"100 750 LINE",
"297 750 LINE",
"397 872 LINE",
"255 872 LINE",
"199 800 LINE",
"142 872 LINE",
"0 872 LINE"
);
}
);
width = 397;
}
);
unicode = 030C;
},
{
glyphname = uni0306;
layers = (
{
layerId = "422CF5D5-EDAF-47A9-A829-F34A9B802C97";
paths = (
{
closed = 1;
nodes = (
"325 740 OFFCURVE",
"394 787 OFFCURVE",
"394 872 CURVE",
"254 872 LINE",
"254 846 OFFCURVE",
"234 832 OFFCURVE",
"197 832 CURVE SMOOTH",
"160 832 OFFCURVE",
"140 846 OFFCURVE",
"140 872 CURVE",
"0 872 LINE",
"0 786 OFFCURVE",
"69 740 OFFCURVE",
"197 740 CURVE SMOOTH"
);
}
);
width = 394;
}
);
unicode = 0306;
},
{
glyphname = uni030A;
layers = (
{
layerId = "422CF5D5-EDAF-47A9-A829-F34A9B802C97";
paths = (
{
closed = 1;
nodes = (
"242 740 LINE SMOOTH",
"313 740 OFFCURVE",
"352 779 OFFCURVE",
"352 850 CURVE SMOOTH",
"352 921 OFFCURVE",
"313 959 OFFCURVE",
"242 959 CURVE SMOOTH",
"128 959 LINE SMOOTH",
"57 959 OFFCURVE",
"18 920 OFFCURVE",
"18 850 CURVE SMOOTH",
"18 779 OFFCURVE",
"57 740 OFFCURVE",
"128 740 CURVE SMOOTH"
);
},
{
closed = 1;
nodes = (
"128 870 OFFCURVE",
"140 880 OFFCURVE",
"160 880 CURVE SMOOTH",
"210 880 LINE SMOOTH",
"230 880 OFFCURVE",
"242 869 OFFCURVE",
"242 850 CURVE SMOOTH",
"242 831 OFFCURVE",
"230 819 OFFCURVE",
"210 819 CURVE SMOOTH",
"160 819 LINE SMOOTH",
"140 819 OFFCURVE",
"128 831 OFFCURVE",
"128 850 CURVE SMOOTH"
);
}
);
width = 370;
}
);
unicode = 030A;
},
{
glyphname = tildecomb;
layers = (
{
layerId = "422CF5D5-EDAF-47A9-A829-F34A9B802C97";
paths = (
{
closed = 1;
nodes = (
"166 784 OFFCURVE",
"180 776 CURVE SMOOTH",
"207 761 OFFCURVE",
"245 741 OFFCURVE",
"300 741 CURVE SMOOTH",
"378 741 OFFCURVE",
"407 787 OFFCURVE",
"407 883 CURVE",
"297 883 LINE",
"297 857 OFFCURVE",
"297 843 OFFCURVE",
"280 843 CURVE SMOOTH",
"271 843 OFFCURVE",
"259 849 OFFCURVE",
"245 857 CURVE SMOOTH",
"218 872 OFFCURVE",
"180 892 OFFCURVE",
"125 892 CURVE SMOOTH",
"47 892 OFFCURVE",
"18 846 OFFCURVE",
"18 750 CURVE",
"128 750 LINE",
"128 776 OFFCURVE",
"128 790 OFFCURVE",
"145 790 CURVE SMOOTH",
"154 790 OFFCURVE"
);
}
);
width = 425;
}
);
unicode = 0303;
},
{
glyphname = uni0304;
layers = (
{
layerId = "422CF5D5-EDAF-47A9-A829-F34A9B802C97";
paths = (
{
closed = 1;
nodes = (
"396 760 LINE",
"396 862 LINE",
"24 862 LINE",
"24 760 LINE"
);
}
);
width = 420;
}
);
unicode = 0304;
},
{
glyphname = uni0312;
layers = (
{
layerId = "422CF5D5-EDAF-47A9-A829-F34A9B802C97";
paths = (
{
closed = 1;
nodes = (
"82 970 LINE",
"38 873 LINE SMOOTH",
"28 851 OFFCURVE",
"24 833 OFFCURVE",
"24 817 CURVE SMOOTH",
"24 774 OFFCURVE",
"56 750 OFFCURVE",
"94 750 CURVE SMOOTH",
"196 750 LINE",
"196 873 LINE",
"125 873 LINE",
"166 970 LINE"
);
}
);
width = 226;
}
);
unicode = 0312;
},
{
glyphname = uni0326;
layers = (
{
layerId = "422CF5D5-EDAF-47A9-A829-F34A9B802C97";
paths = (
{
closed = 1;
nodes = (
"138 -240 LINE",
"182 -143 LINE SMOOTH",
"192 -121 OFFCURVE",
"196 -103 OFFCURVE",
"196 -87 CURVE SMOOTH",
"196 -44 OFFCURVE",
"164 -20 OFFCURVE",
"126 -20 CURVE SMOOTH",
"24 -20 LINE",
"24 -143 LINE",
"95 -143 LINE",
"54 -240 LINE"
);
}
);
width = 214;
}
);
unicode = 0326;
},
{
glyphname = uni0327;
layers = (
{
layerId = "422CF5D5-EDAF-47A9-A829-F34A9B802C97";
paths = (
{
closed = 1;
nodes = (
"24 -240 LINE",
"156 -240 LINE SMOOTH",
"227 -240 OFFCURVE",
"266 -201 OFFCURVE",
"266 -130 CURVE SMOOTH",
"266 -59 OFFCURVE",
"227 -21 OFFCURVE",
"156 -21 CURVE SMOOTH",
"74 -21 LINE",
"74 -100 LINE",
"124 -100 LINE SMOOTH",
"144 -100 OFFCURVE",
"156 -111 OFFCURVE",
"156 -130 CURVE SMOOTH",
"156 -149 OFFCURVE",
"144 -161 OFFCURVE",
"124 -161 CURVE SMOOTH",
"24 -161 LINE"
);
}
);
width = 284;
}
);
unicode = 0327;
},
{
glyphname = uni0328;
layers = (
{
layerId = "422CF5D5-EDAF-47A9-A829-F34A9B802C97";
paths = (
{
closed = 1;
nodes = (
"128 -73 OFFCURVE",
"129 -46 OFFCURVE",
"160 0 CURVE",
"98 0 LINE",
"47 -30 OFFCURVE",
"18 -59 OFFCURVE",
"18 -109 CURVE SMOOTH",
"18 -180 OFFCURVE",
"57 -219 OFFCURVE",
"128 -219 CURVE SMOOTH",
"242 -219 LINE SMOOTH",
"313 -219 OFFCURVE",
"352 -180 OFFCURVE",
"352 -109 CURVE",
"242 -109 LINE",
"242 -128 OFFCURVE",
"230 -140 OFFCURVE",
"210 -140 CURVE SMOOTH",
"160 -140 LINE SMOOTH",
"140 -140 OFFCURVE",
"128 -128 OFFCURVE",
"128 -109 CURVE SMOOTH"
);
}
);
width = 370;
}
);
unicode = 0328;
},
{
glyphname = dieresis;
layers = (
{
layerId = "422CF5D5-EDAF-47A9-A829-F34A9B802C97";
paths = (
{
closed = 1;
nodes = (
"48 750 LINE",
"220 750 LINE",
"220 872 LINE",
"48 872 LINE"
);
},
{
closed = 1;
nodes = (
"298 750 LINE",
"470 750 LINE",
"470 872 LINE",
"298 872 LINE"
);
}
);
width = 518;
}
);
unicode = 00A8;
},
{
glyphname = dotaccent;
layers = (
{
layerId = "422CF5D5-EDAF-47A9-A829-F34A9B802C97";
paths = (
{
closed = 1;
nodes = (
"48 750 LINE",
"220 750 LINE",
"220 872 LINE",
"48 872 LINE"
);
}
);
width = 268;
}
);
unicode = 02D9;
},
{
glyphname = grave;
layers = (
{
layerId = "422CF5D5-EDAF-47A9-A829-F34A9B802C97";
paths = (
{
closed = 1;
nodes = (
"120 750 LINE",
"242 750 LINE",
"192 872 LINE",
"-10 872 LINE"
);
}
);
width = 242;
}
);
unicode = 0060;
},
{
glyphname = acute;
layers = (
{
layerId = "422CF5D5-EDAF-47A9-A829-F34A9B802C97";
paths = (
{
closed = 1;
nodes = (
"50 872 LINE",
"0 750 LINE",
"122 750 LINE",
"252 872 LINE"
);
}
);
width = 242;
}
);
unicode = 00B4;
},
{
glyphname = hungarumlaut;
layers = (
{
layerId = "422CF5D5-EDAF-47A9-A829-F34A9B802C97";
paths = (
{
closed = 1;
nodes = (
"50 872 LINE",
"0 750 LINE",
"122 750 LINE",
"252 872 LINE"
);
},
{
closed = 1;
nodes = (
"280 872 LINE",
"230 750 LINE",
"352 750 LINE",
"482 872 LINE"
);
}
);
width = 472;
}
);
unicode = 02DD;
},
{
glyphname = circumflex;
layers = (
{
layerId = "422CF5D5-EDAF-47A9-A829-F34A9B802C97";
paths = (
{
closed = 1;
nodes = (
"142 750 LINE",
"199 822 LINE",
"255 750 LINE",
"397 750 LINE",
"297 872 LINE",
"100 872 LINE",
"0 750 LINE"
);
}
);
width = 397;
}
);
unicode = 02C6;
},
{
glyphname = caron;
layers = (
{
layerId = "422CF5D5-EDAF-47A9-A829-F34A9B802C97";
paths = (
{
closed = 1;
nodes = (
"100 750 LINE",
"297 750 LINE",
"397 872 LINE",
"255 872 LINE",
"199 800 LINE",
"142 872 LINE",
"0 872 LINE"
);
}
);
width = 397;
}
);
unicode = 02C7;
},
{
glyphname = breve;
layers = (
{
layerId = "422CF5D5-EDAF-47A9-A829-F34A9B802C97";
paths = (
{
closed = 1;
nodes = (
"325 740 OFFCURVE",
"394 787 OFFCURVE",
"394 872 CURVE",
"254 872 LINE",
"254 846 OFFCURVE",
"234 832 OFFCURVE",
"197 832 CURVE SMOOTH",
"160 832 OFFCURVE",
"140 846 OFFCURVE",
"140 872 CURVE",
"0 872 LINE",
"0 786 OFFCURVE",
"69 740 OFFCURVE",
"197 740 CURVE SMOOTH"
);
}
);
width = 394;
}
);
unicode = 02D8;
},
{
glyphname = ring;
layers = (
{
layerId = "422CF5D5-EDAF-47A9-A829-F34A9B802C97";
paths = (
{
closed = 1;
nodes = (
"242 740 LINE SMOOTH",
"313 740 OFFCURVE",
"352 779 OFFCURVE",
"352 850 CURVE SMOOTH",
"352 921 OFFCURVE",
"313 959 OFFCURVE",
"242 959 CURVE SMOOTH",
"128 959 LINE SMOOTH",
"57 959 OFFCURVE",
"18 920 OFFCURVE",
"18 850 CURVE SMOOTH",
"18 779 OFFCURVE",
"57 740 OFFCURVE",
"128 740 CURVE SMOOTH"
);
},
{
closed = 1;
nodes = (
"128 870 OFFCURVE",
"140 880 OFFCURVE",
"160 880 CURVE SMOOTH",
"210 880 LINE SMOOTH",
"230 880 OFFCURVE",
"242 869 OFFCURVE",
"242 850 CURVE SMOOTH",
"242 831 OFFCURVE",
"230 819 OFFCURVE",
"210 819 CURVE SMOOTH",
"160 819 LINE SMOOTH",
"140 819 OFFCURVE",
"128 831 OFFCURVE",
"128 850 CURVE SMOOTH"
);
}
);
width = 370;
}
);
unicode = 02DA;
},
{
glyphname = tilde;
layers = (
{
layerId = "422CF5D5-EDAF-47A9-A829-F34A9B802C97";
paths = (
{
closed = 1;
nodes = (
"166 784 OFFCURVE",
"180 776 CURVE SMOOTH",
"207 761 OFFCURVE",
"245 741 OFFCURVE",
"300 741 CURVE SMOOTH",
"378 741 OFFCURVE",
"407 787 OFFCURVE",
"407 883 CURVE",
"297 883 LINE",
"297 857 OFFCURVE",
"297 843 OFFCURVE",
"280 843 CURVE SMOOTH",
"271 843 OFFCURVE",
"259 849 OFFCURVE",
"245 857 CURVE SMOOTH",
"218 872 OFFCURVE",
"180 892 OFFCURVE",
"125 892 CURVE SMOOTH",
"47 892 OFFCURVE",
"18 846 OFFCURVE",
"18 750 CURVE",
"128 750 LINE",
"128 776 OFFCURVE",
"128 790 OFFCURVE",
"145 790 CURVE SMOOTH",
"154 790 OFFCURVE"
);
}
);
width = 425;
}
);
unicode = 02DC;
},
{
glyphname = macron;
layers = (
{
layerId = "422CF5D5-EDAF-47A9-A829-F34A9B802C97";
paths = (
{
closed = 1;
nodes = (
"396 760 LINE",
"396 862 LINE",
"24 862 LINE",
"24 760 LINE"
);
}
);
width = 420;
}
);
unicode = 00AF;
},
{
glyphname = cedilla;
layers = (
{
layerId = "422CF5D5-EDAF-47A9-A829-F34A9B802C97";
paths = (
{
closed = 1;
nodes = (
"24 -240 LINE",
"156 -240 LINE SMOOTH",
"227 -240 OFFCURVE",
"266 -201 OFFCURVE",
"266 -130 CURVE SMOOTH",
"266 -59 OFFCURVE",
"227 -21 OFFCURVE",
"156 -21 CURVE SMOOTH",
"74 -21 LINE",
"74 -100 LINE",
"124 -100 LINE SMOOTH",
"144 -100 OFFCURVE",
"156 -111 OFFCURVE",
"156 -130 CURVE SMOOTH",
"156 -149 OFFCURVE",
"144 -161 OFFCURVE",
"124 -161 CURVE SMOOTH",
"24 -161 LINE"
);
}
);
width = 284;
}
);
unicode = 00B8;
},
{
glyphname = ogonek;
layers = (
{
layerId = "422CF5D5-EDAF-47A9-A829-F34A9B802C97";
paths = (
{
closed = 1;
nodes = (
"128 -73 OFFCURVE",
"129 -46 OFFCURVE",
"160 0 CURVE",
"98 0 LINE",
"47 -30 OFFCURVE",
"18 -59 OFFCURVE",
"18 -109 CURVE SMOOTH",
"18 -180 OFFCURVE",
"57 -219 OFFCURVE",
"128 -219 CURVE SMOOTH",
"242 -219 LINE SMOOTH",
"313 -219 OFFCURVE",
"352 -180 OFFCURVE",
"352 -109 CURVE",
"242 -109 LINE",
"242 -128 OFFCURVE",
"230 -140 OFFCURVE",
"210 -140 CURVE SMOOTH",
"160 -140 LINE SMOOTH",
"140 -140 OFFCURVE",
"128 -128 OFFCURVE",
"128 -109 CURVE SMOOTH"
);
}
);
width = 370;
}
);
unicode = 02DB;
},
{
glyphname = vocal;
layers = (
{
layerId = "422CF5D5-EDAF-47A9-A829-F34A9B802C97";
paths = (
{
closed = 1;
nodes = (
"205 368 LINE",
"60 73 LINE",
"63 72 LINE",
"205 -10 LINE",
"393 368 LINE",
"393 700 LINE",
"60 700 LINE",
"60 368 LINE"
);
},
{
closed = 1;
nodes = (
"480 700 LINE",
"480 368 LINE",
"626 368 LINE",
"480 73 LINE",
"483 72 LINE",
"625 -10 LINE",
"813 368 LINE",
"813 700 LINE"
);
}
